<mxfile host="app.diagrams.net" modified="2023-07-26T04:23:12.192Z" agent="Mozilla/5.0 (Macintosh; Intel Mac OS X 10_15_7) AppleWebKit/537.36 (KHTML, like Gecko) Chrome/114.0.0.0 Safari/537.36" etag="jB00acddpm_jd983ihkM" version="21.6.1" type="github">
  <diagram name="Page-1" id="g_EDheqCARKnpq6CCaQ8">
    <mxGraphModel dx="1434" dy="796" grid="1" gridSize="10" guides="1" tooltips="1" connect="1" arrows="1" fold="1" page="1" pageScale="1" pageWidth="827" pageHeight="1169" math="0" shadow="0">
      <root>
        <mxCell id="0" />
        <mxCell id="1" parent="0" />
        <mxCell id="XPjhp_FR7xsImikc65yB-11" value="" style="group" vertex="1" connectable="0" parent="1">
          <mxGeometry x="220" y="80" width="273" height="240" as="geometry" />
        </mxCell>
        <mxCell id="XPjhp_FR7xsImikc65yB-5" value="" style="rounded=0;whiteSpace=wrap;html=1;" vertex="1" parent="XPjhp_FR7xsImikc65yB-11">
          <mxGeometry width="273" height="240" as="geometry" />
        </mxCell>
        <mxCell id="XPjhp_FR7xsImikc65yB-4" value="" style="shape=image;verticalLabelPosition=bottom;labelBackgroundColor=default;verticalAlign=top;aspect=fixed;imageAspect=0;image=data:image/png,iVBORw0KGgoAAAANSUhEUgAAAeIAAAFACAYAAABgPX9GAAAMbGlDQ1BJQ0MgUHJvZmlsZQAASImVVwdYU8kWnluSkJDQAghICb0JIjWAlBBaAOndRkgCCSXGhKBiL4sKrgURUazoqoiCZQXEjl1ZFHtfLKgo66IuNlTehAR03Ve+d/LNvX/OnPlPyUzuPQBofuBKJHmoFgD54gJpfFgQIzUtnUF6BhD4IQNHYMDlySSs2NgoAGXw/nd5dwPaQrnqpOD65/x/FR2+QMYDABkHcSZfxsuH+DgA+DqeRFoAAFGht5xSIFHgORDrSmGAEJcrcLYS71DgTCU+PGCTGM+G+DIAalQuV5oNgMY9qGcU8rIhj8ZniF3EfJEYAM0REPvzhFw+xIrYR+TnT1LgSojtoL0EYhgPYGZ+x5n9N/7MIX4uN3sIK/MaELVgkUySx532f5bmf0t+nnzQhw0cVKE0PF6RP6zhrdxJkQpMhbhbnBkdo6g1xB9EfGXdAUApQnl4ktIeNebJ2LB+QB9iFz43OBJiY4hDxXnRUSp9ZpYolAMx3C3oVFEBJxFiA4gXCWQhCSqbTdJJ8SpfaEOWlM1S6c9xpQN+Fb4eyHOTWCr+N0IBR8WPaRQJE1MgpkBsVShKjoZYA2JnWW5CpMpmdJGQHT1oI5XHK+K3gjheIA4LUvJjhVnS0HiVfUm+bDBfbJNQxIlW4X0FwsRwZX2wUzzuQPwwF+yyQMxKGuQRyFKjBnPhC4JDlLljzwXipAQVzwdJQVC8ci1OkeTFquxxC0FemEJvAbG7rDBBtRZPLoCbU8mPZ0kKYhOVceJFOdyIWGU8+HIQBdggGDCAHI5MMAnkAFFbd2M3/KacCQVcIAXZQACcVJrBFSkDM2J4TQBF4A+IBEA2tC5oYFYACqH+y5BWeXUCWQOzhQMrcsFTiPNBJMiD3+UDq8RD3pLBE6gR/cM7Fw4ejDcPDsX8v9cPar9pWFATpdLIBz0yNActiSHEYGI4MZRojxvh/rgvHgWvgXC44kzcezCPb/aEp4R2wiPCdUIH4fZE0TzpD1GOAR2QP1RVi8zva4HbQE4PPAj3g+yQGdfHjYAT7g79sPAA6NkDatmquBVVYfzA/bcMvvs1VHZkFzJKHkYOJNv9uFLDQcNjiEVR6+/ro4w1c6je7KGZH/2zv6s+H94jf7TEFmH7sbPYCew8dhhrBAzsGNaEtWJHFHhodz0Z2F2D3uIH4smFPKJ/+OOqfCoqKXOpdely+aycKxBMLVAcPPYkyTSpKFtYwGDBp4OAwRHznEcwXF1c3QBQPGuUf19v4waeIYh+6zfd/N8B8DvW399/6Jsu4hgAe73g8T/4TWfHBEBbHYBzB3lyaaFShysuBPgvoQlPmiEwBZbADubjCjyBLwgEISACxIBEkAYmwCoL4T6XgilgBpgLikEpWA5WgbVgI9gCdoDdYB9oBIfBCXAGXASXwXVwF+6eTvAS9IB3oA9BEBJCQ+iIIWKGWCOOiCvCRPyRECQKiUfSkAwkGxEjcmQGMh8pRcqQtchmpAbZixxETiDnkXbkNvIQ6ULeIJ9QDKWiuqgJaoOORJkoC41EE9HxaDY6GS1CF6BL0Uq0Gt2FNqAn0IvodbQDfYn2YgBTx/Qxc8wJY2JsLAZLx7IwKTYLK8EqsGqsDmuGv/NVrAPrxj7iRJyOM3AnuIPD8SSch0/GZ+FL8LX4DrwBP4VfxR/iPfhXAo1gTHAk+BA4hFRCNmEKoZhQQdhGOEA4Dc9SJ+EdkUjUJ9oSveBZTCPmEKcTlxDXE+uJx4ntxMfEXhKJZEhyJPmRYkhcUgGpmLSGtIt0jHSF1En6oKauZqbmqhaqlq4mVpunVqG2U+2o2hW1Z2p9ZC2yNdmHHEPmk6eRl5G3kpvJl8id5D6KNsWW4kdJpORQ5lIqKXWU05R7lLfq6uoW6t7qceoi9Tnqlep71M+pP1T/SNWhOlDZ1HFUOXUpdTv1OPU29S2NRrOhBdLSaQW0pbQa2knaA9oHDbqGswZHg68xW6NKo0HjisYrTbKmtSZLc4JmkWaF5n7NS5rdWmQtGy22FldrllaV1kGtm1q92nTtUdox2vnaS7R3ap/Xfq5D0rHRCdHh6yzQ2aJzUucxHaNb0tl0Hn0+fSv9NL1Tl6hrq8vRzdEt1d2t26bbo6ej566XrDdVr0rviF6HPqZvo8/Rz9Nfpr9P/4b+p2Emw1jDBMMWD6sbdmXYe4PhBoEGAoMSg3qD6wafDBmGIYa5hisMGw3vG+FGDkZxRlOMNhidNuoerjvcdzhveMnwfcPvGKPGDsbxxtONtxi3GveamJqEmUhM1picNOk21TcNNM0xLTc9atplRjfzNxOZlZsdM3vB0GOwGHmMSsYpRo+5sXm4udx8s3mbeZ+FrUWSxTyLeov7lhRLpmWWZblli2WPlZnVGKsZVrVWd6zJ1kxrofVq67PW721sbVJsFto02jy3NbDl2BbZ1tres6PZBdhNtqu2u2ZPtGfa59qvt7/sgDp4OAgdqhwuOaKOno4ix/WO7SMII7xHiEdUj7jpRHViORU61To9dNZ3jnKe59zo/Gqk1cj0kStGnh351cXDJc9lq8vdUTqjIkbNG9U86o2rgyvPtcr1mhvNLdRttluT22t3R3eB+wb3Wx50jzEeCz1aPL54enlKPes8u7ysvDK81nndZOoyY5lLmOe8Cd5B3rO9D3t/9PH0KfDZ5/Onr5Nvru9O3+ejbUcLRm8d/djPwo/rt9mvw5/hn+G/yb8jwDyAG1Ad8CjQMpAfuC3wGcuelcPaxXoV5BIkDToQ9J7tw57JPh6MBYcFlwS3heiEJIWsDXkQahGaHVob2hPmETY97Hg4ITwyfEX4TY4Jh8ep4fREeEXMjDgVSY1MiFwb+SjKIUoa1TwGHRMxZuWYe9HW0eLoxhgQw4lZGXM/1jZ2cuyhOGJcbFxV3NP4UfEz4s8m0BMmJuxMeJcYlLgs8W6SXZI8qSVZM3lcck3y+5TglLKUjtSRqTNTL6YZpYnSmtJJ6cnp29J7x4aMXTW2c5zHuOJxN8bbjp86/vwEowl5E45M1JzInbg/g5CRkrEz4zM3hlvN7c3kZK7L7OGxeat5L/mB/HJ+l8BPUCZ4luWXVZb1PNsve2V2lzBAWCHsFrFFa0Wvc8JzNua8z43J3Z7bn5eSV5+vlp+Rf1CsI84Vn5pkOmnqpHaJo6RY0jHZZ/KqyT3SSOk2GSIbL2sq0IUv9a1yO/lP8oeF/oVVhR+mJE/ZP1V7qnhq6zSHaYunPSsKLfplOj6dN71lhvmMuTMezmTN3DwLmZU5q2W25ewFszvnhM3ZMZcyN3fub/Nc5pXN+2t+yvzmBSYL5ix4/FPYT7XFGsXS4psLfRduXIQvEi1qW+y2eM3iryX8kgulLqUVpZ+X8JZc+HnUz5U/9y/NWtq2zHPZhuXE5eLlN1YErNhRpl1WVPZ45ZiVDeWM8pLyv1ZNXHW+wr1i42rKavnqjsqoyqY1VmuWr/m8Vrj2elVQVf0643WL171fz19/ZUPghrqNJhtLN37aJNp0a3PY5oZqm+qKLcQthVuebk3eevYX5i8124y2lW77sl28vWNH/I5TNV41NTuNdy6rRWvltV27xu26vDt4d1OdU93mev360j1gj3zPi70Ze2/si9zXsp+5v+5X61/XHaAfKGlAGqY19DQKGzua0praD0YcbGn2bT5wyPnQ9sPmh6uO6B1ZdpRydMHR/mNFx3qPS453n8g+8bhlYsvdk6knr52KO9V2OvL0uTOhZ06eZZ09ds7v3OHzPucPXmBeaLzoebGh1aP1wG8evx1o82xruOR1qemy9+Xm9tHtR68EXDlxNfjqmWucaxevR19vv5F049bNcTc7bvFvPb+dd/v1ncI7fXfn3CPcK7mvdb/igfGD6t/tf6/v8Ow48jD4YeujhEd3H/Mev3wie/K5c8FT2tOKZ2bPap67Pj/cFdp1+cXYF50vJS/7uov/0P5j3Su7V7/+Gfhna09qT+dr6ev+N0veGr7d/pf7Xy29sb0P3uW/63tf8sHww46PzI9nP6V8etY35TPpc+UX+y/NXyO/3uvP7++XcKXcgVcBDA40KwuAN9sBoKUBQId9G2WsshccEETZvw4g8J+wsl8cEE8A6uD7e1w3fLu5CcCerbD9gvyasFeNpQGQ6A1QN7ehoRJZlpurkosK+xTCg/7+t7BnI60E4Mvy/v6+6v7+L1tgsLB3PC5W9qAKIcKeYRPnS2Z+Jvg3ouxPv8vxxztQROAOfrz/C8LykLlFLtdSAAAAbGVYSWZNTQAqAAAACAAEARoABQAAAAEAAAA+ARsABQAAAAEAAABGASgAAwAAAAEAAgAAh2kABAAAAAEAAABOAAAAAAAAAJAAAAABAAAAkAAAAAEAAqACAAQAAAABAAAB4qADAAQAAAABAAABQAAAAABIZqcnAAAACXBIWXMAABYlAAAWJQFJUiTwAABAAElEQVR4AeydB3wUxffAX3olnUCAAIEkQBJC7xC6CFJEmgqCKCKgfxVRQMGCXURUQBQFRX4qiCJIE6SFFnoPISQhtJDee89/3oS93F7L9Vwu7/G57O70+e5xb9/Mm1mLKiZAQgSIABEgAkSACNQJAcs6qZUqJQJEgAgQASJABDgBa3U4REdHQ1pamiSpnZ0d9OzZU3JNJ0SACBABIkAEiIB2BFQq4oqKCujXrx+cOXNGVHrLli3h7t27ojC6IAJEgAgQASJABDQnoFIRh4eHcyX86aefQp8+fSSl29vbS87phAgQASJABIgAEdCegEpFnJSUxEvu2LEjDBw4UPtaKCcRIAJEgAgQASKgkIBKZy0HBweeKT09XWFmCiQCRIAIEAEiQAR0I6BSEXfo0IGXHhERoVstlJsIEAEiQASIABFQSMCitnXEw4cPh6NHj8LZs2ehc+fOCguhQCJABIgAESACREA7ArUqYpwn7tSpE3h7e8Ply5fB2lrltLJ2raBcRIAIEAEiQAQaKAGVQ9PIxMfHB5YuXQrXr1+XW8bUQJlRt4kAESACRIAI6I1ArYpYuiZHR0fpSzonAkSACBABIkAEdCQgN86MQ9EJCQlQXFwMuKPWtWvXYP369TBx4kTo0qWLjtVRdiJABIgAESACRECagJwi/vnnn2HJkiWSNI0aNYKtW7fC6NGjJWF0QgSIABEgAkSACOiHgJyzVnx8PMTGxoos4m3btsH06dNh3bp1+qmVSiECRIAIEAEiQAQ4ATlFrIjL8uXLYdGiRdxhKygoSFESCiMCRIAIEAEiQAS0IKCWs5aLiwsvOjU1VYsqKAsRIAJEgAgQASKgjECtFnFmZiZfR4yvPoyKigJbW1tlZVE4ESACRIAIEAEioCEBOWct2fyzZs2CxMREOH78OClhWTh0TQSIABEgAkRARwIqLeK4uDgICAiAGTNmwMaNG3WsirITASJABIgAESACsgRUzhHjGmKUsLAw2Xx0TQSIABEgAkSACOiBgEpFXFBQwKto0qSJHqqiIogAESACRIAIEAFZAirniL28vHj6O3fu8B22hMzosNWuXTvhko5EgAgQASJABIiAlgRUzhGXlZVBSEgIxMTEiIpv2bIl3L17VxRGF0SACBABIkAEiIDmBFRaxDY2Nny/6YiICEhPT5eU7uDgIDmnEyJABIgAESACREB7AiotYu2LpZxEgAgQASJABIiAOgRUOmupUwClIQJEgAgQASJABLQnQIpYe3aUkwgQASJABIiAzgRIEeuMkAogAkSACBABIqA9AVLE2rOjnESACBABIkAEdCYgUcSRkZGAHxIiQASIABEgAkTAeAQkith4VVJNRIAIEAEiQASIgECAFLFAgo5EgAgQASJABOqAACniOoBOVRIBIkAEiAAREAiQIhZI0JEIEAEiQASIQB0QIEVcB9CpSiJABIgAESACAgFSxAIJOhIBIkAEiAARqAMCpIjrADpVSQSIABEgAkRAIECKWCBBRyJABIgAESACdUDAZBRxaX4+bJ86GU58tEyC4fDiBTxMEkAnRiWQePYM5x+97U9er6J7ZNQGqagsv7AMnlzyL3yw/owk1ZurTvAwSYABT7YdjoNBc7bB8x8dhPKKSgPWVHdFFxaXwzPv7Yeh8/6GfyPuGKQh28Nv8Xu2V8vyz1xP5vn/OhTH26foe2GQhlOhREAHAiajiKsqyiHp/FnIuHlD0p1UttMXhqkjl9Z/DzuemQIZMdHqJG9wabThU5ydxfnnJT3gvCrLy+TukamALK+shHNRKRB9N0vSpMhbGTxMEiB18v4Pp+Hppfvg5JVEqVD50/ALCTzd15svyUdKhfx1OBbup+QBpr8p1QapJHV2euzSA96Hb/+8olMbrsamQ8TVJLiTlAs7mMI0hCSlF/B7lpJRqFXx2XklPH9iej7PX8YeimS/F1oVTJmIgAEJWBuwbKMWnR0fD2jBodVGIk+A+IiZuDjbAVpPrZu5QL9OzcSRUle7T9zm6R7r31oqVP50+qgOUFxSAW1buEL71h7yCeowJCOnmPehiaejTq3o0r4xjOrbGhKZsnz60fY6lUWZiQARqCFgNoq4pkt0RgRqJzCkewtAC/HoxWprX1GOqioAtCZRBnfzVZREEjaSKSj8mLPY2VjB6jcHmXMXqW9EoE4ImMzQtK69Ly8p1rUIs85PfMS3NzTACzxd7SE5owBi7tUMZ0unuh6fAWhNtmvlDs0aO0lH0TkRIAJEQG8E6q1FfPvgf1Cck81BFGdlwr3jR/n53SOHIPt2vAiQrZMTtH30MVGYcJEZGwOJ585A+o0osHdzg8YhHaFV2CCwdlA8jIfD3zn370LLAQPBzsUFov/+C9Iir4ENq8M7tBMEPDYWLCyVP98UZWZC3J6dkBV/C8qLCsGlZSvw7RcGTTp1Fpokd4zdswvKi4ug/fiJUJiWCje2bYWcu3fBuWlTaNG3PzTv1Ucuj774yBWsQUBBQQFs3rwZHjx4ABMnToTg4GANchs2qaWFBQzq1gLQyQqt4sCW7nIVHr2YwMOGdJe3hk+wuWWcz5SVFt7O0Kejj2wwv76dmAvnb6RwxR7q76UwTXFpBew6Hg8ejexhaE/5ejNzi1n8bYh/kAPoPNWqaSPo37kZdA5srLA8XQKzWF0Hz91XWMQjvVqBq7OtwjgMxCH9opJymDDEH9Iyi+DPQ7FwJzkXfDydoF9oM+jdsanSvKoicH4a53xtra1g9AA/sLK0UJWc4ohAvSBgOorYwpIpFh+w9/CUgHNs3JjN+eZKrqVPzq7+CjKiaxy7hLiLP3wnnEqOjZq3kFPEVZUVcH7tav6pqqgAKzs7qCgtBWDjka6t/OCRr1ZB4+COkjKEk6itv0PMrn/gka+/hfPfroLM2JtCFD9G/rYJHvthI1fSogh2EbV1Mxz/8L3qejCSKQOs7+w3K6Hd4xNg6GcrqsNkMkZ89hEUpKaAR9sA2PX8M6J58AvffwshT02DsPc/EuXSlQ8WZm1vz++JrXMjXjY+YOA9cvBUrEREDWAXP/74I8yfP58Hb9myBW7ckL9fsnm0vUbF2pT9yHu62EuKaOzuAHmF7J4qEVSwgiJ+4fEQuVRHHw5L4zC2rGzcFQVHmGOWrIzo3UqpIsa0i9ec5Epz2+eKHwwPn7/P02B7ZBXxlgMxsOxH5gdRVsGrffj1ga+YI9n4wW3hi/8bwL9Ssm3S9johNZ+3RVF+fJBQpYg/+fkcpGQWgr+vGzy77D9A72VB1v51FaY+2g4+eFH+AVJIo+h4hTmLPf/hAcCHlbWLBitUwva21vx74Oxgw4sQvhdebPSDhAiYKgGTUcRoXU4/ekrEaezPv4qupS+GfLIcygpqPCvPfL0Cki6cgwHvLAPPQLEjCSpZWTn95ReAnsTNevSE/m+/B57t2zMLtRhimbV68tMPYcfUKfDUvkNc8cjmxesL362GNo88CiPXrAM7N1f+UHCcLb1KvnQRzq36CvovfU+U7cGZUxD+zlu8vD4L3+b1WlhawZ3DB+Dij9/DzR3bwLNde+j83AuifNIXp778jLfVtz/7wWVK8X7ECTjx8TKI3PwrtOg3ANoMHyFJrisfLKglGxmQvid2Lq6ia0llSk6KiookMcXFhp06cHGyhZPrJ0nqw5NN7z8iupa96M+ctKytLLmVitalo33Nf4fcglK4fDMN3Jli79xO3tpcOL0bvDC+RnlH386CDzbULJ2SrQuv/ZhjWCc2JH45Jg1QyaH1LCu7mbWLMjasjSjq9LVkWLI2giuZt57tDj2CmnBFhBbrur+vwfYjt6B9Kw+YNU5/ow5tmrvC7x89KmrHxz+dAxyyV1e+2HQB3nmuFwxgVrsFs17RS/1Dxum3fTehf6fm8EjvlmoVdfxyIsz9/DDv88b3hkP3Dk0U5hvYtbnoe4APC7LfC4UZKZAI1CGBml+eOmyENlXLWqv27tVDi15BweDTtbvKInPv34Orv2zgim/sxt/B0roaAw4vB01+CiytrOHw22/C6RWfwbAV3ygsC4eme75Sbe1hgua9+3Kl/PuooRD15xbov+RdkXWLbeo6ey60nzAZ3Fr7ScrE+lBQSd/6d7dKRdxl1hxoNXCwJG+7cU9AVXkFbyta29KKWBc+kgp0PJk9ezagAsah6enTp+tYmv6zOzvaQM/gJnxJzim2LEfaAsWh54rKKhjEftjRqpIV2aFsRWlk8+D1uLC2gJbdHjZ0++IT4hGXgqIyvvwpgFmRQX5iz+tuHbxhDks/cWgAV+hC2U8OD+SnqKT3nrytV0XsxKzKXsHiIWR84NFEZrOHFZwCEGT8oLZQUVEFi9acALTw1VHEe0/egde/PgbOjraw8d3hENK2ZtRMKJeORKA+E1A+mcl6VcqGau+yuchbt25BVpZihxZlnU9PT+f57t+/D+Xl5cqS1Un4jb/+gIqyMqYY50mUsHRD2j8xEWwcHSHu3z1QyYatFUmznr3lgl1bt+ZKFudz81OSRfGWNjbQe8EikRIWEviPGsOUvxVk3ooTghQem/eSr7PVoCE8bfadaktKYcY6CvT09IRly5bB+vXrISwsTKNWGOv7I8z/hj+cDxYaqWp+WEijzZHPa1pZ8DlU2fwHzt6DEjbs/DhTVrJiY20Jbz7TTaSEhTSj+7G5UlZmXEKOEGQyx14hYkWODRv8cKj/dmLt7f19/0149cuj4MFGJrYw65yUsMncWmqIHgmoVMTZ2dlQWFjIFXJaWpra1VayzRXwhxQVeX5+PuTmKp7nVbtAPSfMjIvlJaIFjApM7nP3Djg3aw6V7AEi995dhbULVrRspJN39ZBZMXPKUiVVjFEJczZDR7PKslI+R13JHg5UiaV19byXdBoHpuwsmBIvzlR/uFA6vymeG/P7I8z/CsuUBB7HmAMXKrcBXZSvMRbSanJET20cko26nckdrqTz4rA0Gt9jB7SRDlZ4Xsl8C7LzSwAdqsrYqAguLSorr1SYti4D8QFCVpABOlmh45kq+WF7JLzz/SnAvq54dQCfb1aVnuKIQH0loHJo2p456whip2CeVYiTPVqy+UsbZgGiIkaRLkc2bV1cC9bj3jnP11p97oMEcPOr/YdRKEiVx3R61HW4/PN6eHA6Aooy0uWsbStbzYb9JHUqGDoV4urj0Zjfn1Y+LoBzoeiFfIt92rLzG3cyITWriHn2+kAjNhyqb3l8YBvmqZ3AreJXplR7y6NSxXlQnPtVtlQK52Z/2hkFp64lQXpOER/ilW6bLVPG9UUsavnO/rYvGtDLHKcAcHnZ55vOw5+fjoL61Mf6ci+onXVPQKUidmEOVKhEy5il5siGajURPz8/QGcdW6ZcUCmbktg8XJo05NMV4Oil2gO4cVCNQ44ufUi5fIlvwYle0gGjx4IXKxcd1ATFfWTpYu5BrUsd5pTXmN8ftIpRER9lXtCoiIVNPgZLzW3qk+3wXi3BgTmG4RIfQRHvP3WX71E9bqD8sDTWfYk5eOGWnFXs+zOGWcwhbTzBhTkiCfrs7W8joEqfjazjslAJo+c4OsU9/+FBvrHKRz+d1djTuo67QdUTAbUIqFTEWAIqUvxoKmjVOLGhX1MU9zZtIfXaFbZMqRX4dOthlCaeZ17WuDyq29yXoddrb8jVefT9pWyIWvXQtFwmMw4w5vcH54nX/3OdK+DnxgZzaxXRCsPW+sbsYGcNI9g63B1Hb0H0nSy2JaY7V8po7eEWkork261X+LKllyaGwutTu8oleXfdaZMcmpZrqJoB00a2h8Uzqp0uV742AB57fSf3tO4R1JQ9iPipWQolIwL1g4D8BE79aLdOrfTuGMrzJ5w6qbScO4cP8jlipQk0jMh66IjVYeIUuZyogCsfDuPLRZpBQElJiUn3ApfC4BD0WbZRBA5JX4hOBWHI2lANH8eGp1HQKk7PLoIzkclsG80WoMwrWXDEmjQsUK5JODcsrC2Wi6ynAa3ZlIEguITsm9cH8nnlt9ee5FMIQpy+j/hdPXToEP+Eh4fru3gqjwgoJGA2itjZR32nGlwyhJt8XGLrd1OuXJYDc/WXn2Dv3FlwbNk7cnHaBri0qN4l6da+vXJFXN/yG/filovQY4AmfPRV7enTp8HX1xfc2I5lCxcu1Fexei8HnbLCmFMWKrMVv17gc6+GsoaFxuOLJrzcHLgixlf+4VIpQTkLaaSPvk2q1xzvO3VHOpifo2exKTpqyTVUhwCcO5//dBe+m9hLnx/hu3bpUJzSrBcuXIBhw4bxz8qVK5WmowgioE8CtQ5N67MyQ5aFa2iv/W8jXGC7Zcnu/IRrjPstXiqpHjf4GLjsY9j38hz4+6kJEDBqNNvaMhSKmOdxQsRJSI28ypcZ9X79TUkeXU9w9yu0wHEjkKy4GPDp0YttSFLAt+a0d3WFDmx9cfT2v1ibXgTvjp2g64vzdK1SlF8TPqKMOlxs27YNEhISeAnr1q2D5cuX61CaYbMOZsPTe07e4TttYU3CsiZltW7YeZ07dQnxGdnVHsDXbqXDG6uOC8Hg5eogGWKVBLIT9Boe3d8PNu6OYi+fuMotYVVz0lPZ247wFYRr2IsqYu5l8/XPhUXlgLt/4aYVk9j6YtwlbC5TUqH+njB3QvWoj3SduJkGzjMrk2FsS00cmhfkfko+fPOH+PWPcfert5X98reLfI5aSDt1RHvoomDjEyFeH8c5T4TC2espfL4YvanRk1rfculSTX/nzdPv/0F9t5XKMx8CZqOIcYesge9/zPdhFvadFm4TWr/SihjDcUOOyTv2wJEliyB2726+bSVPz7xfWvYP44ra3l28qYJQnjbHNiNGsjI/gTNffcEU7jb+wS0kcSOQQR9+yrawTOV7Z98NP6zXIXGhrZryEfLpchw+fDisWbOGb+oxZswYXYoyeF5h4w5cKiNs9KGqUtwARNEWl4lpBXyXKyEvDrEKc51CmHBE72lUxDg0jRtzqPIIfrRPK/hoTh9ABfj3kTj+sbe14ttpfjKvL6Sy7STR8/oI2yKzXMkyJnyBRUaOeH270BY84iscpSU7r1jUF+m4QzJ7UId1bm5wRYyOacJ88Xb2PuTuzEoWNjSRbpsu54Ii9vf3hxEjanaq06VMyksEaiNgwbwwubNlZGQkTxsSoh8v4doqNqX4CjYvlBETDVXsJeIuvsyjla3NNZSgwxauTS7Jy2N7WYeAtkuWDNU+fZeL69AzMjL4ELW+y26I5eHw+b3kPLaHdhkEt/FQqbwbIh9d+9ytWze4ePEirFixAhYsWKBrcZSfCKhFgBSxWpgoEREgAuZOAJdpOjs7s41crPiUioeH/kbEzJ0d9U83AmbjrKUbBspNBIhAQycQFRXFNyGaMmUKkBJu6N8G4/bfbOaIjYuNaiMCRMDcCKB3/4YNG2DIkCHm1jXqj4kToKFpE79B1DwiQASIABEwbwI0NG3e95d6RwSIABEgAiZOgBSxid8gah4RIAJEgAiYNwFSxOZ9f6l3RIAIEAEiYOIESBGb+A2i5hEBIkAEiIB5EyBFbN73l3pHBIgAESACJk6AFLGJ3yBqHhEgAkSACJg3AVLE5n1/qXdEgAgQASJg4gRIEZv4DaLmEQEiQASIgHkTIEVs3veXekcEiAARIAImToAUsYnfIGoeESACRIAImDcBUsTmfX+pd0SACBABImDiBEgRm/gNouYRASJABIiAeROgty+Z9/2l3mlIICkpCeLi4kS5evbsCXZ2dqIwuiACRIAI6IuAyVjEpfn5sH3qZDjx0TJJ3w4vXsDDJAH1+CQ/OYn35dj7S3XuRfTff8Gvw8Jgz+yZUFlernN5hihA9t5d+eUn3v/0G1GGqE4vZc6fPx98fX0hLCxM9ElMTNRL+VQIESACREARAZOxiKsqyiHp/FmwtKx5NkiNjITM2JuK2l3vwiqKS3j/qioqdG579N9bIff+Pf7JjLkJXkHBOpep7wLSrkdCBmubILn37vL+l+blCUEmdSwoKIDvv/8eJk6cCHPnzhW1zcfHR3RNF0SACBABfRIwGUWsz06Ze1kdn3kWyplid2/TFjzbtzf37hqlf1lZWVBcXMwt4oEDBxqlTqqECBABIoAESBHXw+9B2xGjAD8k+iPg4ODAC0tPT9dfoVQSESACREANAjXjwGokpiREwFwJeHp6gre3N5w+fRqqqqrMtZvULyJABEyQgFlYxFm34uDW/n8hL+E+WNpYg2vL1uA/ajQ4+zRTiPzB2dN8flU60sbBkefBsML0NMA5ziJmHVnZ2kLAmHHSSSXniefOQsqVS5Adf4sNEXcA334DwL2tvyRe1Ulq5FWI27sbijMzwLV1G2bhjgQ3vzYKs9w/eRzQ2UtWXJq3gOa9+8oG82t0fru1fy84uHtA6yHDFKbBwHjGrSQ/D9o9PgEsrazk0mXGxkDiuTOATlb2bm7QOKQjtAobBNaMlyHl/Pnz8M8//0BgYCA8+eSTYGNjY8jqeNmvvPIKLF26FNauXQsvvfSSweujCogAESACSMB0FLGFJTg39QF7D0/JnXFs3BhK83Ml17In6DF8/MN34fqW36ujLCyAmTP8/Mw3X0LfRUug49Tpstkg6o/fIXb3TlG4U5OmXBFf/OE7OLf6K6goLeXxDh4ecoq4jDn2hL/7llwZmKFJp84wbtMWsLa3F5UvfRG1dTOEv/OWdBCcX7sKBi37BNqNnyAKx4urm36Gu+GH5cLbPPKoUkVs4+gI51Z9BUVM0c+MuAC2jRrJ5ccHjv2vvQSNg0Kgw4TJoviqygrWptX8gw5mVmz5DmfC+Lq28oNHvloFjYM7ivJIXzh4NQbn3Jp7Z+fiyu8vPtjUJuXsvo4cORKEYWJblmfKlCm1ZdM5fvHixXDgwAFYuHAhr79NG8UPRjpXRAUQASJABKQImIwitnNxgelHT0k1DWDsz7+KrmUvLny3hivh5j17Q5cX5kDTrt2hICUZ4g/shwvfrYYTHy8D75BQrhyl83af9woET5nKgyrLy2DnzGn8POXqFTi35muu3Nxa+zFr2A5snOQtP1Re946Fg9+wR6DHy68xS9aPW4zR2/6EqD+3QPjSxTBsxdfSVUrOC1JT4OaOv2H0+l9Y2zpCCfMixmts77Fl70DzPn25wpJkYCd93lgEXZ5/URKUHh3F+yYJUHBiwbzPA0aPg0vrv+c82j8xUS7VrX/3QFVlJQSMfVwu7vSXX/C8zXr0hP5vv8edwsqLiiF2z044+emHsGPqFHhq3yG5tgoFyd67nq++DvhRRyqY4i8pKZEkRScqY4gVGxFYtWoVdOrUCTZv3gxLliwxRrVUBxEgAg2cgMkoYm3uQ/CTT0NJbg70fv1NyVCprbM/dGPDw1lxMRCz6x+I/2+fnCLG4WNhCFmwfPF4cd23MHn7HkmcojbhsDYqYRyGHvntD5IkTbt0g6adu0JxdhY4eHlBBVMkaEXKClqhk7fvBjtXNx5lz4aOe74yH/IeJDCFvI1Z2f9Al1lzRNk8AtqJri0smeWvhgQyBYuKOG7vLlCkiGP37AILpnwCHhsrKg2XRl39ZQN4tmsPYzf+DpbW1V8TGycnCJr8FBvCtobDb78Jp1d8xh44vhHl1ccFbp6xZcsW2Lp1K7Rr144vKdJHuZqU4chGFEiIABEgAsYgoFIRlzLlhDsN4VChBxuidXd3V7tNOKyYk5MDOKyI6zCtH/6Yq12AGgkdG3tD/yXvKUwZOHY8V8Q4f6yOFGdlQihbFiQoaGV5brBhZZROz70gn4QNjT+6Zp18uFSIZ2B7iRKWCoZWg4ZwRZx9+7Z0sE7nqEg9A9tBQsQJwP6h0hckn21SkXz5IrRkDxSO7MFBWm789QdUlJVB19nzJEpYOh6V+vGP3oM4ZlEP+Xylwrll6fTanI8aNQrwo6nksRGGtLQ0vh4dna9UKdR8No9+48YNQAs8Pj4erl+/Dr/99hv4+/vDc889p2nVlJ4IEAEioBUBlYo4OzsbCgsLecH446auIq5kw52oiNH7FJV5LpsrREVuaME549K86nlJy4fOPZVl1XO9tdWNc5c+PXrVlgwERYlreLURwbqUzevElAYKzunqUwLHjYdTX3zGHLf2AY4gCBL3724+n47xspIZF8uD0ALOvqP4wcC5WXM26hALuFGHMicz2XKNcZ2RkSEZ1s7MzFSpiK9evQr9+vUTNeuDDz7gDlsW6G9AQgSIABEwAgGVitheyuFIk712cXcs9HJFJYwiXY6++3T74H9w7bdNfI4Wh4UFZy1N60FrUZHXsGw5Offu8CCbh+tOZeO1vcY5XUMIzhOfWvE5xLG5XWlFjMPS6CnuN2yEXLWC8t0753m5ONmAXDakbkqKGL+nRUVFvJm1fe+CgoJg3759Eos4ku3ktmbNGti5cyeEh4eDE3sQISECRIAIGJqASkXswhyo8MesjA1TqhriU9RIP+bAhD+IODRtqKUnVzZu4I5DDp6ebPnNE8ybtzXYPvzxzE1IgLPMc1rfYuPoxOalq61ufZdtiPLQE705s/QT2fahhWmpgMP5OXfvsOVZ1yCQLctC72pZQQWNMuTTFXLD1rJp0ePalASnQdzYMiu0aGtTxJhuxAjxgwgOSffq1Qs2bdokt9WlKfWT2kIEiID5EFCpiLGbqEjxo6mgVWxIiwK9fc+uWsmbNZw5DLXo21/URFwHbAhF7NqyFV/TW8CUmvScq6hyE7vA4Wd0MsM53dDpM5nn8y7eQpxHVyQ47J567Qp7sGkFPt16KEpi0mHCLlnaNBIfPlFSUlK0yU55iAARIAIaEzDMeKjGzdA8Ay5TwvW8zs2aySlhLA3jDCFewdUWYPKFCwqLx3bhMihTEtwOE+fA0XsaBY84itCCOWopEu+OoTw44dRJRdE87M7hgwZ/85P0EialDdFjBPo0LFiwgD94GmPdsh6bTkURASJQjwnUW0Xs6N2EKxf0/kXrTVrQWsZ5Y0NIl+dns806HODct9/wJUfSdeCSpX9fehG2PzUBcpgTk6kIbuaBu2slX74EuDEI7pblP2qM0jlxXKLUqHkLuPTj92znsMty3bjKXmm4d+4svu5ZLlJPAc8++yw0Yu0OCAiA2Nhq5zE9Fa20GFxDvHfvXkCHrQ4dOihNRxFEgAgQAX0SqHVoWp+V6bMsdKxChXHt119g/yvzoM3wEYDWagEbUozdtQNCnp7OHLiuQxr77Hv5RbaOdpJkq8fIzb9CClNKKMJrCUvYUqtDixaImtg4KBhCZzwnCsM5Vly3fOLTD2HLmBF8a0gcys24GQ33jodDPlvu1fv1hWybzVaifLpcXPl5PaRH35AUUZSexs9xm0zpNuMypD5vinfsEjIFjnkcbu3bC0eWLORByoalMRLXPw9c9jHjNgf+Zg8VAWy70MZsYxT06E6IOAlYL254ghwMIbis6JdffuFFx8XFwe7duwHfFWxoWbFiBbRt2xbeeOMNQ1dF5RMBIkAEJATqrSLGHvRd+DZzyrGEyM3/A3zxPIq9mzt0mDgZgp+aCo3YS97Ps52ycKct3HVLEHzvsewWl+XFRXwdr5AGj7hZiKwixnAMw/XGxz54DyKlLG9bZ2fo/tKr0PXFeZhMb5JwOoJbsrIF4mgAbgIiCG49qUwRtxo4GOzZJiKFbFkZpmsS2knIpvDYcsBAmLxjD1PciyB2726+JpsnZE5QLfuHcUVtqDlyZ8Zx8ODBcOTIERDOFTZSj4H4GsQE5uD3zDPPAO6wRUIEiAARMBYBCzYvVoWV4dINlJAQ0/KC5Y2q5Q++4CD7TjxY2djyDSyYdq4lh/6iUVlnxtxkezm7cOcmHLY2N8Eh94yYaDZ6UAkuvi35/LIx+nibbW7SjPkAaLJ0Ttt2oRL2ZQ9uaA1/8cUX2hZD+YgAESACGhOo1xax0Fu0RHFP6boQfJmBT/eedVG10erEoWrvjqotaEM0BpfAGUtcXV35MjvcuObatWuiatu3b2+wJXiiiuiCCBCBBknALCziBnnnqNN6JzBz5kzYuHGjXLm4/aUxHwrkGkABRIAImDUBUsRmfXupc5oSiI6Ohps3b4qyDR8+XOMNbUQF0AURIAJEQAUBsxiaVtE/iiICGhHAYWj8kBABIkAEjEWg3q4jNhYgqocIEAEiQASIgCEJkCI2JF0qmwgQASJABIhALQRIEdcCiKKJABEgAkSACBiSACliQ9KlsokAESACRIAI1EKgThUxbiIibCRSSzspmggQASJABIiAWRKoU0VslkSpU0SACBABIkAENCBAilgDWJSUCBABIkAEiIC+CZAi1jdRKo8IEAEiQASIgAYESBFrAIuSEgEiQASIABHQNwFSxPomSuURASJABIgAEdCAACliDWBRUiJABIgAESAC+iZAiljfRKk8IkAEiAARIAIaEKCXPmgAi5JqRwDfaITv+RXEjr3fuGdP836Hs9BXOhIBIkAEaiPQoC3ixLNnYPvUyRC97U/OqTQ/n1+f+GiZUm4Rn3/M02Tfua00jSEiFLXt8OIFvC2GqE8fZVZUVEDv3r2hQ4cOEBYWJvlMmjRJH8VTGUSACBABsyDQoC3i4uwsSDp/Flr06ctvZmV5Gb+2tFT+fJIZc5OnKSvIN+oXoKqiXK5tqWxnssxY8btzjdqoWioLDw+HM2fOwKeffgp9+vSRpLa3t5ec0wkRIAJEoKETaNCKuKHffEP3PykpiVfRsWNHGDhwoKGro/KJABEgAvWSgHLTr152hxptSgQcHBx4c9LT002pWdQWIkAEiIBJESBFbFK3w7wag3PDKBEREebVMeoNESACRECPBGhoWgeYleXV87YJpyOgJDsbvDt2Ar9hw8HO1U2u1KLMTLhz5CA08mkGLfr2h/zERLgfcRxSLl8C52bNoXmv3uDTrYdcPn0G7NixA86ePQtDhgyBYcOG6bNohWUFBQXxen7++WeYO3cudO7cWWE6CiQCRIAINGQCDVoRWzOnIeemPmDr3Ih/ByyYkxZeO3h61fqdqKqshP/mvwzx/+2rSbv5V3BZ6wujvt8AHgGBNeHsLPfeXTjy9kJoPXgoWDs4ws5nn4by4mJRmi4vzIXer78J2A45sahum72HpyTKsXFjKM3PlVyrOrl8+TKMHz+eJ1m+fDncu3cPmjVrpiqLXuI2bdoEnTp1gmnTpgG2wdq6QX/l9MKUCiECRMC8CFhUMcEuCe8FDgkJMVoP66JOXTu3+/npcO/EMWjeszc07doN2j0+Aezd3SEr/hac//YbuH/iODRiFu7Ug8fA0spKUh1avtumjAd3/wBw9GoMnZ97gVvQpfl5LM8xOLXiMygrKIBBH34KQZOfkuTT18mpU6egb99q73ALCwuIj4+H1q1b66t4leWsWrUKXn31VThx4gT069dPZVqKJAJEgAg0NAIKTK+GhkC7/qIS7jX/TXDzawP2bu7g07U7jNnwPz68nJf4AGJ3/6Ow4ILkJBjx9RpoNXAwOHh4gGvLVhDy9DMwcs06nv7S+h8ArW19Cy4fWr16NbdMcajYWEpYuh+Ojo7Sl3ROBIgAESACjIDKccLS0lLAJSjlbC7UgykNd2b5qSvoKZuTkwO2trbg4+Oj9pBkXl4e34UJ1/J6e3uDuj/eaNgnsnnXoqIicHJy4nWq21Zt0rUMG6QwW5dZL0LShXN8yLrduCfk0uA8sr27h1w4zht7BQVDetR1yGBrlb3aVzs6ySXUIeDll18G/GgqmtwT/L4kJCRAMRt2xx21rl27BuvXr4eJEydCly5dNK2a0hMBIkAEzJ6ASkWczRyQCgsLOQTcolBdRVzJLDpUxKgcUZnn5uZyRa4OzYyMDCgpKeFJM5mDk7qKGNuJ9aBgu/HBAbdSNJTg/LIicW/jz4PRKlYkyvJhWo+2/lwR57O8hlDEitqjTpgm9wSt7SVLlkiKbdSoEWzduhVGjx4tCaMTIkAEiAARqCGgUhFL74CkiVJDa9bGxoYrYaxKupyaqhWfYT1o1aJokg8tb0GE+oVrYx6tHavXzuY/3MxCk7rRiQslLylRk2wGT6vJPXnyySehW7duIosYt7ScPn06rFtXPfxu8AZTBUSACBCBekRApSJ2cXHhyrCsrExty1Tou5+fH1eoqCBRKasrOIzt5uYG6FCkiSLGOgIDA3mduJGEqm0q1W2LLulsHm5moU0ZNg8VsjZ5DZFHk3vSpk0bwA/KuHHj+DE0NBQWLVrEHbZwSRMJESACRIAI1BCo1VkLFSnOuaJi1ERQEWI+TZSwUD4qUk2UsJDPinkpOzs7Ax7rSgrTUnnVuDZYUxHyNjLCsiJN26btPcF68IEOJTW1mg2/oD9EgAgQASLACdSqiImTYgIFKSkKI5LOn+Ph7sybWpHkpyQrCoYKNi+eeu0qsCcecG3tpzCNPgKF+Xd9lKVOGTjP//HHH0Pbtm0ly6fUyUdpiAARIAINhQApYi3v9JWf10MlG7KXFnw14vm1q3lQyNTp0lGS84yb0XDvWLjkGk9wuRKuIy5MTwO/ocP5piKiBHq4yGeveESvZXR+GzRoEOArCo0hs2bN4t7suLGH9Dy+MeqmOogAESAC9YGAyjni+tCBumpjy4GDYPNjj0Cb4SP4hh7ZbEOP2D07+W5ZAaPHglcHxXOhvn36wbVff4GoP7dINvRIiDjJrOErgHPD3ee9YpAuHT16lO9shYXj+dWrVw2+nCguLg62b98OM2bMIGvYIHeVCiUCRMAcCJAi1vIutmAKtVFzXzi1/BMQlipZsfn0Ts8+D30Xva20VEvmVDZ85Wo48PorcG71V1DBlnehuLbygxHffKtUgSstUM2I3r17Q2O2JSYuQ0NHuuDgYDVzap8M1xCjhIWFaV8I5SQCRIAImDkBUsQa3uDRGzZJcjQO7gj+Ix+D3IT7UJydBV7tOgAq2trEhg0Pj/p+PZ8XTmMbeDRq3hycvJvUlk2neE9PT0hOTuZbW+J8rabOd9pUXsC27ERp0sSwfdOmbZSHCBABImAqBEgR6+FOuLTwBfxoKlZszXTTLl01zaZ1evRk9/f31zq/phm9vKpfnnHnzh2+w5aQH+eK27VrJ1zSkQgQASLQoAmQIm7Qt9+wnR86dChf2y27rWbLli3h7t27hq2cSicCRIAI1BMCpIjryY2qj83ENeS433RERATf8lToA65JJiECRIAIEIFqAqSIjfRNwK0vcU4Z37bUkATnounVhw3pjlNfiQAR0JQAKWJNiWmZ3jOwPUz6e5eWuSkbESACRIAImCsB2tDDXO8s9YsIEAEiQATqBQFSxPXiNlEjiQARIAJEwFwJkCI21ztL/SICRIAIEIF6QaDBKeLIyEjADwkRIAJEgAgQAVMg0OAUsSlApzYQASJABIgAERAIkCIWSNCRCBABIkAEiEAdECBFXAfQqUoiQASIABEgAgIBUsQCCToSASJABIgAEagDAqSI6wA6VUkEiAARIAJEQCBAilggQUciQASIABEgAnVAgBRxHUCnKokAESACRIAICARor2mBBB2JQAMgcP78eSgqKpLrqb29PfTo0UMunAKIQEMgkJeXB5cvX1bY1VatWgG+utWQQorYkHQVlJ149gyc+eZL6PDEJGg/YRKU5ufDnhefg8YdgqH/0vcU5JAPqiwvhztHDkHMzu1QlJkpSeDW2g8Gf/y55JpODEtAH/fSsC2UL33q1KkQExMjF+Hn5wfx8fFy4RiwcXcU7Dt1F96d1QuC/DzgzPVk+Or3SzBpaABMGOKvMI+iwMqqKrBkb+PSVLTNp0k9+YVlMOvjg7x/2E+UN1edgPspebDl45GaFGWUtLJt+3lXFOw/XXOPDNkIdhu5aHErAfNqk0/T/mjK5/r16xAWFqawmvfffx/ee0+932aFBagRSIpYDUj6TFKcnQVJ589Ciz59ebGV5WX82tJS/VmCk599BNc3/wpOTZqKmmbXqJHouqFd4EPJ/lfn8tdN9lu81ODd18e9NHgjFVQQEBAAP/74oygGLWJlcjc5D85FpUBeYSlPkpVbwq/7hvooyyIJvxSTBpv334SrsekQ/yAHvD0coVOAF7z+dFdo28JVkk76JCuvBDb8cx2OXLgPCan5UFpWCe1buUNwW0/oGdQExoa1kU4OfxyIgX+OxsPg7i3ghcdDRHHSFymZhTB/5TFo5GQL694aIh0F5ZWVvE+WljUPCpG3MiDmXpYonalcXI/PgJt3a9p2T+YeKWpnSVkFzFx2QFGUJOx/H4wAKykGQsSthBz47u+rcPlmGjxIKwB7WysIauMJHdk9GdrDF3qw+6JMkOPv7DtwMToV7iTlQmBLd+jSrjE8OzoI/Jq5yGXDB71vNldbpz2Cm8D8p7rIpdmw8zocOnsf3p/di5cnm0BTPsHBwRAeHi4q5t69ezB9+nRRmKEuSBEbiqyhymWPlPH/7QPXVq3hqb0HDVVLvSy3oqQY0Eq1tLapl+03VqOdnZ1h4MCBBq8OLTRUfKgA3JztoGt7b65Y0bo+yH5Ef1wyFMK6NBe1A3/wJyzaI1H6Pl5O0LyxM+AP69W4dK7Uj116AJ++1A9srKsfXn2bNOJWejJTtKoUMebDH/nH+rUW1dlQLiorq3j/VfW3ipu7NQ8jmHbH0Vvw5jcnAEcmUNq3dmfK2hLOMZanryXBT0wpLn2+J0wf1YHHS/+JuJoEL356CAqLy/l3oKO/F3+4wfu59+Qd+Pnd4RDClLm0ZOYUS9p5mT3IPTcmGFydbaWTwJ3EXJ4GRzL0IY2YESP7f+LmzZv6KFqtMkgRq4XJdBKhFVaQkgy2zv6m0yhqCRGQIYA/tC8vDwe0ML+aHyayYv86FAdvfXsSXllxFA6sGQ+N3R14bvydn/v5Ya6EcdgblapgNVdUVMHVW+mwiA0Xbw+/xa3a9x4OIfdkVpOzow3cZdYWWoYtmyoeGTp28QGvZ3B3X5nWNoxLBztruLX9WYWd9X9iIx82lo28x4bml6yNgCr27x2mbB/r5ye5X6hcwy8kwGJ2L5f9eAaasNGOEb1bSYp4kJYPz390ECoqKmHFqwPg8YFt+bA0KvSfdkbBpxvPwbR398OJHyfx+yfJ+PAEre7i0grYdjgWnhsbLBttVtfVj5Rm1SXqTEMlUF5S0lC7bnL9/vXfaG5BLZ7RXaSEsaETh/rDC+NDIL+oFP47c1fS9vupeYAWsTdTzB/P7StRwpjAysoCugQ2hq2fjYIXn+gIC5/pJslnbWUJAzpXW9bhFxMk4dInFcwaPHElkc9RD+oqtsKl09G5mMCZyGSuDEf2ac2HkoWHJkzlaG8No9joAs6h432WVsIYjw9cpWw0ZN7EUBg/qFoJYzj6CcwaFwxThgfyh65dxxX7JuDDGI56bP4vBrOJpNo2FwXV6wuyiE389qXfiIK0qJq3RZUx5y6UktxcuLFtq6j19m7u4Dd0uCgML6oqK+D+ieOQGnkNcu/fBbc2baFJx07QvHdfubQY8ODsaZbunijOxsER/EeN5mGF6WmQdj0SitLTwcrWFgLGjOPh908eh/zkJAh4bAzcDT8MD06fAp/uPaHNI4/y+DuHD8D9kyfYsHor6DTjebC0kR9CxnneuD07ISv+FpQXFYJLy1bg2y8MmnTqLGoPXuQnJsL9Uyd4eBWb47tzuHqoHkcMZNlgomasLTikLytYT+yeXZAZFwvFrH4X5iHp2a4DNO3cBRwbe8sm19t1QUEBbN68GR48eAATJ04EnKcyB8ktKIVdx2+DA/uhxh9TRfLi+I4wnllIAS3dJNFx97P5eSsfF654JRFSJzjELa2EhaghbH7434g7gFavoiHSSzdTAdvVpZ03uLsonw8XyqNjNQHhnrRRMp+PqdCBDz/SglbvX8ySRcesScMUfwdQEeP8/taDsfDUiHbS2fm5p5sDPMIs7D0nbrMh8GTo3VHsEyOXoR4HkCI28s2zZk4xzk192NBy9fCZBZtrwWsHTy+FLbl96D84t/prubjCtFQ48vZCUbhXULCcIkaldGDBK5B47qwoLV6g0h7y6Rdg51rzY4jhUX/8DrG7d+KpRNAxDBXxxR++Y+35CipKS3mcg4eHRBFf3fQzV8DZt2/DlZ9+gMqKCohkTmX93noHsm/fght//sHDMGN+cjIMWPo+L0P4E7V1Mxz/8D1J2fx/MfsPffabldDu8Qkw9LMVIpdLfECRZYBlZd2KUxg+9LMv5RTx/RPH4L/5L/MHG8yLDxZC3/Be9XljMXScNkNUL6ZD0fReVueq+YsOU/Pnz+cBW7ZsgRs3btREmtCZC3NuaurpBLY2VrxVOGSI184O8g9SmCAqPhOKSspBGDJW1BWc85Od9xMU5BXm2JWdX8LnFBXlVRQ2sGsLbmmdZhYcWmFCW4W0wrA0KmxFglYa9slTSkmj9Sc4qCnKU5dhXkxJ5eRX/x/EdrgwntL3SF9tE+7JUfaAo8hpSlk9yemFkMicurBNOMevSELZfDGOdFxjUw7lbPgaRzZk5elH2nFF/Pv+aI0UsbH4yLZX22tSxNqS0zJfy7BBMP3oKUluOxdX0bUk4uFJe7bMqXnPPpLgkrxc+HfeC9CoWXMY+vlKSTie2Dg5iq4ry8pg+7QpkPcgAbrMmgNBk58EZ59mkJtwH678vB5Q8e2ePRMm/LFdlK/7vFcgeMpUHoZe3TtnTuPnKVevwLk1X3NLGpdKWdnaydWJCVH5zzx9EdKYBb6HlY95Wg8aUh3GLGlcrhW3d5dIET84cwrC33mLP5T0Wfg2NOvREywsrZiVewAu/vg93NyxjVmp7aHzcy/wtuAfn+494PH//SG5zrl3B44sWaTUaxpHAqSlKCMD9r08B8qKi2DAO8uY5T0AsF/l6PR1/hxc+G4NnPjkA3DzawO+/cOks/JzTe+lbAHS63mLi4tlo03mGn+ApX+EB3VrASfXT1LavtSsQh6HP8KaCFpVOM+I3s0rfr3I5yTtHir/2srxdLWHUOaNjc49Z5mHd/9OzURZwpkiQRmiZH4YHzZk+7Tp/UdEZZjShWzbZO+Rvto6kA3jr/j1AlxjjnLbDsepvVwtLbuIN8HLTfnoA1rLXq4O/H6ns/SKvi+9Qppyz+r9p+8BpkEFq44Yi486bVEnDSlidSjVYRpUuPgRpDiret2wtYMDNOvZSwhWeERrNPfeXeg25yXoNf9NSRp3ppAGffgpoJKN/vsvuLV/L7QdMaomvq0/uLMPimAd4vHium9h8vY9kjhJBpmT0BkzAR8wWvTtD17BIZBy+RJ0fOZhWJ9+4M2GxXEJVzlTPmhVovh07Q5dZ89la6snc2UoFBk0+Sl+ikr61r+7RYoYh+KlGdi6VC+FsHN1FYULZckesQ1lbFi67aOjqq3ehwms7R2gJVO8vn37QfLFC3x4XTavPq5nz54NqIBxaNpYyyT00e7aykBFiuLeyK62pKJ4VLq4hve1lUe5d/Tek7ehb2gzQMsJPXV7Bjfly2ZEmaQu0NpFRYzWm7Qixh/wqNsZ0KyxEy9HKgud1kKgQ2sPeJ45Sq1ny8kWrj4Bq/64DP3YQ04H9tCES5fw4UfR2nBkjuLKphJUCS4lw+9LenaxQkWMyvpJZhWjY9efh2Jh7oRQVcXV2ziViriU/fgmJSVBeXk5eLAhSHd3d7U7ms7mD3NycsCWDfX5+PiAtbXKqiTl4g4naWlpzNvSEry9vcHRUWzlSRLKnKDbfSKbM0Qrw8nJidcpk0TppbZt1YWP0sboMQItXpROzz6vsNROz87iijjqj80iRawoMT4AhD7zbK1KGPO6+raUFIHKEsWlRY2nqj1TlCilzLoXFDHOF/desIiHy/7xHzUGjr2/FDLZkLNeBf+XM7F1Ujx0hhY5znEbSjw9PWHZsmVaFa/td1aryjTMlMGWn6BYPOSrSfZH+7Tizj+rt14BXPqC8774QUGvX1S2S5/vxR26eKDUH/SGXsk2GjnKPHmXzKzZJez45UTuETyYWfKmKNr+5hmrL28924M9wHjA//be4EvIcF5XELRQcVMXtMiF5WQYh2vNUar/h/FThX+E+Mxc5SNCEwa3hS9/uwhbmNMWOuopUvwKC69HgSq1Y3Z2NhQWVj/donJUVxFXMscZ/KFA5YjKKpc5FqEiV0cy2HBhyUPv10zmOKOuIsZ2Yj0o2G6sz85O9dMYptWlrdrywXoNLei8lHP3Dpv/dQV7d8XsueMS+7HMvh1fa3Nw7tSnh2oLXFEhllbV84rScZYPH8qq1yxKx9ScY/tRUeMRxYrdSxxq16c079WbDa07wY2//2Tf1UpoxYbPPdoGcAcx7K+pii7fWWP0Ca0cXaQz847esHQYFBSVAc4Xx97LhgvM2eo4Wwe8h609PXM9Bf767DHwbSJ+gMKhbRzevMU2DsGNQFp4V8fjEhsUZcPSurRVH3m1/c3TR93qloFez/hB6zUyjm0mwjY6OcvWEZ9iTlTr/r7GzlPgj09GSjYDweVkmkgjR+XfGZynxge0ncfiuTMeTo2Ym6hUxNK77aij1AQ4aM3aMAsHlTCKdDlCGmVHrEeYO9MkH1reggj1C9eqjkJabdoq3T5N+Khqj77icJ4Wh5NVef2iNWrFlCJ6OqOSU+TFLLQHlbkipSrE6+OYHnUdLrO56wenI6AoI13i2CWUrW/liE5qYzf+DocXL+AjAzhMj2LBHh5wrhgVMzpqSU8NCG2py6Mu31ljtLuJe/UoFi5P0kWcHGzY0LQP/8wY3YE7J+G6VPSA/nrzJfjytQFyxePuWriTF27e8TTzxEXv3RPMIkZrundHH7n0phCg7W9eXbQd5/Cb9HSEoT19+bIkXG42cfEefk9wDnnyQw9pYW64gK01ViW4FhnFU8VcMsY/xYanURHjDl0NThG7sDk3VDZl7EdaXcsUoaH4sb1rUaGigkSlrK7gMLabmxsf1pJWdLXlxzoCAwN5nQ5s/hR/rNQVbduqCx9126ZtOrT0UNDSUyVolaKCE6xUVWkNGYfzyDuemYINhoDRY8ErKITNM7swh63q+3hk6WIep+82NAntxHcow4eA1MirkBUXC9l3bkPqtStwecMPcHP7XzBu0xbwCAjUd9U6laftd1anStXM7O1R7VCDnrP6FPSynvFYB/6jfyoySWHROHSNihiHp1ERCx7YaA2jt7cpira/eabQF9xwha8lZsPGuMuWoIgbP3SqEuaKlbU1I6d6LllIrywdeuBjXTi6kZReoCxZvQ1XaRFjr1CRSlub6vYUFSHO1WojqEi1EStmyeD2fZqKLm3Vlo+mbdQ0PTpL4fxsEZtSwHXEON8pK+g1jC+QQOctvlRINoERr89/t5pb8N3mvgy9XntDruajbI5Y30PT0pXg0i/8CILMcNnUhe+/hcjfNkHY+x8JUSZx1OU7a+gOBPjigzTwvZBxRyxcoiIrGI7/FC1ZkU0rfd3n4VrSXKmlO+J4H65wI5hSKCuv5AoZ45UtW5LOW5fn2v7m6aPNuNyLPf/ye6bNvH5fNtKA87c5bJ22ILg1KY5o4FA2bkOpaKgapw9w5yxc3oQjFrUJWsUf/XQWtkjNUdeWp77Eq2821pceUTslBBqHhEAFG81IV7I+NeXqZZ62MfNsrmvBtb8oHSYyq1hGUAFXPpzmkInS6RLnn3HLUEWCDy6Cx3bGzWhFSfQWJvhE6K3AOi4If4TDurQAXMJy8Nw9ha35k232EPbiX3DgTE18SkYh95jGrRGVSdz9HB6Fyl6R4A96H6YYcMjz/I0U7kGN6XDI2tCC68APHTrEP/jCAFOSv4/EwZS3/4X/2DIgWbmblMeDcM9u2Rc+IEPcjhT3C1cmsQ83YpG+J7iOe8wAP76mezfzflckuFUpirpv8BrPnLbQs/7Pg7F820xFZdZ1GP5fFr4D4eHhajfHUu2UlLDeEejxOTQVdwAAJL1JREFU8mu8zSc++YDvUiXdgZKcbDi14jM+JN1tzv9JR9XJueBVfWvfXrn6r2/5jT9QyEXIBDh5N5EMZctEyV3iZiP7/m8ObB41jO06dkwuHgOEcI927RTG6xp4+vRp8PX15VMxCxcu1LU4k8o/bWQ1sw/Wn+XbVko3DndrWr7pPKQyawmXFAmCS2NwR66J7KUPuFe1rOAmHx//fJYHh6nYplJQutuY8sE3/whOXLLl6fv61VdfhWHDhvEPOquakqBiRKX69ZZL/CFFaBtuvLLmzyv8snuHJkIwP+KIwtLvTvGdr3BP6CwFns3Rd7Lgp11RPD2uOZaWycOqp3PwlZmyb7HCt3n9uCOSe0Ar231Nuiw8x13VcBgcrWx8cYgpyoULFyTfgZUrxfs8qGpv7eMBqnJTnMEJoKWIu1kJUvHQo7wgNQUOLVogBPMjrsMV1v9iQNMu3SDkqWl8d6vNo4bzHbAa+TSHHLbNJW6QgUPTPV99HVxbt+b5hT+4/hjnbFGqmMJCKWFL0WTra8yGckNnPMfjdf2D7Uw4dZJtorGazdPGcA/tMrYF5L3jRwGXO3Vg64uj2Xztvpdf5OuQu744T65K3OXLp1t3yIyNkWsrJsYNTXy6VS9rQcezgNHjuGPYrlkzoDnzCG/cMRQ8/AP5hicpVy6y9kSwut34dpxylekhYNu2bZCQkMBLWrduHSxfvlwPpZpGEYO7+cLMMUGA78l9YtFuvh4YLaYHbDgSlyOhhbVgalcIZq/SE+SDOdUb1+DQ47g3dkGb5q6AyqE5U9Y4jIk/vrhNJb6t5+VJnYRsckesG+A0bD9SbXEZ6yUPly5V/5/p1asXdO3aVa5ddRmAXse92DpsfPvU8Je3s1cXtoBCpoT3M6Y4eoCeybJbh/J9nj96lL+4AV9h2Of5rRDC7le3Dt5gz0Ye8IEKRzRwH+/pbO4eRyKkpfp1l134krKJi/dypzv8DkTdzoRTbGkaKvoP5/YRPYxJ51d0jlthoiWN3wNTFOE7gG2bN0/+N0pZm0kRKyNjIuG4lSUqTVkpZeutZcPbT5gkUsSYB+c2cQON0yuXsw051kqKQU/gkWt/lNsSExPgRheyW1yWs92nZOsryc3RmyJuM2IkDFz2CZz56gumcLfxD3p1437YuPlIQWoqFDMrHvewxnltZRL23kdw9X8b+X7VpfniIc4WrCxBEWN+/5GPgXdIRzj95XLAYXrcY1sQdBJrPXgoe1BZwHfWEsL1eRw+fDisWbOGb+oxZswYfRZd52XhHPHS53ryJUQbd0exIdG7/IMNw12w3p/WW+LYIzQWh0U/ntcX2rHNO37ZfYNb0uiVKwjOM77G1qviBhPSa1aFeOEobNyB1hqKMeaH8YFKsIJfeukloSkmc8S5+O/ZO5g//+U84LTAb/tuStqGXsj4ZiXpFzoIkaigf/vwUb6OdwdTgPh+afwIgkvI8J7IviNaiH+JPTB5st2z0PpFpY0f/G74t3CDV5/sDCP7thaSqnXsxl6lie8zlrWw1cpshESCIvb394cRI0aoXaMF85rlL7KIjIzkmULYvKKxpKHUaSyetdWDVjTutOXWxh/QejRFwSVX2MYS9qCBc9f6XrKkqs84XJ8RE8O9tfFBxZa9o9TQguvfcR0pDlEbQ9qxYXZ0orx48aIxqpPUgcOasWx+l79f2NtJrU0ZcK/iFLZdZjmznFqy+UtvtnQGf8RNUXbt2gVjxzJvfy8vPsphassZpZnh/tn4Pl+0ZFEhKnKkkk4vnON+0DgykZpZxCxiK7aOu5FGu6fhdyCe1RvIXvShat2wUF9dH/F9xO3bt4f3338f3nvvPbWa061bN/5/a8WKFbBggXjEUlUBZBGromNmcTiHih9TFlS87v4BddJEXFeMe1wbU3BZoKZLA3VtHy4rvHbtmqgY9P5HJW0oQcuqZ7DyfYcV1YuWrfQcsqI0phImWELPPfecWhsJ1WW7UQl2ZNuGaipoVbdmb8bCjzaC34Fu7GOKgv8n4uKqHUaF9t2+rdjJTIiXPeIyXzQu0QN+5syZstEqr0kRq8RDkUTA/AhER0dDaKh4z15clxwfX/sOa+ZHQz89QkWMS8rmzJmjnwKpFKMSuHLlCvTpU+2joG3FUVFRfBOrZ599Vu2dJIW6SBELJOhIBBoAgbVr10K+zNw5dtvYVrm5oZ4xYwZ/cQc+0JDUPwI4GrRjxw6FDcfhaXUEN6LasGEDDBkyRJ3kojQ0RyzCQRdEgAgQASJABIxLgNYRG5c31UYEiAARIAJEQESAFLEIB10QASJABIgAETAuAVLExuVNtREBIkAEiAAREBEgRSzCQRdEgAgQASJABIxLgBSxcXlTbUSACBABIkAERARIEYtw0AURIAJEgAgQAeMSIEVsXN5UGxEgAkSACBABEQFSxCIcdEEEiAARIAJEwLgESBEblzfVRgSIABEgAkRARIAUsQgHXRABIkAEiAARMC4BUsTG5U21EQEiQASIABEQESBFLMJBF0SACBABIkAEjEuA3r5kXN5UGxGoUwLnz58HfPeqrNjb20OPHj1kg+laBYGEhARQ9s5afM2kq6uritwURQRqCJAirmFhlLPEs2fgzDdfQocnJkH7CZOglL2Sbs+Lz0HjDsHQf+l7RmkDVaIfAvXxXk6dOhViYmLkAKh6H/HG3VGw79RdeHdWLwjy84Az15Phq98vwaShATBhiL9cWfUxIL+wDGZ9fJD3D/uJ8uaqE3A/JQ+2fDxSYZd+/fVXeOuttxTGhYeHw8CBAxXGUSARkCVAiliWiIGvi7OzIOn8WWjRpy+vqbK8jF/jS8VJdCNQlJkJ+1+dC42DO0K/xUt1K0yN3PX1XgYEBMCPP/4o6iFaxMrkbnIenItKgbzCUp4kK7eEX/cN9VGYJSe/FOZ+dlhhnLuLHbRp7gpjBvhBYEt3uTSf/XIersami8KbeDpCSFtP6N6hCXQK8BLFCRenryXDqj8uC5cqjx+82Bv8fd1EacorK3mfLC0tJOGRtzIg5l6W5Fr2BB9qZF8mv3PnTli5cqVsUromAioJkCJWiYci6xOBipJiQCvV0tqmPjXb6G11dnY2qLVWVl7BrWZVHftheyS89Wx3eHZ0kCjZzbtZCvPuPBbP0708uRO89mQXsKjRlzw8I6dIYT5R4Q8v8orKFAVrHObr6wv4kZbo6GjpSzonAmoRIEWsFiZKRASIgKYE3Jzt4ML/nhJlQwsTh7lX/3EFPtl4Dvp3aiZnnWKG9UuHweBuLXjehNR8bq1+tOEsrNl6BYqKy+HtmYrns0f0bgVrFw0W1UkXRMDUCdB4qKnfIWqf2gTKS0rUTksJ64YADke/MqUz9OvkAxUVVfDX4bhaG9LC2xnGD2oLfy9/DOxsrOC3fdGQlUf3ulZwlKDeECCL2MRvVfbteEi6eF6ulf6PPgY2Tk5QXlQIKVevQH5SIlRWVECb4Y+CnYuLXPoHZ06xdJchO/4WuLbyA++OoeDbtz/IjfGxnDjXeufIQWjk0wxasDT5iYlwP+I4pFy+BM7NmkPzXr3Bp5tii0SouCQ3F+6fOAZp1yOhJCcbPDsEQbMePcEzsL2QRHR8cPY05N6/JwqzcXAE/1GjeVhhehovqyg9HaxsbSFgzLjqdp06weOr2BzfncMH+XlBSjLc2LZVVBZeNOvek/W9tVw4Mozdswsy42KhmPXdpWVL8GzXAZp27gKOjb3l0usroKCgADZv3gwPHjyAiRMnQnBwsL6KNvlyRvZtDccvJ0L8gxy129rKxwWeYM5hm/ffhD8OxMCcJzqqnZcSEgFTJkCK2Mh3x5o5xTg39QFb50a8ZgvmpIXXDp6KnVASmYIKf/dtuVaiUsm5dAEOLZwPRRkZkvimnbqIFHFJbg4ceXshxB/Yz9NY2ztAeXH18pWWYYNg6Gdfsro9JfnxJPfeXZ6n9eChYM2U4c5nn2Z5ikVpurwwF3q//iZg+2UlmbXrv9f/jytK6ThM223Oy9Dj/15l+aykoyDqj98hdvdOUZhTk6ZcEV/84Ts4t/orqCitdhZy8PDgijgtKpK3U5SJXWTdilMYjn2VVcT4sPDf/JcBHxxQUMkL9eC96vPGYug4bYbCBxZN7yWvQOoPOkzNnz+fh2zZsgVu3LghFWs6py5OttDU0wlsmTWKYm9rxa+dHbSfi7exrv7elJVXatTR4T1bckUccTVJr4rYkk06Yx89XWqc1hq7O0gc1DRqJCUmAhoSIEWsITBdk6Pym370lKQYOxdX0bUk4uFJ6yHD4HG/tpLgo8uWQhaz3Erz8+DIW2+Ca8tW0OaRR8HWqVqx27t7SNJCVRXsnjUDUq5chuAnn4ZuL77MLNpmUMisyks/rIUrv/wEu2ZNh0nbdilUqDnMQj3z9QoYseo7ZkF34nWi4jq14jO49ON3rO6WEDRZPAeIFvyOaVNYe5xh0IefAipz20aNIP1GFJz+8nM4v3YVVJSVMQW3qKad7Kz7vFcgeMpUHoae5DtnTuPnaO2fW/M1NO/dF9xa+zFFacdGAhx5nE/3HvD4//7g5/gn594dOLJkkVKvabc2NRwxPT7A7Ht5DpSxB5MB7ywD334DeB3l6PR1/hxc+G4NnPjkA3DzawO+/cMwi0g0vZeizOxCej1vscyDjmzaurye/1QXwI8gg9jc7cn1k4RLrY6HzyfwfH7N5EdvVBXo41V971MyC1Ul0zgOHzZk+7Tp/Uc0LocyEAFtCJAi1oaaEfPg0Kj08Kgt83hFOfPVChj4wcdM0Q1T2pqY3f9wJRzy1DQIe/8jSTpHLy/o9/a7UJyTAzd3bIMbf/0hp1AxcUFyEoz/9Q8QlDtaoq5PP8OVFSrKS+t/gA4Tp4iUOCrbyvJyGL5ylUh5Ne3SDcb+/BtsGf0IXN30E3Sc+gw4s6FvQdzb+gN+UASLFI8X130Lk7fvkcQJ6fFo7+YOzXpWr/nEa9uHQ/J2bCMF6XCMUyS4jKyMDUu3fXRUtdX7MBGOGrRkite3bz9IvngBfNjogyFk9uzZgAoYh6anT59uiCpMrkxcr3vo3H04eLZ6GmJUv9YatdHT1YGnT8lQrIiT0gtgx9FbSsts38oD2reWXzalNANFEAEjEFCpiEvZD2FSUhKUsx9WD/Yj7O6u/hc4nVldOeyH3pYN9fn4+IC1tcqqJF3Ny8uDtLQ0wHW13t5MCTlWPwFLEig5qWLWXyKby0Qrw4nNnWKd6oq2bdWFj7ptU5YOLVRVShjzRf72P569+0uvKCym47TpXBHjkLCsZYsZsA5BCUsXgPPGXkHBkB51HTJiboJX+w48ujgrkw+BewQEipSwkNfSxgZCpk6HEx8vg5v/bGfD1C8JUQqPWF7oM88qVMIKM2ga+HANDFrvigSHzw2lhLE+TzYlsGzZMkVV1xqm7Xe21oL1mCC3oBSGzPtbVGJiWj4Iw9G4dAnXBmsiwjJfXNNcWlYhGS4Xyrgalw4Lvj4uXModX32yMyliOSoUUNcEVGrH7OxsKCysfvJE5aiuIq5kjjP4Q4HKEZVVLpt/Q0WujmSw4cKSh96vmcxxRl1FjO3EelCw3VifnZ1drVXq0lZt+dTaKDUS+PYfUGuqrFuxfL64lDkFlRbclksvzO/inKoiwTlQZeLBrFdUxPmJDySKOPtOdR04hKxMcJgXJedOvLIkknCcr/XpUWPxSiL0dIJOZ+jwduPvP9l3tRJaDRoCHm0DmLNWKz5XrKdq9F6MLt9ZvTemlgKLS8pFKdq2cIU2zVy505WwPEmUQM0LnKcW5qylswS38YSpj7aTDhKd48YgJETA1AioVMTSu+2oo9SEzqE1a8OsH1TCKNLlCGmUHbEeYe5Mk3xoeQsi1C9cqzoKabVpq3T7NOGjqj3qxjl6NVaZFD2fBQek30eoXleJHskV7OHHSo0HF6FSdOJCyWPe2oLkMCcvFJwTViaCk1rO3eq0ytJhOFrjllZWqpLoFGfn6gZjN/4OhxcvgOi//+IfLNCC1YkPE6iY0VGrEfMUNyXR5TtrzH7gvGvEhsl6rTKHWdko3h6KR8pwqdOU4YF6rZMKIwKGJqBSEbuwOTdUNmXMuUZdy1RoMO5diwoVFSQqZXUFh5Td3NzYqhoLjRQ41hEYGMjrdHBw4EPb6tapbVt14aNu27RNZ+PArFnGEOd10Vu4NrG0UflVUJodlxgJYuPoxE+rKquEILkjWp4oaImagjQJ7QRP7T3IrfvUyKvcEQ4t+9RrV+Dyhh/g5va/YNymLYDD7aYk2n5nTakP2rQF54BRmrJtL0mIgLkQqPXXFxWptLWpbsfxqR3narURVKTaiBWzZHD7Pk1Fl7Zqy0fTNmqaHi1W56ZNuWcwDmPLLhfStDzZ9IVpqTyoEfPCFsStdWt+iut4lUlBSgqPclUxfK0sryHDcc4bP4JUVVbA2W9WwoXvv2Vz7ZtEzm5Cmro86vKdrct261r3xejq712QHw0x68qS8psOAflFoKbTNmqJjgSahHbmHshJ7NV3igSHo++GH1YUxcPylShUzJd67Sq3uKUVqmvL1mx9tDNz4IrmQ92KCk5lm4qgNA4KURRt1DDcBARf3KBI8MFFcGDLuGnY/YMFnwhF7aCwGgLFpRWwaW8034Nm2sj2NRF0RgTqOQFSxPX8Bqpqfo//m8/nO4998A5bO5wmSopK6MAbr/JXMMbu+kcUJ1ygArp3LFy45EfMh+uIsTy/ocP5ZiRCApxj7jp7HrfCT3/1BeA6ZmnBtcTXmHWJO3sFjn1cOkov507eTURLqVQViruQ7fu/ObB51DC+A5iitLhmGsWjnXLnH0X51A07ffo0f2kATsUsXLhQ3WwNMl1iWgFMfWcfpGcXwaCuLUDT9ccNEhp1ut4QqHVout70xEwbiltToiORIIKTU8TyTyS7c2Gctb0dDFz2iZCMH3FeswdbunR21Vdc4QSOeRxwU4vM2Jtw/+QJvoMWrqH1f2yMKJ9w4dunH1z79ReI+nOLZEOPhIiTfP4U54ZxEw5ZCZ3xHNza/y9c+Xk92xLzIrQaOESyoQeuWcY3Iw14dxk7ir96kZt/5VtoYnlVTEmilLDlb4cWLeDnwp/GbPgY61AkOB/u060761+MXD5MHzT5SRZfvTUnOoEFjB4HD05HsE1NZkBz5p3dmG376eEfCLkJ99n664uQcCoC7JlDV6cZzyuqTuewbdu2Ab5cHmXdunWwfPlyncs0lwKWb7oAP7I3NKHgSx8esGVPKH06+sCXr4Xxc/pDBMyFgPjX0Fx6ZUb9yGGOQ6jAZOX2wf9EQTgkLKuIMUH3l17lO00d/3gZV6pCJlyahLtt9V/yvlIrEtf9Dl+5Gg68/opoi0m0aEd88y14sf2jZQXLnfDH33Dqi0+5Ak++dJEnwaVSuL/1kE++AHf/ANls/J3Msltc4lacsn3HLTuVKWIsNOy9j+Dq/zZC3J6dbCew6h9vobIWbHcuQRFjmP/Ix8A7pCPb8Ws534cb97sWBNuLu4L1fHUB31lLCNfncfjw4bBmzRq+qceYMYofhvRZX30qS/o9wPg+4qE9fKFHUBN4bkwwWFlZ1KeuUFuJQK0ELNhaXz5+GBlZ/fQZEmK8ubuGUmetd8FICVCJZbINOGycnPmeyzZKNkvBlztsmzKeK6JR32/grcN54TS2brhR8+aAQ8BqCftqZd+9AyVsXbcnG94VljyplbcOEuHLKTJiYvjaa1yypGoZlr6ah+vfce287Htt9VW+bDnt2H1AJ8qLF6sfkGTj6Vo3AjiyMWfOHAgPDzfoO591ayXlNjUCZBGb2h0xYHtwX2ttd4rC+d+mXbpq1jq2fErV5h6aFWb41LiuGN8QZUzBZYGaLg3UtX24rPDatWuiYtD7H5U0ifoEcJOj5GTxCgHcrpSECGhKgBSxpsQoPRGo5wSio6MhNDRU1AtclxwfX/tuZ6JMDfxiw4YN8NZbbzVwCtR9fRAgRawPilQGEagnBNauXQv5MnPn2HRjW+X1BJfKZk6YMAE6dKjeZ102oTGn+GTrpuv6R4AUcf27ZwZvsbWjA3fwwlcskpgXgaFDh5pXh+qwNwEBAYAfEiKgKwFSxLoSNMP8noHtYdLfu8ywZ9QlIkAEiIDpEaANPUzvnlCLiAARIAJEoAERIEXcgG42dZUIEAEiQARMjwApYtO7J9QiIkAEiAARaEAEGtwcMXkzNqBvN3WVCBABIlAPCJBFXA9uEjWRCBABIkAEzJcAKWLzvbfUMyJABIgAEagHBEgR14ObRE0kAkSACBAB8yVAith87y31jAgQASJABOoBAVLE9eAmUROJABEgAkTAfAmQIjbfe0s9IwJEgAgQgXpAgBRxPbhJ1EQiQASIABEwXwINbh2xcCtPnDgBVezF9YI0Zy+8b9OmjXBJRyJABIgAESACRiHQYBXxkCFDoKysTAR59OjRsGsXvexABIUuiAARIAJEwKAEGqwiPnjwoMgi3r17N6xYsQKioqIgKCjIoNCpcCJABIgAESACAoEGq4jDwsIEBvwYExPDj8nJyaSIRWTogggQASJABAxJgJy1HtJNT0/nZw4ODobkTWUTASJABIgAERARIEX8EMepU6fAysoKAgICRIDogggQASJABIiAIQmQImZ0Dxw4wJ20pk6dCl5eXobkTWUTASJABIgAERARaPCKOC8vD2bOnAlt27aF1atXi+DQBREgAkSACBABQxNosM5aAtj9+/fDgwcPYOvWreDi4iIE05EIEAEiQASIgFEINHiLWHDOsrCwMApwqoQIEAEiQASIgDQBlRZxaWkpJCUlQXl5OXh4eIC7u7t0XpXn6IWck5MDtra24OPjA9bWKquSlIVDxWlpaWBpaQne3t7g6OgoiVN1grtkJSYmQlFRETg5OfE6VaUX4kaNGgUDBgyA2bNnw+nTpyE4OBjatWsHNjY24OfnR3PGAig6EgEiQASIgEEIqNSO2dnZUFhYyCtG5aiuIq6srARUxKgcUZnn5uZyRa5ODzIyMqCkpIQnzczMVFsRYzuxHhRsNz442NnZ8WtVf9ASPnbsGGzatAleeOEF3l4h/U8//cTnj4VrOhIBIkAEiAAR0DcBlYrY3t5eUp86Sk1IjNYsWpSohFGkyxHSKDtiPWjVomiSDy1vQYT6hevajo8//jjgTltPP/00hISEQGBgILfk8ZyECBABIkAEiIAhCahUxOi8hMoQ92RWd4hYaCwO66JCRQWJSlldwWFsNzc3QEtVE0WMdaACxTpx3heVsTpy6NAh+Oeff7hF/Mwzz6iThdIQASJABIgAEdAbAZWKGGtBRSptbapbMypCnKvVRgQHKk3z4oYczs7OGmVLTU3l6cljWiNslJgIEAEiQAT0REA9s1FPlZliMY8++ih3yFq6dKlkSNwU20ltIgJEgAgQAfMk0OAVMTqg/fDDDxAZGQlvvPGGed5l6hURIAJEgAiYLIEGr4jxzowfPx6GDx8O69ev5x7XJnu3qGFEgAgQASJgdgRIET+8pfhaRPTyjo6ONrubTB0iAkSACBAB0yVAivjhvWnSpAk/E9ZNm+4to5YRASJABIiAORGo1WvanDor3RecE8YNRwTB/aZR6O1LAhE6EgEiQASIgDEINFhF3LVrV74+Whpy3759ITQ0VDqIzokAESACRIAIGJRAg1XEf/31l8gibt68OXTv3t2gsKlwIkAEiAARIAKyBBqsIh47dqwsC7omAkSACBABImB0AuSsZXTkVCERIAJEgAgQgRoCpIhrWNAZESACRIAIEAGjEyBFbHTkVCERIAJEgAgQgRoCpIhrWNAZESACRIAIEAGjE6hTZy1636/R7zdVSASIABEgAiZGgCxiE7sh1BwiQASIABFoWARIETes+029JQJEgAgQARMjQIrYxG4INYcIEAEiQAQaFgFSxA3rflNviQARIAJEwMQIkCI2sRtCzSECRIAIEIGGRYAUccO639RbIkAEiAARMDECpIhN7IZQc4gAESACRKBhEajTdcQCanw3cFZWlnAJzs7O0KVLF8k1nRABIkAEiAARMFcCJqGIX3/9dThw4ICIcdu2bSEiIgK8vb1F4XRBBIgAESACRMCcCJiEIl6xYoXIIk5ISIBp06YBvjN43rx55sSb+kIEiAARIAJEQETAJBRxaGioqFGxsbH8Ojk5WRROF0SACBABIkAEzI2ASTprpaenc84ODg7mxpv6QwSIABEgAkRARMAkFfGpU6d4Izt06CBqLF0QASJABIgAETA3AhZVTLBT6LmMUtdvREpJSYGgoCDw9PTkbbK1teXtoj9EgAgQASJABMyRgEnMEUuDnT17NuTn58PBgweBlLA0GTonAkSACBABcyRgUkPTqampsGvXLpg1axatIzbHbxv1iQgQASJABOQImJQitrKyAjs7O7CwsJBrKAUQASJABIgAETBHAiqHpktLSyEpKQnKy8vBw8MD3N3d1WaAns85OTl8eNnHxwesrVVWxcvFeeHXXnsNcF1xYWEhdOvWjc8X405bXl5e4Ofnp3b9lJAIEAEiQASIQH0goNJZC4eKMzIyeD/QWg0MDFSrT5WVlRATEwMP/cCgSZMmXJGrlZklunDhAowbNw4ePHggyTJ9+nT45ZdfJNd0QgSIABEgAkTAHAioNFPt7e0lfcQhY3XF0tISbGxsAC1qFOlyaivjs88+g2XLlsEjjzwC6LiFHtSNGjWCZs2a1ZaV4okAESACRIAI1DsCKi1i7A0q07KyMnB0dNRo7hat4qKiIj40jUpZHcGh7BYtWsDkyZNhw4YN6mShNESACBABIkAE6jUBlRYx9gyXEGmzjAitYicnJ43gFBQU8KVLLi4uGuWjxESACBABIkAE6isBk/KaxuHnoUOHwg8//AA3b96sr0yp3USACBABIkAE1CZgUooYW/3TTz8BOobh8DR6a5P8f3v379JGFAcA/FuUtjpZ1I7BUbF0KZQSVFrof2A2dfCfkEL+iVKwS8dunTqbsVBw0yC2dKmmSzCDg6hDf1hewJAQSCQe5Zp8HkjuLrnvu/d5w5fnvXtHgAABAgSGWSB3ibhQKMSrV6+iWq3Gzs7OMNtrGwECBAgQiNwl4tQnKysrza5JyVghQIAAAQLDLJDLRJyeO04lLeqhECBAgACBYRboO2v6XzT+6Ogozs7OWlXVarXmdlpNSyFAgAABAsMskItEnBbuqFQqHc6zs7NRKpU6jtkhQIAAAQLDJtB3QY9/0eDPnz9Ho9FoVZXWlk73iW+6EEjrRBsECBAgQOA/E8jFiLhYLP5nbC6XAAECBAhkI5DLyVrZNE0UAgQIECCQfwGJOP995AoJECBAYIgFJOIh7lxNI0CAAIH8C0jE+e8jV0iAAAECQyzQmjU9xG3UNAIECBAgkFsBI+Lcdo0LI0CAAIFREJCIR6GXtZEAAQIEcisgEee2a1wYAQIECIyCgEQ8Cr2sjQQIECCQWwGJOLdd48IIECBAYBQEJOJR6GVtJECAAIHcCkjEue0aF0aAAAECoyDQ9dKHHz9+RHo/8HUZGxuLJ0+exL17964P+SRAgAABAgQyEuhKxO/fv49yudwR/sGDB/Hhw4d4+fJlx3E7BAgQIECAwO0EulbWqtVq8f37946opVIpXrx40UzGHV/YIUCAAAECBG4l0DUiLhQKkf7ay927d6Ner7cfsk2AAAECBAhkINB3stbv37/j9PQ0JiYmMqhOCAIECBAgQKBdoG8i3t/fj8vLy1hYWGg/zzYBAgQIECCQgUDXPeL2mH/+/Innz5/H7u5upIQ8Pz/f/rVtAgQIECBA4JYCXfeI2+O9fv06Pn36FNvb25JwO4xtAgQIECCQkUDPEfGjR4+a1RwcHGRUnTAECBAgQIBAu0DPe8RpgtadO3fi6uqq/RzbBAgQIECAQEYCPUfEHz9+jPX19SgWi83FPBYXF+Phw4fNVbYeP36c0SUIQ4AAAQIERlegZyJOLI1GI1ZXV5v3iq+Z0nPGx8fH17s+CRAgQIAAgQEFek7WqlQqsba2FnNzc7G1tRXpnnEaEd+/f3/A6pxGgAABAgQItAv0HBEvLy/HyclJHB4eRnr5g0KAAAECBAhkK9BzslZKwpOTk5JwtuaiESBAgACBlkDPRLyxsRF7e3uR3sikECBAgAABAtkL9PzX9K9fv+LZs2fx9evXSM8Sp3vFCgECBAgQIJCdQM8R8fj4eLx58ybOz8/j7du32dUqEgECBAgQINAU6JmI0y+ePn3afG64Wq0iI0CAAAECBDIW6JuI06h4eno6Li4uMq5aOAIECBAgQKDrOeK0gEe9Xu+Q+fnzZ8zMzHQcs0OAAAECBAjcXqArEb979y7K5XJH5LSAx+bmZscxOwQIECBAgMDtBbpmTX/79i2+fPnSipwW8lhaWoqpqanWMRsECBAgQIBANgJdiTibsKIQIECAAAECNxHoO1nrJkH8hgABAgQIEBhMQCIezM1ZBAgQIEAgEwGJOBNGQQgQIECAwGACEvFgbs4iQIAAAQKZCEjEmTAKQoAAAQIEBhOQiAdzcxYBAgQIEMhE4C+JORD396E67wAAAABJRU5ErkJggg==;container=0;" vertex="1" parent="XPjhp_FR7xsImikc65yB-11">
          <mxGeometry x="1" y="60.75" width="270" height="179.25" as="geometry" />
        </mxCell>
        <mxCell id="XPjhp_FR7xsImikc65yB-1" value="" style="sketch=0;points=[[0,0,0],[0.25,0,0],[0.5,0,0],[0.75,0,0],[1,0,0],[0,1,0],[0.25,1,0],[0.5,1,0],[0.75,1,0],[1,1,0],[0,0.25,0],[0,0.5,0],[0,0.75,0],[1,0.25,0],[1,0.5,0],[1,0.75,0]];outlineConnect=0;fontColor=#232F3E;gradientColor=#FF4F8B;gradientDirection=north;fillColor=#BC1356;strokeColor=#ffffff;dashed=0;verticalLabelPosition=bottom;verticalAlign=top;align=center;html=1;fontSize=12;fontStyle=0;aspect=fixed;shape=mxgraph.aws4.resourceIcon;resIcon=mxgraph.aws4.eventbridge;" vertex="1" parent="XPjhp_FR7xsImikc65yB-11">
          <mxGeometry x="1" width="50" height="50" as="geometry" />
        </mxCell>
        <mxCell id="XPjhp_FR7xsImikc65yB-3" value="Scheduled Archive Trigger" style="rounded=0;whiteSpace=wrap;html=1;fillColor=#dae8fc;strokeColor=#6c8ebf;" vertex="1" parent="XPjhp_FR7xsImikc65yB-11">
          <mxGeometry x="51.00454545454551" width="220.9" height="50" as="geometry" />
        </mxCell>
        <mxCell id="XPjhp_FR7xsImikc65yB-19" value="" style="group" vertex="1" connectable="0" parent="1">
          <mxGeometry x="59.99999999999994" y="490" width="582.0000000000001" height="256" as="geometry" />
        </mxCell>
        <mxCell id="XPjhp_FR7xsImikc65yB-14" value="" style="rounded=0;whiteSpace=wrap;html=1;" vertex="1" parent="XPjhp_FR7xsImikc65yB-19">
          <mxGeometry width="582" height="256" as="geometry" />
        </mxCell>
        <mxCell id="XPjhp_FR7xsImikc65yB-2" value="" style="sketch=0;points=[[0,0,0],[0.25,0,0],[0.5,0,0],[0.75,0,0],[1,0,0],[0,1,0],[0.25,1,0],[0.5,1,0],[0.75,1,0],[1,1,0],[0,0.25,0],[0,0.5,0],[0,0.75,0],[1,0.25,0],[1,0.5,0],[1,0.75,0]];outlineConnect=0;fontColor=#232F3E;gradientColor=#F78E04;gradientDirection=north;fillColor=#D05C17;strokeColor=#ffffff;dashed=0;verticalLabelPosition=bottom;verticalAlign=top;align=center;html=1;fontSize=12;fontStyle=0;aspect=fixed;shape=mxgraph.aws4.resourceIcon;resIcon=mxgraph.aws4.lambda;" vertex="1" parent="XPjhp_FR7xsImikc65yB-19">
          <mxGeometry x="0.5600000000000023" width="50" height="50" as="geometry" />
        </mxCell>
        <mxCell id="XPjhp_FR7xsImikc65yB-13" value="Archive Function" style="rounded=0;whiteSpace=wrap;html=1;fillColor=#dae8fc;strokeColor=#6c8ebf;" vertex="1" parent="XPjhp_FR7xsImikc65yB-19">
          <mxGeometry x="50.56000000000006" width="531.44" height="50" as="geometry" />
        </mxCell>
        <mxCell id="XPjhp_FR7xsImikc65yB-12" value="" style="shape=image;verticalLabelPosition=bottom;labelBackgroundColor=default;verticalAlign=top;aspect=fixed;imageAspect=0;image=data:image/png,iVBORw0KGgoAAAANSUhEUgAABCgAAAFuCAYAAABDUSkqAAAMbGlDQ1BJQ0MgUHJvZmlsZQAASImVVwdYU8kWnluSkJDQAghICb0JIjWAlBBaAOndRkgCCSXGhKBiL4sKrgURUazoqoiCZQXEjl1ZFHtfLKgo66IuNlTehAR03Ve+d/LNvX/OnPlPyUzuPQBofuBKJHmoFgD54gJpfFgQIzUtnUF6BhD4IQNHYMDlySSs2NgoAGXw/nd5dwPaQrnqpOD65/x/FR2+QMYDABkHcSZfxsuH+DgA+DqeRFoAAFGht5xSIFHgORDrSmGAEJcrcLYS71DgTCU+PGCTGM+G+DIAalQuV5oNgMY9qGcU8rIhj8ZniF3EfJEYAM0REPvzhFw+xIrYR+TnT1LgSojtoL0EYhgPYGZ+x5n9N/7MIX4uN3sIK/MaELVgkUySx532f5bmf0t+nnzQhw0cVKE0PF6RP6zhrdxJkQpMhbhbnBkdo6g1xB9EfGXdAUApQnl4ktIeNebJ2LB+QB9iFz43OBJiY4hDxXnRUSp9ZpYolAMx3C3oVFEBJxFiA4gXCWQhCSqbTdJJ8SpfaEOWlM1S6c9xpQN+Fb4eyHOTWCr+N0IBR8WPaRQJE1MgpkBsVShKjoZYA2JnWW5CpMpmdJGQHT1oI5XHK+K3gjheIA4LUvJjhVnS0HiVfUm+bDBfbJNQxIlW4X0FwsRwZX2wUzzuQPwwF+yyQMxKGuQRyFKjBnPhC4JDlLljzwXipAQVzwdJQVC8ci1OkeTFquxxC0FemEJvAbG7rDBBtRZPLoCbU8mPZ0kKYhOVceJFOdyIWGU8+HIQBdggGDCAHI5MMAnkAFFbd2M3/KacCQVcIAXZQACcVJrBFSkDM2J4TQBF4A+IBEA2tC5oYFYACqH+y5BWeXUCWQOzhQMrcsFTiPNBJMiD3+UDq8RD3pLBE6gR/cM7Fw4ejDcPDsX8v9cPar9pWFATpdLIBz0yNActiSHEYGI4MZRojxvh/rgvHgWvgXC44kzcezCPb/aEp4R2wiPCdUIH4fZE0TzpD1GOAR2QP1RVi8zva4HbQE4PPAj3g+yQGdfHjYAT7g79sPAA6NkDatmquBVVYfzA/bcMvvs1VHZkFzJKHkYOJNv9uFLDQcNjiEVR6+/ro4w1c6je7KGZH/2zv6s+H94jf7TEFmH7sbPYCew8dhhrBAzsGNaEtWJHFHhodz0Z2F2D3uIH4smFPKJ/+OOqfCoqKXOpdely+aycKxBMLVAcPPYkyTSpKFtYwGDBp4OAwRHznEcwXF1c3QBQPGuUf19v4waeIYh+6zfd/N8B8DvW399/6Jsu4hgAe73g8T/4TWfHBEBbHYBzB3lyaaFShysuBPgvoQlPmiEwBZbADubjCjyBLwgEISACxIBEkAYmwCoL4T6XgilgBpgLikEpWA5WgbVgI9gCdoDdYB9oBIfBCXAGXASXwXVwF+6eTvAS9IB3oA9BEBJCQ+iIIWKGWCOOiCvCRPyRECQKiUfSkAwkGxEjcmQGMh8pRcqQtchmpAbZixxETiDnkXbkNvIQ6ULeIJ9QDKWiuqgJaoOORJkoC41EE9HxaDY6GS1CF6BL0Uq0Gt2FNqAn0IvodbQDfYn2YgBTx/Qxc8wJY2JsLAZLx7IwKTYLK8EqsGqsDmuGv/NVrAPrxj7iRJyOM3AnuIPD8SSch0/GZ+FL8LX4DrwBP4VfxR/iPfhXAo1gTHAk+BA4hFRCNmEKoZhQQdhGOEA4Dc9SJ+EdkUjUJ9oSveBZTCPmEKcTlxDXE+uJx4ntxMfEXhKJZEhyJPmRYkhcUgGpmLSGtIt0jHSF1En6oKauZqbmqhaqlq4mVpunVqG2U+2o2hW1Z2p9ZC2yNdmHHEPmk6eRl5G3kpvJl8id5D6KNsWW4kdJpORQ5lIqKXWU05R7lLfq6uoW6t7qceoi9Tnqlep71M+pP1T/SNWhOlDZ1HFUOXUpdTv1OPU29S2NRrOhBdLSaQW0pbQa2knaA9oHDbqGswZHg68xW6NKo0HjisYrTbKmtSZLc4JmkWaF5n7NS5rdWmQtGy22FldrllaV1kGtm1q92nTtUdox2vnaS7R3ap/Xfq5D0rHRCdHh6yzQ2aJzUucxHaNb0tl0Hn0+fSv9NL1Tl6hrq8vRzdEt1d2t26bbo6ej566XrDdVr0rviF6HPqZvo8/Rz9Nfpr9P/4b+p2Emw1jDBMMWD6sbdmXYe4PhBoEGAoMSg3qD6wafDBmGIYa5hisMGw3vG+FGDkZxRlOMNhidNuoerjvcdzhveMnwfcPvGKPGDsbxxtONtxi3GveamJqEmUhM1picNOk21TcNNM0xLTc9atplRjfzNxOZlZsdM3vB0GOwGHmMSsYpRo+5sXm4udx8s3mbeZ+FrUWSxTyLeov7lhRLpmWWZblli2WPlZnVGKsZVrVWd6zJ1kxrofVq67PW721sbVJsFto02jy3NbDl2BbZ1tres6PZBdhNtqu2u2ZPtGfa59qvt7/sgDp4OAgdqhwuOaKOno4ix/WO7SMII7xHiEdUj7jpRHViORU61To9dNZ3jnKe59zo/Gqk1cj0kStGnh351cXDJc9lq8vdUTqjIkbNG9U86o2rgyvPtcr1mhvNLdRttluT22t3R3eB+wb3Wx50jzEeCz1aPL54enlKPes8u7ysvDK81nndZOoyY5lLmOe8Cd5B3rO9D3t/9PH0KfDZ5/Onr5Nvru9O3+ejbUcLRm8d/djPwo/rt9mvw5/hn+G/yb8jwDyAG1Ad8CjQMpAfuC3wGcuelcPaxXoV5BIkDToQ9J7tw57JPh6MBYcFlwS3heiEJIWsDXkQahGaHVob2hPmETY97Hg4ITwyfEX4TY4Jh8ep4fREeEXMjDgVSY1MiFwb+SjKIUoa1TwGHRMxZuWYe9HW0eLoxhgQw4lZGXM/1jZ2cuyhOGJcbFxV3NP4UfEz4s8m0BMmJuxMeJcYlLgs8W6SXZI8qSVZM3lcck3y+5TglLKUjtSRqTNTL6YZpYnSmtJJ6cnp29J7x4aMXTW2c5zHuOJxN8bbjp86/vwEowl5E45M1JzInbg/g5CRkrEz4zM3hlvN7c3kZK7L7OGxeat5L/mB/HJ+l8BPUCZ4luWXVZb1PNsve2V2lzBAWCHsFrFFa0Wvc8JzNua8z43J3Z7bn5eSV5+vlp+Rf1CsI84Vn5pkOmnqpHaJo6RY0jHZZ/KqyT3SSOk2GSIbL2sq0IUv9a1yO/lP8oeF/oVVhR+mJE/ZP1V7qnhq6zSHaYunPSsKLfplOj6dN71lhvmMuTMezmTN3DwLmZU5q2W25ewFszvnhM3ZMZcyN3fub/Nc5pXN+2t+yvzmBSYL5ix4/FPYT7XFGsXS4psLfRduXIQvEi1qW+y2eM3iryX8kgulLqUVpZ+X8JZc+HnUz5U/9y/NWtq2zHPZhuXE5eLlN1YErNhRpl1WVPZ45ZiVDeWM8pLyv1ZNXHW+wr1i42rKavnqjsqoyqY1VmuWr/m8Vrj2elVQVf0643WL171fz19/ZUPghrqNJhtLN37aJNp0a3PY5oZqm+qKLcQthVuebk3eevYX5i8124y2lW77sl28vWNH/I5TNV41NTuNdy6rRWvltV27xu26vDt4d1OdU93mev360j1gj3zPi70Ze2/si9zXsp+5v+5X61/XHaAfKGlAGqY19DQKGzua0praD0YcbGn2bT5wyPnQ9sPmh6uO6B1ZdpRydMHR/mNFx3qPS453n8g+8bhlYsvdk6knr52KO9V2OvL0uTOhZ06eZZ09ds7v3OHzPucPXmBeaLzoebGh1aP1wG8evx1o82xruOR1qemy9+Xm9tHtR68EXDlxNfjqmWucaxevR19vv5F049bNcTc7bvFvPb+dd/v1ncI7fXfn3CPcK7mvdb/igfGD6t/tf6/v8Ow48jD4YeujhEd3H/Mev3wie/K5c8FT2tOKZ2bPap67Pj/cFdp1+cXYF50vJS/7uov/0P5j3Su7V7/+Gfhna09qT+dr6ev+N0veGr7d/pf7Xy29sb0P3uW/63tf8sHww46PzI9nP6V8etY35TPpc+UX+y/NXyO/3uvP7++XcKXcgVcBDA40KwuAN9sBoKUBQId9G2WsshccEETZvw4g8J+wsl8cEE8A6uD7e1w3fLu5CcCerbD9gvyasFeNpQGQ6A1QN7ehoRJZlpurkosK+xTCg/7+t7BnI60E4Mvy/v6+6v7+L1tgsLB3PC5W9qAKIcKeYRPnS2Z+Jvg3ouxPv8vxxztQROAOfrz/C8LykLlFLtdSAAAAbGVYSWZNTQAqAAAACAAEARoABQAAAAEAAAA+ARsABQAAAAEAAABGASgAAwAAAAEAAgAAh2kABAAAAAEAAABOAAAAAAAAAJAAAAABAAAAkAAAAAEAAqACAAQAAAABAAAEKKADAAQAAAABAAABbgAAAAAHiybgAAAACXBIWXMAABYlAAAWJQFJUiTwAABAAElEQVR4AeydB3wUxRfHH71DCCGBAEnovfeOFBFEEQQRO/b+V7FjR/8qIvq3ISqKDVBEioKo9BIgdBJCaCG0hJAEAgm9/d9vkrns3e1d7i6bBu/xCbdldmb2u3t7O29eKXKZhUSEgBAQAkJACAgBISAEhIAQEAJCQAgIASGQjwSK5mPb0rQQEAJCQAgIASEgBISAEBACQkAICAEhIAQUgeJWcoiJiaGkpCRblaVKlaIOHTrY1mVBCAgBISAEhIAQEAJCQAgIASEgBISAEBACZgQsUVBcvHiRunbtSmvXrrVrIyQkhPbt22e3TVaEgBAQAkJACAgBISAEhIAQEAJCQAgIASHgSMASBcXSpUuVcuLdd9+lzp0729ooXbq0bVkWhIAQEAJCQAgIASEgBISAEBACQkAICAEh4IqAJQqKhIQEVX/z5s2pZ8+ertqS7UJACAgBISAEhIAQEAJCQAgIASEgBISAEDAlYEmQzDJlyqjKk5OTTRuRjUJACAgBISAEhIAQEAJCQAgIASEgBISAEHBHwBIFRePGjVUb4eHh7tqSfUJACAgBISAEhIAQEAJCQAgIASEgBISAEDAlUOQyi+keLzf269ePli1bRhEREdSqVSsvj5biQkAICAEhIASEgBAQAkJACAgBISAEhMDVTMAyBQXiULRs2ZICAwNp8+bNVLy4JeEtruZrI+cuBISAEBACQkAICAEhIASEgBAQAkLgqiFgiYsHaFWvXp1eeeUV2rZtm1O60auGppyoEBACQkAICAEhIASEgBAQAkJACAgBIeATAcsUFMbWy5Yta1yVZSEgBISAEBACQkAICAEhIASEgBAQAkJACLgl4LMfBlw6Dh48SGfOnKGYmBiKjIykb775hoYNG0atW7d226jsFAJCQAgIASEgBISAEBACQkAICAEhIASEgJGAzwqK7777jsaMGWOrq0KFCvTrr7/SoEGDbNtkQQgIASEgBISAEBACQkAICAEhIASEgBAQAp4Q8DlIZmxsLO3atcvOgmLmzJl011130aRJkzxpW8oIASEgBISAEBACQkAICAEhIASEgBAQAkJAEfBZQWHGb9y4cfTCCy+oQJlNmjQxKyLbhIAQEAJCQAgIASEgBISAEBACQkAICAEh4ETA0iCZFStWVA0cOXLEqSHZIASEgBAQAkJACAgBISAEhIAQEAJCQAgIAVcELLOgOHr0KLVs2ZJKlSpF0dHRVLJkSVdtynYhIASEgBAQAkJACAgBISAEhIAQEAJCQAjYEfA5SKZdLbxy//33U3x8PK1YsUKUE45wZF0ICAEhIASEgBAQAkJACAgBISAEhIAQcEvAEguK3bt3U/369enuu++mKVOmuG1QdgoBISAEhIAQEAJCQAgIASEgBISAEBACQsCRgCUxKCIjI1W9PXr0cKxf1oWAEBACQkAICAEhIASEgBAQAkJACAgBIZAtAUsUFCdPnlQNBQUFZdugFBACQkAICAEhIASEgBAQAkJACAgBISAEhIAjAUtiUAQEBKh64+LiSFtTYAMCZTZs2NCxTVkXAkJACAgBISAEhIAQEAJCQAgIASEgBISAHQFLYlCcP3+emjVrRjt37rSrPCQkhPbt22e3TVaEgBAQAkJACAgBISAEhIAQEAJCQAgIASHgSMASC4oSJUpQTEwMhYeHU3Jysq2NMmXK2JZlQQgIASEgBISAEBACQkAICAEhIASEgBAQAq4IWGJB4apy2S4EhIAQEAJCQAgIASEgBISAEBACQkAICAFPCFgSJNOThqSMEBACQkAICAEhIASEgBAQAkJACAgBISAEXBEQBYUrMrJdCAgBISAEhIAQEAJCQAgIASEgBISAEMgzAqKgyDPU0pAQEAJCQAgIASEgBISAEBACQkAICAEh4IqAKChckZHtQkAICAEhIASEgBAQAkJACAgBISAEhECeEfBaQREVFUX4ExECQkAICAEhIASEgBAQAkJACAgBISAEhIBVBLxWUFjVsNQjBISAEBACQkAICAEhIASEgBAQAkJACAgBTUAUFJqEfAoBISAEhIAQEAJCQAgIASEgBISAEBAC+UZAFBT5hl4aFgJCQAgIASEgBISAEBACQkAICAEhIAQ0AVFQaBLyKQSEgBAQAkJACAgBISAEhIAQEAJCQAjkGwFRUOQbemlYCAgBISAEhIAQEAJCQAgIASEgBISAENAEREGhScinEBACQkAICAEhIASEgBAQAkJACAgBIZBvBERBkW/opWEhIASEgBAQAkJACAgBISAEhIAQEAJCQBMQBYUmIZ9CQAgIgXwgcDz9HK2LTqTElFNetx699yht2pHk9XFygBDIDwKXLl9W9/ruA6n50by0KQSEgBAQAi4I8OOZdh9KpYSUky5KuN58MCmN9iYcd11A9ggBLwkUOgXFufR0mnX7LbTy7Tdtp7r4xdFqm22DlwuRP/+gjt+/YpmXRxbw4nja4E/EEgJbv/9W3SfJ26NVffERa9V6zO+/WVK/lZWs3XaYbh3zF/22aLeqNv3UebX+1jdrXTbzyPtLVJmLF+WecQkpF3Z8PTtKcU9KPe1V7SdOnqPhL86jL37b6tVxV3vhtFPnFG98Pxz/DiWlX+14cvX8V21JUMyXbjzkVTtnzl1Uxz05fqlXx3lbeObi3dTr4Zl039sL6cLFS6aHy/1jisWSjYd5YITv5GuTVue4Pk+uZY4byeMKoNgDn3E/bsjjlq1r7tiJMzTylb/o2sdn0TIvnwPW9cL6mqb8Ga2uDSYNIPodDPdhYZGY/Sn00a/rKTou2asunz57gcZPX0cLIvZ6dZwUdiZw9vxF+mTmRnrzu3DatOuIc4ECvCU2/ri6f/5ZF2dJL4tbUkseVnL54gVKWB9BRYtm6VaOREXR0V07fO5F2sEDqs7TKSN8rsPdgf+OfpJOJSfT4O+nuitmyb5je3bTxq8mUuLmjZQWf4iKly5NAY2bUtVmzal2775UvV0HS9q5Gis5fmC/uk/OpaWp0z9z7Khar9m5S4HDkZp2Vs1UdmlRXfXtPL9sY5a+aNEiLvu6ZWcSJR49RZf5H5Hrci4r4B1fzYqipRsO0usPdKSGoZXdFbXbd5RfWh4ft5Sa1a1CL49qb7fvSl65eOkyzVy8ixqH+atz9+Zc/1gRSxi43dK3vjeHXfVlL/G4MyHZfoboyLHTdI5fDMBTJPcIzFi4k4oXK0pDetX1qpFL/D3B86tWUHmvjvO28G/8XTyQmKb+duw7Rk3rVHGqQu4fJySWbcD3D9cZz8WciifXMqdt5PXxaafPKz4VypbM66Yta29d9BGK2Jao6vtjZSz1bFPDsrrzs6J9h9PUtYECE3LshP07WH72zdO2w6PiqRi/I3ZonPHe6Olx62IO0/kLl6hLM+uu5SlWenw1d4tpF8qXKUGBlctRu4ZBFByQu78Jph3IxY37Dp+gHfszlFwR2xOodf3AXGzN2qpPnTmvLHCq+pW1pOJCp6Cw5KzzuJLELZspnZUFuS07586iRS+Mpst4g2Kp0rARFSlWjOJZoXNo7WraMmUydXv5NWp+x9253RWp/yolEHvouJo5SOcXKW/kLL+YYsahePEsxaM3xxfWsss2HiQMjh++uYXXp/Drwl0U4FeGerer5fWxV/MBlcqXpGWThtkhwKwkBkYiuUfgGCtN/1m7n/q0r0VVKpXOvYZyUPNdAxvTmbMXqW7NStSIlYZmIvePGZWCt82Ta1nwen3l96hT82rUr2MIpRw/Q8P7iHK9oFzxkzy43LoniZrXqUreKsBWb4tXxzSvHWDZ6VzkSbVdB4+5rW/h+jga0qM+XdM6xG25wrSzdnAlatMgiDBp161FzcLUdcv7KgoKy5HmT4UneHZ/6asvsUfHZaWEqHf9DVQ2oKrqzPlTp2jfsiW0ZMzztGLs61QuMIjqXHtd/nRUWhUCQsBG4Jd/d1HJEsVocM86tm2eLMCMNGpPCj1wUzMqVsw3axdP2pEyQsAqArOX7lGzbAXZ4mdAlzDCn0jhJyDXsmBew4rlStKXL/YumJ27insVEZ2g3Nq6NAv2igJiT+xPPEF924W6tdD1qlJD4XKlS9C4R3oathDFJ6fT5t1HaP6avfT78l3UKKQKVa9Szq5MYV0pwRaG913fvLB239J+i4LCUpzmlV04c8Z8h4VbD0WsIbRT97rrqcXd99rVXKJsWao34HryC6tNB8NXinLCjo6sWEngzLkLPlV3NZrWJ7HlxJINB2hA5zDyK1/KK24z2HoCUpAHe16dkBS+4gnA4qcav0R2b13jij9XOUEhIASEQGEiAPcOvIc0DnN2a3N3HjgOYqV7h7v2sA9uHfhDzIPt+1JoDVtwwJJC5MoicFUpKFJ2xNCBlcsJcRoCGjehml26UeW69bK9oqePHqXd8+bSsdg9dOH0KaoYEkq1uvagoJatnI69dP487WBXCy1o61TSESrCMTO2z/xVb7Z9+oWGmcaF8KZNVHZsd8aApXId1769OGf8uZLLly4ynxV0JCqSThzYR35cV1DzllSjk3mMhfTDCXRg1QpydQ7H98Up95IqDRpSINejBYFO9/w9X6/aPqu3ba+UKAjsmbh1C53Yv48unDtL1Vq3JbPzOp2Swu0vp6TobXT54kW+Jt0puEMngkLGnZxKTlL3QdK2KLrExwU2bU41u3aj8tW887tz14bZvgMHDtDUqVOpNMcFGTlyJAUGFlzfMmSUmLFoF8WxPxw0011bBBNMMx3lXzbZTk0/qzbD53L5pgxXpsXrDhDcPYxSjv0GB2bOTsYnnaRVWzN+2OBfjvIQBElDu47SoUkQhVavaNu8YnO8Ktu3QwibFpZQ5vmrtyaovrSoV5X6dqzldtCPbAJL1h9UGTAOHz1JAZXKqJgZLeoFKPNuW0MuFhDDYO7yWCpVshjd0L2OTybrs3hGGQFJR/Rr4KIV880IojRn+R5q15gtoWpUMi+UuRWKn+UciCwqNoWOcHwRxLro0CxIfZoduHj9AWV66yomBnzD5yzjfvMn2FeuYK9YQd/+Xr2PItm64yib8FYPKEdgCpPeIiaGHjv3H6Mtu5IJsVIO8z03f1WcijNwY4865F+xtHL7+WfNfirNnO8c2EgNcI39/n3Jbq63iIppgKCh4XwPrI06TKVLFaOW9auqduFTmxuya3+q6t92tmbxYw6In9KrbU0qUyr3flb3HMxwodrG1zPIvyx1axmszjM7K5oDiem0OjKBcBxiQKCvYI46HGXllngVo2NQt9qsQDtIa/i49k2qUf9OGWa0C/m7uoq/f/g+jrqhCZXwwC0L1xjX+rHhLZWPs2Obeh33D673ll1JVJSvK545nZt79lwGmwWr4zh+RLpyFQutVoFwDrgHXYk+V8f9NQPLe9yu47Gu1hGo+K/Vceq5hO+DK9mXcIIi2N2oQUhlvrbWmUx7ywfP7w0xR5y6iWc4nuUIjLdlZ7KK+I+Aov07hRJmxx0F8QZwPdE+nivdWgV79IxFPZG7k2kePxPgDlA7uCJd1znU5TPPl2upr4l/hdLUp4NrV7kF/ExDbIGhveqZWqxB2Yz2YdUG0/RmdQP4PKs7Pa8c2eR0Hb+jaHczx4+qUbUcdWxWTf0umNWb189K/oklxAFxJ/h+unte4n3gz5VxdJDjwiAmQf1aftS4tj+1aRhIZUu7f85u5Xtnw/YjhFgygZXLUFN+5vVg5air9v5cuVfd0zf3rkdJR0979P7j7twK0z6858WnpNN1HWur566nfVexzTj+RN0afhRU2fm3xNN6fC3XpkGgUlAkHrOPKaXrQ1wMBPzcfySNjvN7as2qFaheTT/1qcuYfaJs5N5k/i05wb/tpalBzcpUJ9iP3y/PUAzHhwjkGAs4Zy14h13L8SJKsTUs3DMcBb9rG3cmqudmC3ahMQrcoSNjzTOxtazH97mL94nEY6dYQeOcDat1/SD1voSYWriux9LOEN53W3Fdjve+1XyM52XFsvtvuBUtWF1HkaJqIFnaP0vLV7ZqVTqXfsJtS9um/czuDa+pAamtIL8AXTvhU9uq2UL0r9OUW8TFcxmBb9RbNl/siP9NoIY33Ux93hvP8QSzXoDPn+ZZ0Zefd6oKcSHMtjcaOsxJQeFtm2isdOUMf9n9y5dSh/8849R+dhtOJh4mBPOMXxfhVLR2n37U+90PqFSlrC8kCkHhg3NqNORmp3PA/sMbN6j9re59wE5BAQWBGYteb79HxUuWonkPjaKUnTtQhZIer491UlAg48rC554mBKrUsvWH76ho8eLU94OPqd7AQXqz3Wfsv38rV5ezx49TUY7PAcVR1PkfqES5ctTzzXeowQ032ZU3rpSqUFHde8VKZryEFWNFA5QaJctXMBZzufzEE0/QnDlz1P6YmBiaOHGiy7I53VG6ZHH1coRgQhC87GP2MsAD328MLu958x/Cy5sWZIq4/bqG9NZDnfUm9fm/6Ztpe1zWNdA7v/w9Ui/aPvHSrxUUGCi9+Nkq2z69gJdYs+0fPNnNTkHx7dxtShky64PK9OXMSPp7zT5dBf1MO6jWjPL09ct9qX6I/T2LQlAu3PXGPzYFCgZsF/n7iRcqyK3XNqAxozq4fQF64+u1tDBivyqPPo992J6L2pHNf79ywEAE/fN0AKarwwAOqUmzs57AAPqJ8UtpV2ZKRwzyofzB4wquIaNvb6MGq7pefMLd5KXPV6kf5fkfD1Yvdsb9uA8+nrZJDUYc/Yc38UvyY5wJBoFWIWhHM8WA+LvX+imlg7E+RHF/7/v1qj+4phAoP6BsuoGVFE9NWKbuXWzDYBl9MsqYiav5HIqoQGvDX5xPcTy4M0p3Hgx98mwv04GTsZw3y+jL5zO20Ge/blF9xUvJuQsX1bmG8aD9f6N7eh3wNLv2wfGrWZH04dSNSqmly+P7V5kVOTPeHagGcHq78XP6Pztp7OS1TgFAMZh897GuatBnLD/lj2jFem/8CfpmTpRq7+cFO/g70Z5fiE4Q7lud6Qfp6F6/v6PxcNNlHIP7YVifeqb7sVHFYnl3kVJY6UKT+Z6Aguurl/voTU6fGBzj+zjt74zfDON999HUTfQS9/vOAY2cjsMGfa6OOzHY9vZ76ViH4zoG9RP5WYXB1vKvhrkcvH7E368/VuylH9641rEKn9Z95QPFwpiJ4U5tQlkMxcWz/1uhFAe6QOsGVe2+Zyf5xRvH41wcpRWX/XnsdepF2nGfXp/+704a84V9+/jOvf1IZxp6jfN95Mu1LFumOD/PNit/74gpI0x976F8eOKDpWqA6/jMQ1/xPH7x85XqmQxFIX5rz/8VowYjY/n30lv3PX3+2X0ivfQdry1w+l4/NLQ5PXtHG6eBZl4/KzFoM/stN54XJj7KVDUfhqjfmumbbM8a/DZh0AWB0nHcE92UktVYH5ZR5p3v1tFPfA0cBbFlPuXfA7MA3v/lY/DbVY+VIJ6+/xjrx/MU71joJwS/t1jX72DGsgVteXXUIRUWvXNT79w7trCbBQIjdvHyOKvOXydLuGCSeQ6/TZPnbbWlTIUiHbEy+GeI3VHC6IaudU2V5bDK+OqPLUohaexnj5Y1qWlYAP30TzSBk1FBcYHfH7EdkypmCgo8C7E/JKgiOSoojp44rfYZ29LLoVy+bCnzIKCIzzFt4XZd1PZZjxUnexNO0/cLttmdQ1i1SnYKitziY+uIBQvmTwYLKs6tKkpVrEh3LbNPQXXjdz+5bQ6D7mVvjFGD1/ZPPEX12A2iTECAsjpAxgvjINdYEQJLIq4DBqGdn3+Zgtt34AFtMYpb/C9t/PpL2jF7pgpEiQG4Fgx0b/rxF72qPjHgvnD2LA2eMtVuO1agXDGKL23i+JAevWjNhHFs/bCVkPYSig9PBVYfs+4YQWmHDlLr+x+mJrfcSuWrB9OJgwdoy3ffEBQmfz44im7+JcsyxNO6zcqBp5FR9K9TaecfGQP3ZW++wqzOKeWPjqGBLCRGQdDRPx+4h0pXrMQKog+pVvceajesOdZO+IAWv/Scsv4IaNTYeBhBebPg8YeofHAw9Xl/AtXs3FXdE/Hr1qrrvPDZpzjrSRmq06+/3XF6BYofo/IntOc1TveiLmv2eZqVV1rOsDtObgoiY6/6ZritCQR2M67bdpgsfPDDBnr13o6EwV0Rnn1exTM0GOBgkNKtZQ26NnMmFYe+93hXQnAlLRN+3kTrtyeaZvHAQE5LO37Jnfp2VhyUfQlpamDsKotHXReWAhjctm0USP9+NkQN1DDr9+kvmwkWFkgVuGTizU4zXo/yIBrlRvZvqIJ0Na2TodzDTMuP82MIA7oq/EPzDA/gXclZgysLtOPeChhhAPj0yNZG/aZH1WCwp6xRuoa5LJ/MKUuHvTRPvdy9dl9HGtyrDlUqV0qd95ucahbZVhCY9DWHwSVm5B8a0pygYHqOByBTXr/W1j/M0n3662alVMF1NwqsaO4b+y+/rFxQA1nMVAVXLU8r+Tr8MH+7mr1/4dNV9PUY84Hmis2H1DXkd1p6iAepi9iS4ygHVVz8xc1KCfDIe4vVTBiUQXjJNAoGy8/+byU9OKSZmiErxgqnSJ6xf2fKOnUfvP7VGvro6YxnhPE4X5fH/7RB8evQNIheubeDCqZ4hmf3/uAZuHe+jaBbOYXeQr4f8XJqlSAVLVILYgbx1fs6KKsJzKDA8ugD7g+YzRo3SN0XxjahkMIgES/dUDC0bliV/YxZwc4Bad/5dh09Nm4JfftqP9NI+rCiWjdlJM8KJ6vv0ie/bKFr2tVU26BgvJ+/X/P4nLNTUGCmHYPUTs2q8wuaa2Xu0x8tV8oJZM54/q62arYd9xMUgS+YKDP1eX4+Y6tSTmD2GPcungcYaEBpCUXSWL7fm7OCDINiR0E7D/B9oyVm7zF6i591uSFQnNzGz5x3+b6Eu8uTI1o5NYMUjH/zgBfWKV148GaF+MqnNwcznVoj6xn92qQ1hDSXaay4xsAzpFpFpagszxZsECjKjPLE+GWcRvKgsmLCucICAtZGv3HaxV9Y+fAyK0InuPhewtpr1pI9SqmJa4c2YQGAc3mNv8+w/nH8fvlyLaFMuLFHbfV9hqIBs+eOMj88Ts1ADmaFqaNAwfrI+4v5WVeOxv+nu7pmUJhCufMyK1ee+Xi5GhQYfzMd6/BlfT8ruT78eSN9/vw11IKtbDCZAOtFPCMm8bM7hK2HbjWxzMvLZyUyhhl/443nCcUTfv9cCTKB4fyqchDoNx/qxM+tQKUsR6DdJfzbACXek6x8X/DJTSpQtLEecId1IoLx/ufWVurZB2s+XEccN/yl+eq9wFWgXm/ef4zt4rccf1pgTefpO5c+Jj8+odBZv+MwNajlryxJvekD3DugiDEblHtTj69lozItDwIdrDdg7YS0p1CSDe/VkNo3rsYTTiX4d4EtdJfsoH/Xx9F5tp7GPqPARfmL2ZuUJU1bzhDSp02our9gUbFi60F1nLG8FcvIRvLU8LZ2Vc1ctpMOsNWHO2leJ4CCDMdNXxyjrIrxe/sjK0NgFQyrCUxWQoyKssLCJ6Pn7ihcAfs2TvpcnUW3Ma9Ts9vutJ0RUm5e16IV/XJj1o+wbScvVG/Tjto8+Ag1uvmWDNeDzJ1NbhmplqC82PPXn2RUUGBWPriD/YwSZvWLsILCcbuxLb3sS5s4FoPxVqPup83ffs0D9Gdp3WcfUy12YanCLh2BzVqwBUMLZS2g2zF+Rk37SblTtH34Mer49HO2XXCr6DX2Xbp04bxSesAto27/gbb9vi4g9amRxf4VS1VVu/6cq5gPnPi1UgS5qn/1+HfV1OyAL79R5XW5hoOHUsWatWjVf8fS+XT7LzdcOVa997ZSQEA5gnJaoKgY9PUU+uWG/hT+/jsExYO2ktBlrPj88MMP6csvv1QuHo8++qgVVeZKHRjo4cdVC1IC4sXmhc9WEma1jC9bUCgYpXLFUmoVgwwMFFwJXAM6Ns1yGdGmwZXYB9K43dXxejvagCWAFqxjUD3i5b+UomQup+I0pjTEAACmn3i5fY0Henq2A8ejzxh4D7mmLnVgk3Z3glSoU1lhAxeP213Mzro7HsEx8XJs9kLs7jhtqj+ibwM7bbjjMRN45hgvrZgtGmhQZGBwP/mVvnTdk7PppwUxbBXTyGnA/8xtbdh1IVGZDmMGHdYW+NF75uMVqs9mFgnwXX3pnvZqBhWzz1pwrzQI9aM+j/6u0s+iHkczQ5S9qWddm4VMP3YdgYKkL79g4kUb0r9zqLIEOXgk3am/UBDde2MT5e6gCvN/MNdu3aiqaheDaJyTFSkqMTD4ji0MGoVVph/f7G+zQIHCCAOC4myRhe/J+6zks0opAmuZiTO3ZlhKvDfQNstbvmwlnsWppF7CYL2CcuiHFrj34IUc362pPFttfCHHNYILwYD/zOa+rue4EMFOM673DGpMUGx2ZaVVM/5uoI27r8/YhgEiBkbIfIJ28JLqSuC2gxkkdxY/UH7BlaQGK7V+ZWsQXV8V1kXBjURlzuDBrplA0Qj3Hswa63sLbB4d1kLdM3DFgrLCTEEBBkbBdzI3Bd/3CTzwwvffzN0Fg3cMGEayFZdVXfGVD8zi8aelQua9hYEjLMYwAHQlcLOCcgIKT2NAxDb8fMZgEwNNZCDCd9eouNb1wWphzoc32Nz0oPx4igd/B5PSleJi7vK9SiGpy+PT12s5uEddpaCAib/Z8xjb4SZ2Q/faxubUb+I730Woe27q2AF2zxd8P759tS8NfGoO/ZcVUr3a1rD7rbGryIcVuD5MZwW/Vgph5vYO/h2CEgjWgV+zAhrfN8f7OS+flbh/Xf2WY7DoTqD4gTx2S0ulBNNl8d4A6xm8n6SknnFSTiB49Gx2QWzbOJAmvdTH9h2CxcV9NzZVLonPfbJSTWK88WAnXa3dpzfvP3YHFtIVuB7gGd7Zy+CYKcdPs9veUerS3Np72xOMUCRExiarPzyxHS0/5q7aw+d0QQWbNCpPqvmXo0dvakVv/7CGlm85SN05Swa2acE2vKPgmHsHNtebCYE6R/RupAb+uw+l2rZbsYDfuvrsQmKUsqXcfz9QFhNO+NNSJlMR8Uf4HhrZpzFnY3HtHlhY+BTVJ5eTz3Ps/rBv3z7as2cPHTt2zKuqkpOT1XHwz79wwbcAe+4avHDmNMEdoGT58tT01tucimIgWtNFjIWiJUpQp9Ev2CkndAX1Bt6gXASOcowJKyUnbXZ5YQz1GTeBglq0pDROaxo9YzqteOs1mnnLTfR99w60evz7BGsJR4GFBKTlPfc57srcfr/6jP4lo5xpIQs2Xr54QVkowErFlRyP47gWEWspqFVrO+WELo84FsNmsqKDlU9GObQmXMUeaTB4iJ1yQpfxq11HxSRBNhRYaOSGNGvWjD777DMaP3481anjPBvjqs2cfL9c1eluO2YiHQUzp5C9bP5WkMRVDvUHeVANMbp+6H7jxakMxyjATLuZ4KUqu8EBXobxgoNBubtZYbP6ld9zeJzyxXbnH292LGbEL7OVwXB++XQleNn4jcvhZdWonNDlYeoINxYonTCr5CgwU/7f6B5qYIvBCGbL32bLAPjGv3BXO2Vy73gM1mH+bFRO6DJwe4AvPfwgHeOS6DJaEYF1xHOA1DLMtusgohiIOgrOx8wcHy/tw7hPcMlYtG6/42E+rSM4Kfw2Hx7awqacMFaEAQ58ozEoB18r5K/VcWoAPoKvuVn6N5h0YxCIWVyjYKYRVhCY+TUqJ3QZ3B/XcIpaWA5tZnNxR6mVqRzCdrNrAmUixOyaqB2Z/8FaAAoGKJlcif6eIs6IVk4Yy/Zsk6UwNW7HMgbRsCrRygnjfii+ILC8KQiCAdbAbmFqpguzxEbB9xrWW1Ca4r41E5zHIraaMfuD8tJMrOYDxZQ75QT6AEU25L7BTdWn8T88Wye+cA1ByWumnEBZmODr77zx2N5tM5QiVv4OQdmI9hATCQpsoyDGw6YdR5SSDgoVo6yOSlD3FVw4zJSfiA8E5d4BVmpu5lgdjoI0gmbXEdsQe8OdwO1JKyeM5dAeFO1wdcP32lHy8lnp2LZX63yPQIyzvhlbMv7Hs93MffNXvu/wPRo1qInpb/gQjiGC7yCeSfg9MpPC9P6D/uf0/TCc3R6gMGpV3/WEkhknHAeC3mT9QJbBQ4cO0e7duykhIcGsWqdtiD3yxnfhdn8vfLmcpvzF7of8235jt3pUKzDLMg+/zwiaCasKo3JCV4z3vq6sVIF1BZQzRoHLCqQfZyQxk6ZeBhA1qyO3t8EtxJ1yojDxscSCIjU1lU5xKktIUlISVa5srw1ydUEusd8OFBS4afElO3HiBPn7Z5hbuzrG2+1p8fHqEL+wOi5n5YuXsf/hcdUG4kicSztB+IQUK1XKdMDv6nhftnvbJqwI8HfySCIlcbBLxHKIX7eGDq1ZTZu+nkgJ69fSkKkzbCxQ//F9cRxfopItjoVjPyuFhimH8tS9sY67LF2v2aV7tvWlxmX0wSxopruDdRDRslUCKDVur2nRMlUyrAEQ2BTuPAVFfP1++dp/vMQ4CgY4mEXCS1VBEm2+5tinurUy3ADwgmkUvNRhFg/Bs+587W9lLdGIX06Re1qbKhvL58ayDsblbXBMvFDN5BlWKEfMZoN1X/Hyjh9uxPxwZUarA4zBZNtMMJMNaxK4w4x661/la46gmJjN9lRgRniBXxYgejB7LnPdXR2ICeIoOggkfiscBferq0CY2h3kkMN94FiHp+s6nkc59l13xRauLeC6jwNUZRfE1JN24zJNofW5eHIMyuj+4d52JVBSQFAW3wtXYqbMgyk7xOya6HqgkII7010DG7scjKKsvj5wRTETM+WDWTlsQ8yFtExFln6W4aWsoAisluC+gJgZxoH+Gh7wYmAJpQoGUWYCNwez+D4oC1euu9nqJTvJKR+4/mUn+t7z9p7V9RY3+Q3CvkD/jHc1mOxbKWAOSyIEw4TFiZZ5q/aqAa9ZHAn97ITiQp+vPk5/asXgnoOpBJcwoyCg5oP/XWTcZFu+tlOoUuLYNjgsuPrdQzEwh1I5/shJ5SZlPDQvn5XGdr1dxvfih3nbObZMhlsRlAZ4jtUILOdkFWKsW18HV888KMfgPgWLLbwb4DfSUfQzw7i9oL7/oI85eT+Em+Aetgjo2aoWIb2lp4KfYSgBgquUJ8Q28FQwTsQ4D4J+Y7xXisdR2YmeMIJVBBTi5cuUVFYTUKqEsauZURAwE+9KVSqW4bhGGeNS434sa8tZBEg3Skrm+63RqsK4v2Rx15OnxnL5udw41N6q2bEvhYmPJQoKZCXQ4snNpssiwEkJtlKAcgJirEeXyennycMZWrriZbL66E2dyZwhYvN33/AAP5xOpyTbB9nkinLDFcCKNssFBlG53kEU1rsvwXUDg+7fbx1KhzdtVO4ajYeNUBhOJh4mBAAtW9X1yylcMoqxm0o6s4QFBqw8ckMc43GYtQFlCqR4mbLq09P/tFJi/RefEP7cSdqhA+525/k+4/fCm++X1R1FtoTCInpAE88BMR0Fs82j2V0BcQ/Wsi++FsxAw7XjDp7FRcC33BLEkMAMUF83UePN2l6xKSNzyf0ms5LG8volDXE4+j72u3GX0/IhdplwJbCGQDYNmMjDdQBBydwJ/P7xUgmrDMzc+xKbw139vuzTEbARGNUK0WwfeMd8YGFsA+4oligoMgN/6nva2Ia75f2HM9zcKpRz/bxGBhwIrGNyQ3RGHncWP2gXJusQbaaqVrz4D9mEfuSgeDDxTuWo5XiBLqiCZ0uT2v7sAnFIBezVVlSwnoDcxsGIXQnuJ1fWJGaDLV2PlXwQFyA70feT/v5lV97T/Y4uC54el105xKEY9+N6FUfGqKCAMrkMW0Rd2zHUqQr9LEDgTvy5EzwLHAW/Aa6upaPrpOOx7tY18/jM75S7ssZ9+jirnpXGur1dhmsQFOTj2FUOCjmtlIN1VaMwf2UZOPLahk6BrPd5+cxz951x7HNBff/JyfvhaluK0OyVjkYe0ZzaE3Gn+rZ1/l4Yyzkul8wMMI/tevznWMZxHffl6/d0UZsx6fHGd6v43eICu2fUYMtA52eRVkog/eibU8Idq7NbN064IftOOtcPKWGIl2Z3QCFY0e7SrrpamPhYoqCoyIEr8SU5z4PXstmkeHSEVrt2bULwQNy4UFZYLZ5aR5i1m7h5E82+kwfy/LZTf9CNFNCkGZXic0XmB8iSV17MClNvVoEP23KrTaRTrTtgEEX/MlVZU2gFBYJ6Qi5fdj/DhFkyKGMQTyM/RffX2z7o1KNwY0E6UndSwRCfwl25vNqXk+9XXvWxoLajX7qM/cOLITJK4KVxI0ejx6w4Xja1/+ofHLcCwduQAs1qgdktUi7CH9bMUsBde1BsYHbnJjYpdif6nGHui3bciR6gmpWBHzgCpEIQQ2A+zyYaX96Nx8CnHHE/YM6MGVYEAwRnbfnw7dxoNatnPCYvl70d3Lvqm2YLZY2jybfjMTkZZBjrgv+rL6KtZDIN/kyrYEMbJcbYFaYFfdgIF5ff2VIAJucYkLsTXxUTqBPZXxC1H7OcQzleTmj1CrZYHFDAIR5LQRNYUSB4KWJOPMF+9vj+/MNKFlhHuYvdAxciszgJ7s4vP/jAZDw71x93fc7rfYhJ1IFd+9Zx7B1kk4FbDJQssHKAklZ/l4z90s+Ue/kZiwG1O6nJ2ZocBc8HxKnILdHPKm/r1+fl7XFWl4fLIOJHrY8+wr/NKSqDUCy7OCGGFCwg4EaHOEDGawPLNkh+PfOsZuBJfb6+H8LFYU10vHKPQPpNbwRZP/D+0r5xdW8OU2O8Bg0aqDFfGbZc11k4PK0ELo79O9SmOSt308zlO+nBG1o6HardxhqF+FPvbBQoxt+donw+sBSEhdmVLIWJj2WjTSgYjNoxTy8wbtBymYNkT4/xphyyUUBOseuJt7J+4qfKuqDtI49Tx6eedTp82RuvWO7ikZttItYGFBRnT2T545biTBil/SrTaeZz+dJFm+uH8WRPp6RwoMwLGak+DbPoRTggKOT8aWvNLY1tOy5XCglTm04lZfiKOe53te7HAT8hSJWKjCeFTXz9fhW287SqvxhcQxz98o31Y/bEcQYFqSwfeGchfcKZQHJDQQHfV4i7gIHGPuplaPoXRhzgmbwQU99jXQ6fdTKzXECp6CpGh7G82TJmoEdnphGEfz8GeYhDATcAsxRtiHkB5US7xkEqSKljnXiZhNlxXgsGGxB394E3fYL5NF6QMQjGueaFoC2IPhdP2wzLdN9A5HJXkpg5y6rLuirny/bFHAMD2WQwAM9O9PVJ4vLeCEx5P+ZUqxAEJYVSzii45wqiggIuA+9+j2weOzlYZguazVkHEBzTnfWE8bw8Xc4vPrhnYRWDe9YsVoKn/c/LcnDzQHDPv/hZBVcZWE9AdBwTx75o9xU/jq/i63PWsU4r1vVzQn+nPK3T1+M8rd+XchgEd2peTf3p4xHD6VHOPgTlOeK4GOMsId5RTNwxwjPPLC4I6tDWWrnxzNN9zOtPX94PI/cmqzSUAzu5n/BwPJf00+do654kaskZIlzFCHE8xrhejMcN5TkmoK/Su00IrYw8RFt2JxGsJBxdGoIyg15C9+5NzAjYByPWEn6zTpw8axeAMru+asuuc+cLvnIjP/hkx8/V/qKudlwp28sFBqoAmQh+iLgMZnIyMcvM27gfbhEQbW1g3AdXh0uZrinG7Tld9rXNhA3raMmYF+giZwtxJUd3ZwyO/Os3sCtSlYM3XuTzSd6+3W67XkncmvECWLVpM71JfVaskRG47Pj+OLvteuX0saN60bJP//r1qRhb2hyJ3OJSObRv2RKlWDI2iiwmkEOrVxk32y0jHe3po9b32dgIrIwQe0XEGgJwJTAT+L1DzEzsU9z4L1/D0cGDAzh2w6ETKhiiWd16GzTtGAB4KvCDn8MRxmHi7crX3lVdmIlGe9mZyuN4KF1gvYDZP1ezmDD/h8WIK5k0K1K9ACIzxT0ccOwtTvWG4JtPjF+qolw7HqeDEGLWy0zS2QIjt+TM2Ysuz9N2H7iJw+BNv5pzcDpI+NYM10GzYxexIsmTWRhP7x9YIEA2sLWPmcBSAcoAR2leN6OvsNhxJVt3pyif7sbZWDi4Ot7ddijjYJKNGejsRH9P10Wb/xYjZ7uZ4PsP6x4MxhyVEyifm/edWX883YZZ6qEcsA9+8EjFi6CScCUYkhnU09N6siuXX3yQ9QXi6p5Fv9zdl9mdV27sH9AlVPmmI10wBKlxYZXjyjoCgSohq9w8C5Bu1GhGrg6w4D+405kJ3OoQYBPzSDq+jLGcVc9KKNNyU2DK7ypuDGJF6ZSvMXH2v2Haas3VvQVLJQSTRYwlsyCsuXlO2dV9lt/dFy3iFNv8t3Tp0uyK53h/OFtBwCKzfaNqXtW1NjpBxbjyJjimVw1kUxhKq6HdM94zZizdqfpiPASxJxCjYn/iCdN3FZRN5gwkB5MyXCCNx1bjlJ8QxOUwE7i1mAn6BNcKKG8QJ8NRsL2gSH7w8fXcr3gFBTJCNL31DhU7YjlbPDgO4FN2xlDc0sWm/HQqyj0L5jvt3zb9ZzWod9phsqF8Nc/NoHxpE8qSZa+Poe2//UJz7r6NzpgoBlJ2xNCWKd+o3oV072nXy/aPP6XWV/73Lbpw2v6H7+zxVM7+8Z5y7Wj78BN2x1WsFaKUP4iZcdBh4H8uPZ12zJ5pV96KldKV/VWq2HSOABzx6UdOLjZIhTrvoXsJ19ooVRo0ovrX30CHItZQ5I9TjLvUMlxr/rz/LuXSg5SkuSETJ06kgIAACmSl2YwZM3KjiXyvU/tTe9uRIP+yboNfuapv8h/bnF5k4K6hfYKRes0oX8+Ooq73/0rfzNlm6qeOgTZ8cPFyZxYsS9f1M6fobHvXNOpw93TTTBi6nPETfuB4QbrFJD+9sZzZMmZaMQjrxu4T2Qm0+c/c1loN2l+btFrNzBqPQaT6ezjw5c0vzFMva8Z9WEY6yQlTN6oUn6+w9QQEs4h4KQSfN79eq7YZ/9OzVX+tjjNuVsvKJNckS4RTQR83QEn0FafVcxQEvANz+Mxj8GGFIPsJFECT2C8aZsaOMuXPaHrw3UX0+qQ1jrvs1r25f3pzpg0oKeBis3zTIbt6sALLFsTEmMWz8EZp3bCqcrdBVoCFEfuNu9TyVA7SiMHMTWxG7W0mGqfKHDZgAIU0k9d1DlMvbg67nVaHsesCBu1Iv4lBnVGgAwRvM0GkdgQ8w0Af95lRcF/8ND/GuKlALcMNCoLvEwIuDu5ex/JAvfnF537OooTr+SlbojnGX8Ag+uH3FtMtL80nHSelIFwYmI8jOOPmnUcIlnRw/bue3fy0m5pjH2FJBis7WF18z7F3HAXP0VFv/UMjX1lgWUYf3QYG5joVp96G+x0xG2CFhIDGcFtxlJw+K0+duUA3PDOXmo74iW7DeWkfMceGcrAO5dXNz8+jYS/Oc3l/rMx0PXS05rtzQGNlsfPFjK1Ov21Q5I79Zq36PfzPra1y0MPcOXTDhg3Ut29f9TdhwoTcaSSz1uM80IbbTOv6QabZj9w1Hs5xK/wrlKZGIRlKSHdlc2sfgmPWq1FZWcos3WT/2wbl3A1d6irlxPTFMU6TBVBaf/b7Jvpg2joO/m1vsdeDg4VC4ELiqIyA4mHZFueJAH2OtTLdZP5dv09vsn0u4/SlBUXyi48v52+Zi4cvjefVMS1H3ceD5d9o76J/6Zcbr1OBI8twNodju3fS0V27qN5119P2mb86dafZyDvUwHsDu3qgbPX2Hen8yZMqbWlpznrR+OZbKGbWb7Tg8YcosHlLavPQo051YEPtftdRyq5PaNELo532V2/bjprcMtK23Zc2EbTyph+n07wHR3EQzA2cUrQjBbC1Q/U27ah46TIcIHMXxS78hy7zwLv5nfdQDYe0qtVatyW0GzXtJ5o2sB/Vv2EwVaheg44f2KeUDHDx6PCfZ6hSWJitn1hAPIr2TzxNq94dS/MeuIcacPYQZNc4ye4Xu+f/SbW6dScoRhzlVHISrf7gPdvmpG0Zg4sYvgYJ69fZtmMB7VYIrmG3DS43sJLYOOkLStiwXsWUQF8OrFzO6+uofLVq1PGZ5+2OwUrn516iw6yIWPH2GxT779+KQ7GSJdQ1hvVEkSJFqfc741T6WKeDLdjw7bff2iIY//TTTzR8+HALai1YVfTnYGIIlAgFQRW/0nadw48aUsuZCWb82zUJpF37j9Gzn6xwKoKZfDOT+l6cfvC6J2fTtZ1ClNUABtCIIYHZfuStd/R9xwAfM7vvcm56RMSHywJm+/CjhQEnzEYv87+nRrZ26oNxw4xFuzmgUoZVwBweGA7sEmbcbboMJQP8Zb11HdnEg3uc15MjWnmsxIESBAN0zAJuiz2qXEMCWQmEGU3M/kNJ8dr9HZ3MYGFx8dSHy1jxRzThqR52Ly9vPdSZNnLKPQQ+7NKiut3M+I096tJXrPyBye1DHJm+S4tgjs5djLYw00iepcd1f/2rNfQBv0AHVSmrzPFNIfmwEUwxUz+MFS7dW9cgZADYyu0u5IE5BC+jOmo31vGS/dpXq7FoE53+FC/4xqCSA3iAbcy0AP/NsQ93VtlNMMDCAKY5+5IfPXFW3TuRe5KVcuvZO9rY6jZb8Ob+wQvFa/d3oPveXkj3jv2Xru9aW6VtTWZLoOUcaHE7D1YQbM/MUgHcb3/1bzUgxLlAaYFBxRoeVOFaYSZx9O3u73Wz/me3Dd8ttOOpKxPcAB7gQS1cq+54bQFdx98nfHdxrZAi9uZr6pk2icEjng0/zN9Oj49bqp4DUOZAQYLgrlBQbmNLIbh6PMIZaYZxPX0MwWknc/wK8NOSknpGLeI6Gp9DARyM7cW726l9Obl/dDv4RJpEZHbQChmr3TvQRk74rIk8TL8t2YVqlMRlBiB89/v1dooUZJR4m78TRkEMB3wHoDwb+NQcFRsErmc72Px+GSvZoATGfmN6YePxviz7ci0d24ES9q/wOHrxswxLS1fuHfo43BP43XiLB76IIdKF3RFKcKT/cE5ZiutalDNfIdijKyWHrsfbT1gL4Z7/hS1vkPYVv0X47YKSDpY4rtyqvH1WOvYLQaW15R2WoSjRFl6OZX1dR2wfpCSeOHMrXf/0HGZanZryMxbPKnxX10UnKutAWLD0ZoWSUWBd8eq9Hei5T1fQgKdmq+87rBVhxYJUxnD/gEXMkGvqGg8rEMubNmXFynn0UfOxhFUdXcNWEFBWeWsFsTfhOCHzBdxC8LuUnzKsVwN6f2oEzV8Ty1Yg1e0U4V2aB9Om3Ym0PuYwK6pOKHcUZBKLjU+lHfuPqve94dc0dAqyCZeQ+jUr066Dx+jtH1ZTu4bVVKwpKHQiY5OpQ+NqFJ+cbnrag1gpEr3vKC1Yu5eVsmlUt4afmjyLjE0idzE+oCSZx+dglISjGW3MXbWb3xlL2HZ1b1GTalevpNZ3HjimYojonUmpGZPLs1bAcjFraI+JtpF9Guti6jM/+Nh1wMOVrLPw8IDCWKxsQFUa9ttc+vupxwgz5Zu//ZoQPyGoRSsa8MVXbFkw2fS06vQfQD3f/C+t/egDVkTMVH/IaIEBfq+x77LLyBE6wxYG+9gCAzEaXEmLO+/mL3MRzp4xg9Li7WfAivAPmFFB4WubsCwYzEqKtRM+oB1zZqnzxLlqgWUGBvv1Bw3Wm+w+e7zxtlKyrJkwTg389U4oBwZ88TXV7tNPb7L7bHHXKOVOsY6tGWDBAUEgyy7Pj6HinD4oZqazpYAr6wpkGMGfUVrefa+TggLnOnzWPFox9jVWhMxjpUaE7ZBqrdtQz7f+S2XZUsFREI9kxJy/+LjXCZYWh9ZmDVKqNGxEXV98hYJaWf+yrvsxaNAggpYccVcGDBigN19Rn+35hRsDuBmsBHCc7cXMsysFBSC89WBnmjIvWvn+6sG/hoOXFDMFBQbKqPc9fmk+lJTxUMdgFIHL9IBC14HPxhwBfO6HN9CHP2/kF7oEQt70aYZZIJiI4uUOM1DupHe7mvySlKwUBj3ZLSQ7Qd/QHgLcGYN6ZXcc9kOxAauIYX3MB2lmdSDt5nev91OWBd+w4kBHQUdZWBQgrsTd19v/aGHfy1+EqxnPx4a1UINZbNOCl7+PnunJwTDn0ytfrlaDZKRsg8CC4uuX+9KrbLEBxQD+0Ge4Dkx4ujsp32AOEAr/bgz+rJbH+ZohX/r3fP8cT88wp4TJ5RsPdCLHFIFneSYEaR7NxNHSoA67hhgVFDimBytBcA+99Hk4zWNzcAyEIXhh696qhrr/s/O79/b+wb3/x4c30gufrSRYqWj/eFzn67uG0X8f5UEQLzsKgi7O+3gw93WVGkAhwwoEihYoyvBdzS7qtzrAi/9g8QAFDAafCDzoqUCRhL58yNY74Io/mNg/OKQ53coR+xEI00xevKedYv/zgh303R/RqgjSdA5jdyNYKeD58MkvW+gfHqA4BqBczco6zJY7CiwyjPcI7l/9PMnp/WNs65a+DdRAFoMtqwd6uh1f+SDlqZGBrg9WSUbBc8FRQYH9cA2rW9OP3mDFJDKsaEF5PGMfubmF3mTJpy/X0rHhXvwsh+k//NBxzVvy4N+dwGLwz49uVFYwUGysiUywFW8UVplevqd9rmSEgkn5/0b3pKcmLKP/cQwW7XKBPn/6XC8nxbytU7zgzbPSeByWkd4akwkY8OOZj+eL1QJlzujb21AnTi0Kyzgo1bWyGW1BAXMX/3Y9yfeQWUBPPO8RAwW/ZT+xpSOeRxA8WzDxgJgvOmZAxp6C8b9WUNSrV4/69++fa50CjtWcIhSKoHo8GPdG4BaCsUznptlbcnpTry9lawVWoE5Nqqtzmb1yF93Vv6mtGlzfx4e0oX/Xx9FCtmj4Z12cbR/uAyg3emVaS9h2ZC48NrQ1TVu4ndaxcmPF1ozfhkC/sjzIb+RkrWs8NiSoIj18Y0v6eWE0RXF8D/yBVVdWlvRrF6b6aSyvl0+eOU9wmzETKEWMgngbWkFxhBUSZschNodRoKxwVFDkBx9jnzxdLsKB1DK/vp4dEhUVpQo247gFhVHgsnAsdg/512+o3BM8OQek4Tyxfx+dTUsjxGHIjdSijv3ISZtQlqQdPKgsGYqXLkVwxUAgTE8FsTpwvn512OyW8xR7InCdQYwLtO1fr75SUnhyXE7LXOZ4Dql7ecac3VoqBNek8sGePTgREDR1714Vc6ICH1OhRvaDzJz2FccfYaUWstVUruz59bCi3SutjlHsogAFyJzxN5D2O4VvKVIMIg2ZO/cMIwtYWmAWCDNdwfyymV1mBuOxiGWBF8VKHCQtO8HMMF4kZ7w7UFltZFde78dsbcdR06lNw0D6/o1r9WavPzFjCXNqnB9e3tDv3BDMyhw6clIFIoP5rdWDX8c+N77lRz6XIhQ57Q61C+1jlgwWFbVZuQClQW4KzNWRmQXWAnCTwIDaU/Hm/jHWqdvELzeUABiMeyLw6UZfce3r86yi1bO6ug+YWYX5NwYZj7Kiy1sByz0HU6kI/4OVgacCpebe+ONqBhv3Xm5fe0/75a7c+z+sV4MwzLK7it/i7nhv9uUnHygNd7J1HNwo8PwxG1h6cy4FsSzu2zh2L8T3Gu54UIzlheB5EB17VLUJV0lXYtWzEs/YA/xbElKNM9r5+Hy9cfQfyqppxVfDVb9d9Vlvh4L/IP++wwoQbHUmAr3f1SdiWezcn8pZWco6WQu6Oia/trdt25Y2btxI48ePp9Gjna2treoXrAM+nrGBbuxaV2XE8LRe3GcvTVquflefGOreQtDTOvOq3DF+L0TcCTx/qrKywUyZ79gX/F4eSk5jhWVpW7ySKFYYTJyzWSlo2iLsaQAAQABJREFU7ri2ieMhah3fD7hZpXGgTQSkRJsFXaziY/V5XhUWFEZoyOIAlwZvBAqJyjzozkvJSZtwd4A7hqNLhqf9LxcYRPjzRoqxtYRjEE1vjve1LFK+IoWqt4LYJDiuch5b+iH+hEjuEMCMjo6F4GkLGMhiVsgX8XQwih8suEUg6jtcSrwRzJRDSeGpqbyrujHT52t8EFd1mm2HZt6X62BWly/b0L6jW48v9Xh6DF6UdbA8T4/R5Ty9f3R5/elrm1DaaWWeris3Pn/lOBJ4AfQ2HabuC471ZWYWM/M6iKmuqyB/YtYbliZQ4nnr9uXLeeUnHyhx2zfx7p3Cl3PMz2Nw3+IZr7N75FVf8DyA65a34uuzEsdpyzlv2/S1PNw78OetYHDoaDXlbR15UR7B0zH5i9Sbo0aNytUmEUMC17BTE88m83RnNuxIJCgpujSroTcVms/K7F6MP28Ev5dh1TLcKbw5DmyDWCGGv8IiecnHGya5M43mTQ+krBAQAkLgCiYA1w6YjPsyQ4p4GZgh78fpRUWEQEEngBnLBavjlBuMu9ncgn4eedE/xIhBLJihHBfjSrQoyAuG0kbhJQBXGnlGZFy/6OhoOseW2iNGjCB/D62Wfbnyp9kNctOuRGrCsRYQk8EbgXtHOY6H0LKu98owb9qRskJAE7jqLCj0icunEBACQiAvCFTnoJCTXupNHdmn1huB5cXDQ5sptwxjkEdv6pCyQiAvCSAPPHzjfbGAyMt+5ldbCGyIWBmQpGOnlPXEgxwcVEQIXIkEnvhgKe3kbCiOAheRQRzEOrfczBzbK+jrfn5+NHnyZOrdu3eudhWpre8d2FylUvemIX4VoWvbZ2Rkyi33UG/6I2WvDgKioLg6rrOcpRC4ogggGBgCdSFgVkEXRBHHn7cCU8HsgnV6W+eVVh6BBRGDQqRgEIDbityzrq9FCY7/AbcyZHpoXq8KPTC4mcpq4/oI2SMErCGQH89KmMnjfjcKLCceGtKMUz+HGTdf1cuhoaF077335joDuLy08MECgl9FfDou108ojxsozamTEQwTgWJFcp/AVRckM/eRSgtCQAgIASEgBISAEBACQkAICAEhIASEgLcEJAaFt8SkvBAQAkJACAgBISAEhIAQEAJCQAgIASFgOQFRUFiOVCoUAkJACAgBISAEhIAQEAJCQAgIASEgBLwlIAoKb4lJeSEgBISAEBACQkAICAEhIASEgBAQAkLAcgKioLAcqVQoBISAEBACQkAICAEhIASEgBAQAkJACHhLQBQU3hKT8kJACAgBISAEhIAQEAJCQAgIASEgBISA5QREQWE5UqlQCAgBISAEhIAQEAJCQAgIASEgBISAEPCWgCgovCUm5YWAEBACQkAICAEhIASEgBAQAkJACAgBywmIgsJypFKhEBACQkAICAEhIASEgBAQAkJACAgBIeAtAVFQeEtMygsBISAEhIAQEAJCQAgIASEgBISAEBAClhMQBYXlSKVCISAEhIAQEAJCQAgIASEgBISAEBACQsBbAqKg8JaYlBcCQkAICAEhIASEgBAQAkJACAgBISAELCcgCgrLkUqFQkAICIG8IXAwKY32Jhz3urGUE2do96FUOnf+otfHygFCQAgIASEgBISAEBACQiC3CBQ6BcW59HSadfsttPLtN21MFr84Wm2zbSgAC+Hvv6P6lBq315LexK+LoOmDrqXfbx1KafGHLKnzSqzk8KYNivvGryaanl5huX9055/7ZCXdOuYvvUrf/RGt1qP3HrVtu5IWZi7eTb0enkn3vb2QLly8lGuntnbbYcXxt0W7VRvpp86r9be+WZtrbVpd8emzF2j89HW0IML7Z8x38yPpq7lbqGjRIlZ366qrb8aSHfTq5JU0d9WeQnXu5y9coo9+XU+T50UWqn5LZ4WAEBACQkAICIErm0DxwnZ6ly9eoIT1EfxinaVbORIVRUd37ShQp3J05w7Vz/Mn0y3pV+zff/E57lR1HVodTo1uHm5JvVZVcmDlctow6XNqPGwENRw8NNtq59x9G12+lP3sbZsHHqGQHr2yrU8XOJOaqrhXCg3Vm+w+C8v9ozu9LTaFduw7pldp/+E0WhedSGmnztm2OS5M+j2Slm08RPff1JR6t6vluLtAr/+2eBcdSExTfzjvpnWq5Ep/U9POKo5dWlRX9Z9nZQi4FqYB+7qYw4RBZpdmNbxilJByUlldXNM6hIoXy3qOelWJSeEf/t5GR9kyw1FKlihGQZXLUqMQf2paO8Bxd6Fev3jpMi3fcpAuXb5MyzYfoBu71i0054M+w4qmSqUyhabP0lEhIASEgBAQAkLgyidQ6BQUV/4lMT/DBoNvouSYbVSiXHkesPc0L5SPW0+lJFN8xFqq1aW7R704dSSRLl3MUlCkJ8TTxXPnqHz16lSsZClbHedPn7Ity4JnBGLjjxMsBG7sWcezAwpQqbsGNqYzZy9S3ZqVqFGYfwHqWcHryupt8VShbElq7uWgH8dBujQLtvSk4g6foMSjJ03r3MZGHos37qe2DYNo1IDmVOQKMdwoxhYo13WsTZGxSdSuYTXTc5eNQkAICAEhIASEgBAQAp4TEAWF56zytWRg85Z000+/5msfrGx85F+L7Kr7dcj1lBy9ja779EvCuYpcnQQGdAkj/Im4J4DYE/sTT1DfdqFeWX1gxn9tdAKFVqtIwQHl3Tfi494xd3ayq/v4ybO0ZXcSLVi7lzbsSKSGtfypa3PvrD587EqeHHZ95zqEPxEhIASEgBAQAkJACAiBnBOwzr43532RGgoxgYtnnE27C/HpSNeFQIEmEB6lrSC8G+hH7kmi9NPnqEtT747LCYxK5UpRj5Y1qWerDHejlZESQycnPOVYISAEhIAQEAJCQAhcyQSuKguKC+wusGveH3R09y46c/QoVQwJoSoNG1O1Vq2pbNVAp+ucfjiBDqxaQX6hYVS9XQen/cf3xVE8x8Oo0qCh21n/Sxcy4mYcXBNOZzlGAiwEavftR6Uq+TnVeZJdH/avWOa0XW8oWa4c1b3uer1q+nkqOYkQEyJpW5Ryowhs2pxqdu1G5atl+NubHpS58die3cpVI2n7NioXGEi1unanwBatqGixYnaHJW7ZzBwzYmJcYOVE9C9T1f6kbZG0faazpUe9AYOoRNmydnXkZAWc9i1ZREf4HMtXq0Y1Onamaq3b5qRKj4+dPXs2RUREUO/evalv374eH1dYCh5ITKfVkQmE+BeIUdCsbhVCrIYgf/Prt3V3soqT0b5JEIVVr+h0mojtEJdwgrq1DKbqAeXs9q/cEk8Jyc5uATUDy1Pn5tnfr4c5nsKfK+PoIMetOMVBI+vX8qPGtf2pTcNAKlv6yny8qXgZHH+ibg0/FdvBDmg2K+FRh6hk8WLUrlFQNiWt392mQSAHktxNR465dtvaeeAYxR0+TolcJtCvDIUGVaKGof7kziMEPLbsPkL72MUE5RqwhUaDWpXVvbt2ewKV4hgYbRrYn29kbLJS1GA79jvKxp2JdJYznHRsXN3JQiWC64QliqOEVatE1avY39+6DM4nNj5Vr9o+W9cPotIli6lsKnCROZZ2RsWzaFUvkMqUcr5/reRj64QsCAEhIASEgBAQAkKgABFwfgMqQJ0z7UqRomqgXdo/K3he2apV6Vz6CdPieiMG7P88/TidPZFRrljJkirmAfYXL12aOj/7IjW/424yOken7IihJS8/T42G3GyqoDi8cYPa3+reB1wqKC5fuqTajf1nge4K0bSfqOIXtWjgl5PJv36DrO28dIyVJ2jTlVSsWcutgiL2379pyZjn6ezx40qpUISDiUad/4FjV5Sjnm++Qw1uuMm8ag6YtvGbLynio/F2sSHWffoxla7sT0OnzyS/sNq2Y3f9OYe2/vCdbV0voH38OUrNzl0tU1AgU8dfjz1Ip1NS7Jppdtud2QfU9PH+0Q1t3ryZhgwZolbHjRtH+/fvp+Bga335dVv4DOBB2vH0rICYFcuXpGo8CELgwdyQ6f/spLGT19KZc1nxQdBOxXIl6d3HutJ1nUOdmp2/Ko6+nh1F457oZqqgmLFoFyE7x9dj+jgpKKZwVpIlGw461dm/U2i2CoovfttKH0/fRBcvZgwWwUSnzYQiBP3RQTAdGyhdsrjiWL5MCbWrKAdFANeASqUdixa4dQzGT505z1YQ3t13qelnKXrfUerQuBoPivP+0V+Mn0WQi/xMxBUzKh2gXPrpn2ilaEAZKFHOXci4B5uGVaE7+zdV8TawzyhwH0E2EgzutSziWBdwYXn4xlaqTgSBdFRQ/LU2Vik0oMwwU1DMXrGLkIpVKTCK2n/Xpi2Ksd1nuk18Dr+moUsFxa6Dx2jawu3G4mq5HiuZ9iacpu8XbLMLfAtlh1FBkVt8nDokG4SAEBACQkAICAEhkM8E8v4tNYcnXKpiRbpr2Wq7Wm787ie7dccVDGQXPP4wnT9zmrq/+qayCsBg+8LZM2wBsY42TPyMVv73LfKrXYdqdevheHiO1lePe5eqtWlLty1YzAP9ynQsdg+t//x/bOGwguY9OIpuX7jczjqharPmdNOPvzi1eYH7/ucD9zhtN27Yv3wpn+dDVJ4HzH3en0BQChQtXpzi162lpa++RAuffYqVMWWoTr/+xsPU8qbJk2jN+PeVwqTby68pqwltpbDmw/fpr0cfoGEz5ihFBw5ofuc9XM91tnr2/D2fIn/63mUWj7IBVW1lc7KANKHgcC4tjeoNHERQDlUKCSX0NWraz7Tpm0luq/fl/jFWePr0advqJR5onePAnrkpP7xxrV31T49sTfjLDYEiYczEcKrHVghjRrWn1g2rcqrPyxTBATff+XYdPTZuCX37aj/q2cY694Dn72pLDwxpZjudmL3H6C1WkGQnS1mp8eHPG6kqK3DefKgT9zWQAiuX4Rnos7Rk/QH6aNomenI8fx8+uUkpeRzrwzms+iYrE04lVvwY1x3LF6R1uHdg1t1x0J1dH9dwcMzLrIj0NutHdvV6uh+BJCFVK5W1U05AWfH575uU5US3FjWof4fa5F+htBqw/7MuTgXX/HzWJnrhto5G/bGqa8pfUUo5USuwAt3UrT7VqFpeKQ+2sivLT/9sU2Ws/u/xIa2VlYOuFzE9dOBRvc3xs3mdAAoanmXhNX1xDMH6B6lif2TFTAArUWA1oRVHWnGGegobH8dzl3UhIASEgBAQAkJACHhDoNApKLw5OV0WaUmRDaLudQMzrCQyd2CwHsIKiVpduhKsIczcOHQdvn5COdHx6edsh1dv045umPwjzbptOCVsWEewRDCm5SxVsRIFd+hoK68Xzp88qRdNP5ERY9V7bysFBBQcsLTQAkXFoK+n0C839Kfw99+h0J7XcKaMkno3W5Ucp42TvsiwlJg2k0pWqKD2lSxfnirXqUuXOB1o4uZNyioDlhgQKAXwpyWZXUIgaNes/7pcTj+jpv2olBNwc7n2o89s1cFdpsdrb9Hil55VaUZtOyxe6Ny5M3366ae0du1a5d4RFhZmcQv5Ux0sJjCoh6XE1LHXcerBLEsCWDM0CKlMA/4zm97/YT11bx1MsDiwQlCvUTytF2lUIY/d0pLQPy2VK5SiodfUo15ta1JK6hlT5YQuWxg/U46fpp37j1IXDjLpjRUNBrnhrKAI5HSfmLXPS7nE7hBwTVjKaTghjtlD1rO7Ctw6unOcilt7N7J1DRlKbu7ZgE6ytQiUAHBPMQbXxDGo179iaRo9oj2VKJ4VUumaNiFUpnQJ2hZnb2VlqzwHC3CtMQpSdWYniMOBPy1lMi1Y/gjfQyP7NCYoMFxJYePj6jxkuxAQAkJACAgBISAEPCFgiYICs8gJCQl0gWMt+Pv7U2W2FPBUkpOT6Ti7I5TkAXN1TjFZnGf8LZfMwVRJTtFpJkXYhDc3lBNoK6RHL7MmqfX9DykFBVw/jAoK08IebDzE8S0QP6LJiNvslBP6UFiH1OzSjfYtW0KIHxHcPiumxp4F85XrS5sHH7EpJ/Rx+GzzwCPG1Xxd3pvpKtP6gYdM+xHS4xqK+f03031WbXz88ccJf95KGlt9JCUlsU97UQrk+B5lLYzJ4W1fHMvD6iAx5RTdOaCRnXJCl6sdXJGuaVeL/lmzjzbvSKI2jQL1rvz5zNSPGGeajR3BoBV/BU1gwRAfH0+wxCnHyj4887wRKBmgbHAc5GdXB5QaUG4M7lYvu6J2+315Pk+cvZmKcewSLQjKCUsBSIu6VVXATL0Pn8u3ZCguBnC6TjPp2bKWUlCs33HYTkGxeVeGRQaCbxqVE7oOuIYUdAkNquhWOYH+X818Cvr1k/4JASEgBISAEBAC1hOwRBuQmppKp05lBD7DAMxTBQVM5PECjJd2KDlOcHwIKDislhodOynXhO2/z+C2LlFor97kX7c+B8kMtbMksLpd1If4FmZSuU7GQCEt3pqI9ohdASlbJYBS4/aaNUllqmS8sEORYVRQ6PK6T6YHF5CNmpd/XfOBliveBaH7KexqdPbsWdWVoxyktSApKPbGZ/jw1w6u5BIVlBQQlM1vBUWf9rXoh3nb6Y2v19DuA6nUsVk1Qt9rBJazzLrDJYgc7MBzEs85CJ6beN6VKpU1s+6uan5MEtw0gquUJ8Qo8Eag2ChatAh1auJ53Apfn8/QB+MPlhPJrBQpwiuwfGjCCgO4MThKArs6IN7CWbbiOXIu43fEWCZTv0yHj9pbkR1Ny3C3quZvHpjSGwsTY3t5udw4NHslytXMJy+vhbQlBISAEBACQkAIFAwCligoShsG4Z6+bOP0MZNcokQJmx+/sR4r8cD8/8YpU2nxi6PV7LqeYS/CmSkQiwIKCwTIrBBsnW99dv0vXraMKpLOlidWiFYyrP/iE8KfO0k7lDFjqcsgGwlE90mtFMD/Lp0/T6cyA2PCPaewCb4bOoZFbt3rvjLZfzhNHVqhXEbQSLN6KpTN2LePM3LktyAjyHuPd6VxP2ygL3+PVH/oE2IzNArzp4Fdw2jktQ0LXCYPWIpp0c8/vZ7dZ/S+FEKgy75tQ7MrarcfARY37zpCzWoHKBceu51uVnT/dJwVT+/Zhwe3ouCA8srSY/y0dcp9oyEHozRTThitK96cEu6mN0QnTp4jZOwokWmdgXgjEATULKwClyp3crXzccdG9gkBISAEhIAQEAJXJgFLFBQVOXAlXl7P8wDS21nh2rVrq0EbXtyhrMgtCWrRkkbOX0jJ0dvoSNRWlS0Dg/ojkVto8+SvaMes32jwD9OdsmrkVn90vSXKWDPQ1ik8W95znwoCqus3+6xgiE+B/SXKms9Amh2bn9sQ8LMY/13k+6wwCsz5/fz81Iyyp4O9vDpPnZKTjZpcis6sWC4z84XLgnm0Y3if+jSkV11aH32EovemcBrHExR78Dgh7enmnUmE7CI/vtm/QCkp8Ixr0KCBeuaV4e8+lACeymqOwYC0r+059aU3so7TYl7ggb0vwTFz8nyGF86wXg1o/PR19PvyncqVwdGqAcoFlCvP8SaQqSM7KcZWIFpKlvCcnT6msH0Kn8J2xaS/QkAICAEhIASEQE4JWKKgQCegYDDODnraMbygwxc7rySgSVPCn5bLHAAy4n8TaMOXn1PUzz9Qjzfe1rsIFhaQ86fP2LZZtXAq6YiqqrxFVht+HMwSAmsRV3EvVAGT/yqFZszInjqS0SeTIgVjE9t6l6seTCf276NTyUlUtqqzuXjB6KjrXmBQWhAlLNN9I9HBjN7Y10Q2xYfosnqfHjTqOAN6e158YsDeqXk19afbSz91nh7ljCOrtsQTsn3AmqIgSTF+rpTnALTeCGbSkZmiJbtIuIq74aq+VazYQIDGprWzdydwrCOnz+fa1StR+0bVaB0HwlwQsZdu7FrPrgkoLPwyM3Y0DvX3yj0HmT4gJ05lWFLYVZzNig7GqtPSZlM833bnF598O2FpWAgIASEgBISAELjqCVz5U1B8iS/ztPCZ1GOmFxsBMpvcMlLtS9kRY1emYo2aav34/ji77Xrl9LGjetHl58nERNN9CZzeFFKZg1daIYHNW6hqDq1e5bK6+HURdJpjHzhK1abN1KaEjesdd6l1ZAiJW7LIdF9eb0RWEQjSw5qJK95mZXOyTceSyEkdBenY5nUzsghs2ZXssltbd6eoAWTj2v52ZWoGZgy292W6idjt5JVjJ7wfQDrW4biedorN/S+Ym3uUZ1eUwT0yvlcxcc73u2Ndvqzj+i9atEj9LV261JcqvDoGWSwusgmLt8Ex9yeeoENJ6dSxSXWvBv9edS6bwgjMiSCWizbsp6RU5xgTYdUqKguPPS6yYcCtI2qv830ZlBl7wlUWjdQ014plHUA16bhzfxDrA24xBUXyg09BOXfphxAQAkJACAgBIXD1EbjiFRQYXC944mGaNrAvHVi53PQK6+3+DRva7a9YK4SQahNuIQcdBv7n0tNpx+yZduXNVrZ89w0hdoJR4Fqy/otP1aZmt99l3OXzcpUGjaj+9TfQoYg1FPnjFKd6kCb0z/vvotl3jiAwMUpYrz7KqmT3X/No/4plxl1qedV/36L5D99HO+b87rRPbyjPlg15Ic0zea358H06mXjYrklck6ifv7fbZvVKOrfRunVr5crUq1cvuujA0ur28qq+1g2rUvdWwbRo3QFaGLHfqdmpf++gSHaduIldKkKCMtLQ6kJN6mTMzP++eDdnirAfFO7cf4zWRFkTZ0W3h2wjNz8/j4a9yPerC6XISraegDQM9TyjkK7fk88NGzaoNLN9+/alCRMmeHJIjsqER8UTLAYahXhnBYHgmBBvFRs56qzDwZW53/3ahSklxG/LdjrsJbq+c12lPPllcYyKM2EsAGXBlPlRhMwgsMIwCgJ+wgUiPPIQ7T5or4Dmw+if9fuMxe2WawVm3MNLNu5XwTyNO9dGc5aVAqSgyA8+Rh6yLASEgBAQAkJACAiBvCRgmYtHXnbam7aKsjl1/UGDCWk4/7j/bqrRviNVZWsD/3oN6MRBTq24ZSMrH8KpNLtGtLz7PruqEfOg/RNP06p3x9K8B+6hBoOHEmbwT7J7xu75f1Ktbt3J0erCrgJeCenZi6Zdfy3V6defSnP61dTYPbRr3ly6cOYM9+tGCmjcxPEQn9c7P/cSHWZFxIq336DYf/+mGp26cJaSEkq5AuuJIkWKUu93xhGY2Am7TnR/5Q2a9+Ao+pPPs/7AQRTYohW7USSzwmIppcRsV24jDW4YbHeYcSWkew+VsWTP3/NNs4h0fXEMn3/WzPvS115GmH9bFemcehGyYeJnVMY/axDWcOgwqt6mna0c3FdqdOikFDHTB11L9VgpU6lWqFJWxC1dzClbh1DKzh228lYvLFu2jDZv3qyqxfLWrVuVwsLqdqyo75vZUTR3WazLqp4c0crONeLlUe3p9lf/poffW0wDOocRlBaYtV8TdVi5StSoWp5G397aqb6W9QOoL2fVWMjKjYFPzaGbetahAL8yPGhMZTeLBOrSIthU6YGKJs/dRtsNVg4pqRkKjsg9yfTsJytsbQVUKkMv3p1xH6Du/p1DaeLMrXT903OoS/Pq1LRuFUL/UNe66ESK2pNCLeoFUG/uV27Ipk2bbNU++uijtuXcWNibcFxlsBjYqY7KjuFpG7AwWc+D+vo1K1NVv7KeHpYr5fq1C6VwdjWJik2mbWwN0ZQDdmqpXqUcDehUm+atjqWxP6xWLiFBlcsSslds359CyamnqXX9QGrXsJo+RH3C1aUv1zt/TSz977eN1LpBINWsWoHOnr9IkewO06mpa6VpD05dumTTAdp54Bi9PzVCpT+Fu1BsfKoKxFmFU9SmnMi4F+0a5ZWpC7crZYvefjApTS1GcKwPWKxoAffOmX1AO2tY8aFFW5LMWrGLA7tm/QzD0mRkn8a6mPrMDz52HZAVISAEhIAQEAJCQAjkIYGsN6M8bDSvm6o34HoKbNac1nw4jhK3blaDW92HIhwDI+yaPtThP6PJz8TdosVdo+gip0Bd9+lHtP23X9RhJcqVoy7Pj6HinJUhZuYMXZXpZ83OXalCjVq0etx/SafILMbxOhDMsssLPEi3UGDFMGLOX7Ri7OsERcGhtatttVdp2Ii6vvgKBbVyHmCiUPW27Wn4rHm05OXnaM+C+axE+UMdizgc9QYMol5vv0dwh3ElxcuUpes+m0RRU3+kXX/MdrLS6PCfZ1hBkXV0DLN0tOTA3r2L/s0qxEtBrdvYKSiwc9A33xMUHGhn27SfVflKobWp55vvKMWP2pBL/3Xq1ImqVq1KSKeLAIJNm2bFM8mlJn2uFulAdfpQs0pSOAWkURqEVKZ5Hw+mlz5fRf+s3U/zw+PU7lIcJ2BQt9o09uHOLrNAfPCf7vTm12tp9rI99M2cbeo4uH58MronTf/XedZct7t6awIt4TgRjhKfdJJmLdlj2xxWvaJNQVGsWBFWlLShTpxa9KtZUbQh5ohSjujCZUoXp7uub0xP3tJSpa/U26381AqKevXqUf/+/a2s2qkuDOyRqlMPdp0KuNiwaVeisgTIT+sJ3TXEUoCrx/cLttFvS3eyJYg/FcvMxoEyUL6EBFWkGUt30LLNB/RhyjWkW4saNLxXQ1PlzPWd61BZTlE6N3wPbdiRqP4qcMBNKESQ2nSmicUGKsc9/eTNbeiHv7fRvsMnSCsZ6tXwo/sHtaAPpkXY+uC4AEsOs9gVqAd/WqDw0NfsCLu2wE3HUbbsTrLbBGWFo4ICBfKaj12nZEUICAEhIASEgBAQAnlIoMhlFm/ai4qKUsWbNWvmzWEFquzZ46k8y76TSnH2EaQWLVnB3mTdrLMX2ef86O5ddOnCBba+qE9QUngrsNhALIyAho2pqJcZS86fPElft2lKFTkDxx2LsmaWXfUBwT9T9+5VMScqBAezkiQjnoar8sbtONeUnTGEO6NSSAiV9jNoFowF83kZViiwYClfrRqVC7KfXc3Nrl1iy4/Y2FiqW7euGjjmZlv5VTdm33fsO6ayRtSv5ceDySIedeV4+jllOVGudAny5jiPKndTCHEWDiamU6B/WQquWk4NQN0Uz/Gutm3b0saNG2n8+PE0evToHNfnqgJYA7w0aTnVDq5ETwxt46qY6faPZ2xQA+93H+yhBvqmhQrgRsR/iE9OVyljYfkBZUJ2cokfVofZ4gKKHFgcQMDumc+WUBW2vnnr3q4uq0DqVlg0+JUvle+WJi47adhhFR9DlbIoBISAEBACQkAICIECQ+CqsKBwpI1MF8HtOzhudrtejK0ldDBJtwXd7IRyAX95IbB2qFy3Hv953xrONbB5S+8PzOMjinNq26CWrfK4VVKpITFzfiULTM2bsduEt1KpfElq2yjvs6vAvQN/eSFIpwxFLTKyjBo1KlebhFUABtrepgjFgHsXx2Xo3qJmoVJOACYsImDJ4I0gK0dwgG/XH4oJ/BUWyWs+hYWL9FMICAEhIASEgBC4Mghc8UEyr4zLlHUW/vUbZq3IkhAQAnlOIDo6ms6x29eIESPI3z8rrkpudATuHbBGaVm3qlfVry4AwTG96rAUFgJCQAgIASEgBISAEBACTOCqtKAoyFf+wulTNGOYSTDKzICSdfsPKMjdl74JgSuegJ+fH02ePJl69+6dq+cKF6tr24epuB+IZ+CNNAmtQnWC/VRcB2+Ok7JCQAgIASEgBISAEBACQiA/CYiCIj/pm7XNpsrFS5V22uMXFkZdx7xOtbp0c9onG4SAEMg7AqGhoXTvvffmeoP8KFDZJXxpqB5nkLjaBfwQeLNSuZJXOwo5fyEgBISAEBACQkAIFBoCV2WQzEJzdaSjQkAICAEhIASEgBAQAkJACAgBISAErhIC3tkNXyVQ5DSFgBAQAkJACAgBISAEhIAQEAJCQAgIgbwlIAqKvOUtrQkBISAEhIAQEAJCQAgIASEgBISAEBACJgREQWECRTYJASEgBISAEBACQkAICAEhIASEgBAQAnlLQBQUectbWhMCQkAICAEhIASEgBAQAkJACAgBISAETAiIgsIEimwSAkJACAgBISAEhIAQEAJCQAgIASEgBPKWgCgo8pa3tCYEhIAQEAJCQAgIASEgBISAEBACQkAImBAQBYUJFNkkBISAEBACQkAICAEhIASEgBAQAkJACOQtAVFQ5C1vaU0ICAEhIASEgBAQAkJACAgBISAEhIAQMCEgCgoTKLJJCAgBISAEhIAQEAJCQAgIASEgBISAEMhbAqKgyFve0poQEAJCQAgIASEgBISAEBACQkAICAEhYEJAFBQmUGSTEBACQkAICAEhIASEgBAQAkJACAgBIZC3BERBkbe8pTUhIASEgBAo4ARSTpyh3YdS6dz5i1719PJlUsclpJz06jgpLASEgBAQAkJACAgBIZBBoNApKM6lp9Os22+hlW+/abuGi18crbbZNhSAhfD331F9So3ba0lv4tdF0PRB19Lvtw6ltPhDltR5tVUy957b6c/77vL5tLd+/626psnbo1Ud8RFr1XrM77/5XGdBPvAy8WgrjyUnbfp6bF4fB6RXQ5u+nmMe33KmzX03P5K+mruFihYtYrrf1caY/Sn00a/rKTou2VURS7bn/TfT927PWLKDXp28kuau2uN7JQXoyNNnL6hrjOvs+HeUFVsiQkAICAEhIASEQM4IFM/Z4Xl/9OWLFyhhfQS/OGbpVo5ERdHRXTvyvjNuWjy6c4fq5/mT6W5Keb4r9u+/+Bx3qgMOrQ6nRjcP9/zgPCh5YOVy2jDpc2o8bAQ1HDw02xZXf/AuJW7dbFeufFA1qtq0OVVr256CWrS022fFSsKGdVS0uO+3/PED+9U1PZeWprpz5thRtV6zcxcrupdrdUTERtJP4X9Q8f+zdx1wUZzNe5SiIiJdQDpiQ7H3GjX2aKKmmB7Te/JP8qV3U7/0mBhTviRq1MQSe+8FewEBKdKb9N5B/zPvscfe3R7cwdF0xh/u7rtv22f34N5nZ54xM4cnb7oT/F289I5VVlkOy49ugjPx4RCXmQwW2Ma/myeM6zUU5g+7GdrhPyV7b+MPkF2Yp3RKXfb0lLuht6uP+ljauXrtKqw5sQPOJYRDWMplMG9vBv3c/WGEbyDcOmSyVE1xezDiFBy4dApCky9DQWmR6D/QoxfcO3o2dLLsqNiGCvNKCuGv41uxXTREXYkHpy52ENDdH6b1HwPDffvrbdeYuUamxcHGc/vxGqMhOScdvJ26Qz8c8/bh08DD3qVJxmxL+OgFoJlPkPdDXFo+3DTIEz8ztX9nDJlGUGgqmCGpMbyPqyHVjaqTmF4AR0JScG55kJlXCq4OncHHtauYp7OdlVF9GVP59x2hUFhcAc8tGGxMM1G3+uo1OBycDFfRteTQhSSYM8bP6D5aWwMih3ILNYmIfMSnqvoqVFYZ53HT2q6N58MIMAKMACPACLQGBBq+WmsNs7+B5tBz7q2QFREGFp2twXP8hFZ35SXZWUAeBR6jxxk0t+yIS6K+duWoLZtE0dCnnoPhz70I0E55Qazdjo+VEVh1fBssO/A3OFjbwofzn6uTnIjNSIJX//kKruRngb11VyQJekD11asQg+XnEi7B0ahz8NGC56BzB93F0OnYUEEQKM9CVUoEgrZVIuH47r9L4EjkWWiP99rX2QOo7FjUeTFeVHoCvDLjIXwMdJ8DIhh+2v+36NKlqyP44IKfCI4LiRFwOu4i/PeuV6BrJ2vtISG9IBte/OtTSMq5Ah3MLZGA8RJlu0OPwd6w4/DqrIdh5oDxOu0aM9ez8WHw+tpvoLSiTMypFxI1RABFX0lAguUkfIFzpTJta8yYbQkf7etuyePjYali+NH93IyaRnFZJYTEZEJ/XyfoYmVpVNv6Kkcm5sAy9Ogox5CTzh0twLNbF0jNKoakjEI4F5UBT982EMts6uumQefjkazJ0VqQG9oRkTXTR/jAxdhMGNpLPwlnaH+toZ5VB3P44OGxGlMhTwoKCWJjBBgBRoARYAQYgcYjwARF4zFslh6c+w+AW1f+0yxjNecgs5b9D7wmThJDFqYkQyp6xxz76AM48+N3UFlaAmNee6s5p3NdjUXkxNL9a8Tb+e/ve1OQFPoukIiIxVuWCXJi0fh5cN+YOcKTgeqXV1XAj/tWw4Yze+EP9K54evJCjW7Ilb+orBgGefWB7+59Q+NcfQff7l4hyIkB6PXw8e0vgE0NoZBZkAMv//0FbDl/AJzRu+HBcbdpdLUv/IQgJ4h4+XLhK+Dn7CnO01w/2/ob7AkLgnfWfwffas2H5vrSqs8FOXHH8Onw5OS71NcZjMTGq/98DZ9u/RXc7JxhoGdvjTEbOlcifF5Z8wVcw7fI7976FEwOGCk8Ueh4w5k98O3ulfA8Eibrn/0GyZ9OJhmzLeGjccEtfEBv/E+Gp4GXiw24OeqSW3VN7xS2o7foxhIbdfVJ5yhs4MeNF+Aqzu3+aQEwvK+r8GPCxwf2n0uADYej4bv152DxI2Oho2Xr+5M+a5Qv0A8bI8AIMAKMACPACDAChiBgnP+qIT1ynRsSgeoyTZfXhoDQpbu7CA+Zv3YjmHXoAGGrV0JZXm5Durrh25yICRaeE662TvDtPa/XSU4QWBQKQG/zh2F4w0NIBlCYhWTkZfD81PugB4Z6rD+9GzLQA0FuJeVlwoVbyVtBXk97n7wJdocGCVLiCyQZJHKC6jnZ2MPXC18VISabzx/E/q9qNN94dp84/mjB82pyggporm/PfUJ4RZDXR2J2mka7CwkRkJCdKsI4nr35Ho3rHICExOu3PCr0ITaeU/UvNW7MXLcHHxZeIQ9PmA9TAkapw2TIK2T+sKkwD0NnistLhPeGNB5tGzNmW8JHfs0tvX8RPSCKSitgdEB3o6dC4R221h2gj7eD0W3rakAeHUR8kCfCiBpyguqTU9HkIV5IiHQH0kU4E5FeVzcNPldZpfnZa3BH3JARYAQYAUaAEWAEGAEDEGh9r1sMmHRDq1ThG/nobVsg53I0lOXkgI2nJzj06gMuAweBlZOzTrdFV9Ig6dgRsPXyBtehw3XO5yfEizf+Dj17AXk46LOrVSrdjOQTQVCelyfq+ky5GTp0tdVpUpyRDolHDumUSwWWnTuD3/RZ0qHitiQrE0gTIjMsFK5WV4Mz6jq4jxkL1i71x0XnxlwWoReZl8Kgs7MzeIwZB86BA6G9We2ClQZND76AOKo0MaqQnAj/e5WYS2bYRbi0XtfTo8eM2WBhpRsaoHQBXRHv3rfNh7A1qyD8nzUw+LEnlapBxsVgSDt3FnIiI8AK5+rUt58IfzHvqPkWWqlxeUEBpBw/BimnTgDVJ80Ln5unQjvZwlypXWPKkpKSYNWqVdCxY0dYuHAhOOOcm8LyUV/hvX9/xJCJ9vDZHS+JxX5945AOA9lI1H1QMuqLtBkupydiGEUMONvULsIK0XuCTE4wKPWhXbYv/KRYhM8cejN0tOigfVqEmYz2HwiHIs7AyZiLMKqH6jOWnJsuwjh8ndxRN6KHTjta+M/CEI1v0DtjW/AheHLSXeo6Wy+oPltzBt2kLpPvjPUfDPadu8JhHJNCUqRrauhcyUuCCAozfK5mBo6XD6XenzNwoiB+aK5zB6u8iehkQ8dsS/ioQWglO0GhKWBpbgZDe3czakbxVwogNbtIkAgUqmQqIy+JE0hQUI+jApRDTsb07w4076CwFBgbqEmsnECvDtL5JE0MIjEoVCQqOVdcozd6iQT2cBKhVdJ8q5EIORVxRTqEK6jHkV9cLkKspNAX9UnccbK1gh7dNf+OnbqUhqFhpNSgad4uXYVuhmap7hHNMzwhG5LSC4HCZtydrMHf3U6vR0t6bgnEpuZBd/R48cAwl5DLGRCB11lVfU2UEanTCcMy9FklXvOF6AwgjY+i0kqw69IBvLCfwB7OAnd97bicEWAEGAFGgBFgBJoGAf1/tZtmvMb3igslWmh3tK9dIFk5OUFFUUGdfdOCffeLzwAtTMnMLC2huqJC7JvjgnHUy69B/3sf0NA8yMaF74E3/iMWy0oExRVcHNP5gYse1UtQXEPXeRo3dvdOMZb4Dz0DbH70gJk//Qb2/j1ry3EvF8kT6lOf2bh71ElQxO7ZBQfe/A+U5+cLUqFd+/YQWrkctSs6w4T3P4Ket9yq3DV+Ez73609w6usvBKkhVTr9/TfQ0c4e5q1ZD7bePlIxRG/dBCHLf1cfSzs0Pv1om/uoMQYTFNTWZ/JUQVAkI4mgTVDQfTv2yYcQumqF9jBg59cDpn6zBBx6arrnyyuWIjm14a75kJ8QJy8Gj7HjYOrXP0AHG+VY7g5dbMSzR88OmRk+N/QsWlp30ehH38Gzzz4LmzapNDYiIiJg6dKl+qo2qvyfU7vEG/n7x8wVugyGdJaalymq2VkrXzudtLVSnUvK0fRKkAgKYz0oLiarCC4SxNRn/d17CoKCxCwlgoL2yeps56H6XF1MUtWV+q9vTDP8vPRx84Vj0edRPDMBhvoEiKb1taNKSnPNKMwR+hYkgkm6HkpGuhtWKOgZkRoHVVer1V4dDR2zLeGjhEdLleUVlePCOAcX8y5Gh0ocR4KgLhKhodeUW1Qm9B/IM8PeRln0lcJRKNtIIpIkRAyQ7oNkq/deEsd90avjyzVnICOvRDoltn28HODhWf3VC/gK9JZYuTtcow4dENGmVD4SSRNtgmL1vgjF9Ky339SrXoIiNjUfKIOKtuYFkY7Th3vDTAwV0SaALiPhsgqvc9pwHzhwPgmIIJHbnjPx8MTcgeDhrPt7msRQf9kaAvl478kIOYlaIU0P0vaw7qT6fS8q8H+MACPACDACjAAj0OQItDmCghaP9x86rgHMnN9XahxrH5RmZ8POZ56AyrJSGPf2+8IrgBbbVeiannrmNJxdugSOfvwB2Pr44iJV+S2ndp+GHh///BNwGTwE7t65Hxf6dpAbGwNnfvgWPRyOwLbHHoJ79h7W8E5w6tcfbl3xt073VTj3rY8+qFMuL0g8fBCv83GwdnODyZ99BUQKUNaK1NMn4eDbr8Pel18Q3gK+N0+TNxP7539bBie++EwQJmPfeEd4TZA3R8KBfXDiy89gx1OPwoK1mwTRQQ363/cg+N48Xd1PzK7tcHHln3qzeFg5OqnrGrJj7ary9qA5aNvBt16DyE0bwPumKTDs2RfAvoc/lOZkQ8zO7XDq268E+XDvnsPQyaGWxJL6II+Sfa/+Hwx69HHwxHtN+GRcDIFjny4W9+TIB2/DlC++laprbIc//39AP5J5TbhJ51mUziltS0tL1cVlZY0PiVF3JtspLi+F9ahrQGTBA2PninAF8nogQUYPe1cMh/DAt6cWshaqXTcMBSFLwewS+iwFPRfIcoo1ycCiMtWip6uVagGQj54HtEiuQrFLH/Ry8HBwwS/+tYsmqf+conyxSzoS+kxa1OcU56mrGNQOvSDI5O3EMY5JCxy7zvqJGPua+cjbGjRmDQGh2U4177qukeZFYyajaGcuzo/CW6S50rautm0dH3GhreQ/8lSghTiFTBhjFShceSbyCvT0sAfHrp2MaVpv3QLMDkFm07mD3rr0ySJRTlpkF5ZUiDATeWXKoLF8ZxjcPMwLiJAgMiMBvQU2HIqGS+ip8Pf+CHhwRj/RpIOFGbxw+xB5c1iK+hcU5qGUxUNpXs/cNkiEfEmdkKaHkveFdF7akifEN2vPCHLo7il9oJ+voyBOkjOKYNPRy7DjZJwgYOaO7SE10diGxGQgAWINr949HBzRsyOnoBS2n4iDYPSo+GtPOJaPEGExUiPyziBtD7p/8yf0FNgQCRSBmBy6kAyRSTmwAsmaJ5HcYGMEGAFGgBFgBBiB5kOgzREUDYGG0pKS4KLf9JkqL4maTsi1nxapHqPHAHlDKHlJNGQ8eRsiJ0a8+Iq6yHXwULjltxXw7923A6W9JE8EeVrODjZdwW34CHV9aaeyWOVGLx1rb2nhTYtsuiYiOMjTQjIiKmb/8gf8fcs0CPrsI6CFteQFQHXKC/Lh3LIfVZ4Sq9eDZRfVQtPS2hrsfP1QnK0a0i+cF14Z5IlB1tXTS/yIA/wvC0NCyGhcpfmLk0b818neUdQuTq91N6aCrEvhELn5XyAcZy79Re3xYu3qBgMeegQ62trBvtdegtNIAo1/5wOdEavLy2HAgw8Lkko66T1pCnQbOBhWTZsI0du3wvAXXtbAT6rX2O2XX34JP/30kwjxeOqppxrbnWJ7EockPQMKYdh18Rj8cmgt5MoIBVrsvjT9QUwbqrkI6eXiLfrbhuEId42chSEXmm8NKS0npfMk627rLLbSf5IHRZeOnVHwcQWGK+wRxIh0nsQz/zNzEbhrpdLMKVYRFNSOjBbovxxaJ3Qnnpq0UHgc2HRUCRVKdametC+1o0wX3+1ZCVmFuXDPqFtE9hEpNENOppSg5gWJaFp3tEKSQiW/czImBAmd3YJIkUJBbDqp5iOREkpjGj5XFZnTpaZP6uufUzsxZCVE6FHMCFRlvVGPiZioCYobAB/CozUYvTUPQoKC0nVqewTUN79zUelQVlENo4zM+lFfv3SeCAcyyhxRl1EIAxEUBRiOQd4WciNyYdJgL+jtpSK+6FwgZhrxxRSl7/0eBGcj0+GW0X7ggOQKkRcUTiE3KiN+UbtcXke+76cV8mFodgsiIcgD5KGZ/QRZIPXp69YVnps/CBavOIEeEokwfoA7hmHoepN0sDCHRegNIlGhVk5dhHfIB38GiWwnRMpQWItklA1l3nh/QYIMxHAOyQbgviuGi7yP2ITFZQsCwxKJGzZGgBFgBBgBRoARaB4ETCKSWYEu9wkJCRATEwO5ublGzTwrK0u0o/j8KtRqaBLDN6Zklp2VVdlJd6ApyAka03P8RNro2KBHHhdlGqEfOrUML0hBfQvSj+g59zbFxTV5h7iPHgsFSYlCP0LeM3keUOhL39vvVJMT8vODH30SZvzws/DMkJc35X67GjflisJCdSgOjRe+dg35G0Pgg4vU5IR8Hr1unSdIikvr/gYKr9E2MwsL9CwZrV0Mneztofe82+EaEj3x+/bonDdFQb9+/WDJkiXwxRdfgK+vr8FdGvP5opSgkq05uR0ozINSWJJwJAk0ZhflwRvrvhELZKkebW/qM0KENlDGief/+hjOo8AkER3kDXH8cjC8vOa/IhsI1fVydKON2iSCYmXQFqFR8dhNt8MH856FJybdCSTSSX09u/JjzPSh8rSQGpJWBlnNx1MQKvtRl4KIlcNRZ6RqYptfUpuitLad6nN9MSkKSBSS0qCuO60ZXkRCkxVVlTV91IynXsIArDi2WVwfZTwh8Uy50bVLVjumqoTmaNRca8YkMuWHvavhVOxFdYpUaQzamnTMGmBbMz7ya2/sfiH+roiNjYX4+HgoKdF81urrOwo1C7LzS/XqPNTVnogNK1zsDvSvXeTWVZ/OGfqZJsFOYdKqW3Wk8790mrwCtM3crD309NQkHagOhS6QrgV5WIRgGtCWNNJ+IE8HV4fOGuSENCczvIYJAzAFMZIt2iEcUp0e7rayT7aqlMJdyGuELCNXl+Sn65eTE6pWAM7ogUFkBnnUkGcHGyPACDACjAAjwAg0HwJ1v5YxcB55KPwofSHMzMwEOwxlMMSu4gKSCAr6EkBf2ApwkWyPC0VTW/cRI0VowqUNa3GsqyKtpb2fP4pkeml4Eph6XOqP9C2UzM5X5aZamJqidNroMtKuILNycIS8eE1tBakzKeSBiAy3YcOlYnV9aU7qE61gh/CTe3vk11ybrbeeBT4uyrp6eQkSpigtFSgziNzaI0GhTwiT9CvITHVP5OM2Zt+Yz1dClmqRfSktFv549GPhjSCNPbXfGOjr5ie8Db7Y8Tv88/RXQvyOzlOM97u3Pg3vb/wRwlEE8zkkFCQjgcePMVsGeSmQeWsRFCRWSeKOLl0d4Z7Rs3GRIC2XABZglopnli+GiLQ4+O3wepENROpXO6XmIO8+sPnCAbBob456Dpq6FFay9Jva7fwwuwiRJkS+jPALlLoXWwszc3VIi7wPqdKYnoMhKj0Br6k7uGl5hsjra4/Z0LnSfMaj9wqRPhN6D5Omod5aWdaGCJhqzNaMj/rCTbCTjaF85eghRZaDOjNWBoryUn0iGchTYGRfTfKNztVltHiNScmDCQM98LNmON9v6Ge6k5FpQ5XSjNIiXVu3QbomF/sabyFMZdqSllFDAjjbqeajNBfybiHTRxiQfoyS2daExxAJUp+RQKck8NmpgyoUjjKosDECjAAjwAgwAoxA8yFgEoKCshJI1qGDpnupVK60bY9fKCxwwUjkBJm8H6X6DS2jbBlz/lgF+9H1P2LDOvFDfbUzMxPCj14TJ4nQjy5u3Rs6hNHtzK1UC5GitDSj2yo1kEiJMz9+B/RTlxWm1L5lp3qUjYRMmpM4aOH/yvNVrvFWzt00ZpKfmCCOpTAUjZM1B9I5ui5tgkKpvlRm0Un1BZiyt7Qmk38u6vt8SV4AD4+fr0FOSNdDhMGqE9uAPCVIU0IedtHdzhl+evAdOBJ5FiKvxIssFoMxPGOIdwCQiGZKbgYEovikPIMH9dsHSQ/6UTJK+/nIhAXCA4PSfsrNjnQiUBujtEK1qBzs1Rc2Pv+9BsFRWqlaONnLNCNEO+yIvCPISG9j5eOfibASiRyRzkl1qR6FUVD61LLKcnXdhSNnYkjLDM0xa/rVGdMEc6V5fDj/OfX4dEwmzddeJlJ6I+CjunrT/E+fDUnnRf6Zqa/3ElyUUhaHfj6OqPVgWV91jfPHMbUo2Wgjwzvk86vrM03aEmTlGEJSl5WjjgKZVL+uuvJzUuhCbmHLEhRZ+SovhbqybUjnMvNqtXzk16Jvv8aRSPE0hcUcvJAE56LTRYgMp1RVhIkLGQFGgBFgBBiBZkXAJASFDQpX0heuyspKo95a0ZX6+PiIL5WWmBmByIqmMkojuXD7XsgKD4OM0BCRLYMW9ZSq8sJvP0Pkv+tg7vI1Olk1mmo+Ur8WnWrfmEplDdlKKTy19RWU+uoi06eg8xZW+t9aKbVvjrKiK6ov/tbdNAkK6TqVwjekeV2rSXFnoSekR6qnb2uqe6Kvf2PLjfl8ESFARpkhlIw8JXzQW4D0GuLR20JOUFB90magN/vab/cXb14muntg7K1K3dZZ1gM9HMgScTzylqI5kDnUiEpm12gtUJlEMNA+WbaCkKZSO6orbyv1KdWVzpM4ZiZee2FpsTqFqLwd1ZO0J+w729KhMKkfqV8q1G6nNFdJxFLeTqlt7ZgqcU+q09AxldppjynNR6ornW9ufGhcU5krCuva2qKbPz5fcgKgvv5PY9YHekturDjmVfw9cyI8VWSHcEe9A2PM0M+0RJhIWhT6xpDO29QQGvrq6SuXiAp955u6nMQ5yej3gz6TznW0VNXVV8/QcgqH+eqfM5CFoT0UBjKuvzuGvVgITxrqY/+5RKFdYWh/XI8RYAQYAUaAEWAETIOASQgKmgoRDPRjrJEXReca4UVj2zakvmPfAKAfya6hACRlfjj70w8Q+tdyGP/eYumU8LCgg8pS079dKsnMEONYm8hrwxbFLMnIW0Sf7oWooPAfhUSQlWSo5qRQpdmL0lC0lMyxT+29omPKvkLpX0k8Uy4ESuckk4Q1bb29pSKDtsXSPXFtPk8agyaGlQz9fFE6yzT0dqis0V1Q6p90EMiktKFKdeRl+y+dhBMxwUKjYrhvf/kpg/al8UgoUiInqCGFVZBRhpEJvYaKfe3/6ByZVFe+L50TFbT+i1doJ7UlgiIuKwUGePTSaqU6jMtUhV3JQ1mk8Y2dazcbB5FCNBW9T0igUyKQ5AMTOVGAhAmFyHS0qPVAa+iY8nbyceT7rQUf+ZxMsR2EbMEAAEAASURBVN+pAYTvMUwR2hXDAAJ8VFoFhs7jYlyWELGcOVJPuFk9HRnymSYxSFqQUwrUsooqxfSn2RieQW/+KQOFsUQDiWqS2SuITtYzfZOedkLNBzK6Tn0mnSN9CFMYZRYhcoJEPZ+ZN0inSxI/TcpQ6dbonOQCRoARYAQYAUaAEWgyBJSDNptsuJbpmN62l+Upi3eSHkHfOxaKidHCV242NfoF+Ynx8mL1fmlujnpf305xerriqTRMb0pmh+KVpjDn/qrY+5Tjx/R2l3r6FKbj1J2zU4AqxVzaOU1hQqkjyhASf2CfdNjk2ypMwRn615/4irod9Lvnfo3xnAJUC+SMkGCNcumA7jMJgVK4DpE12kZ9kyCoklFWFTJbIwQslfqpq4y8jEh7panM30VFNl1KjVEcghbJsbh4p7f/vs6a+hxKDWix/tWOP8Qi+41bHlOqIkJBSGRSn4WnXBanKOWo3Kb3Hyti43eFHJUXq/eJ2CAhyk6WHWGiTK+hH+pTEBFzAUNG0guy1fXlOzsvqvqUsmRI52YOGC92d+oZ81JqrBDLHOjZWwh8Su0aOlfSnCBxUgorORSh/PmiuV7Df9pzbeiYbQkfCV/59tKlS7Bv3z7xk5iYKD9l8v1EzOyQklkEI/q66tVp0DdoEBIbFubtYVhvF31VGl1OApdDe7kIDw/KtqFkJ9GLg0yffkYFkhekraBkMal5orhbjRaFUp3mKHNCfQnSz0jNKoJKPZoP8VdUv7c9nLuYZEpXslWimSSUqWSUmYWNEWAEGAFGgBFgBJofgeueoKDF9c5nn4DVM6dA0tHDighL5fa9NN+o2nh4AqXapLCQZK2Ff0VREURuXK/Yn7ww+Pdf4SouSuVGoSVnfvxeFGkvwOX1jNl36Nkb/GfdAimnTsDFFX/oNKU0oVsfuR823ncnECZy8544WXiVXN6xDRKPHJKfEvvHPv4Atj/xMERu2qBzTiqgNJ+msKLUVNh0/11QguKplA6VPCbkRnh1tLOHs0uXQEFykvyUuK6ji98XWT+GPfuixjnpgMiq87/+JB2qt7G7dkDc3t1g5egEftNmqstNubN06VJwdHQEZ2dnWLt2rSm7Vvd15/AZgkz45eA6yCzQJKOuokDsj/tWC0JheuBYUU/dUGEnCdN+vrDqE/F2/+25T2p4Mcirv73+O1i6fw38gH1LbtjS+QwkEH468I84vG3IZKlYbCmd5nDfQEhGLYwle1dpnKO5frr1V6AMIZP7jhAkhbzC7IETRfaBxZt+AkofKjfK6HHicgi423WDgV695adQoHIoUHrSnSFHkDBQEVJSBUrH+tm2X8XhLYMmSsVi27i5ThB9EEaSRojUeRiSNyuCNovF8ayBqnrSucaN2Xbwka5X2j7//PMwZcoU8UMiyk1pJI5JZqyGBGkXhGMKykH+3USayqac46h+Kk+jLUExYgEvH4tSeO47myA8k/SlOaXP5J4z8fJmYp90N4IvZwrdjUF1ZCBRSump01kjC0hgdOowb+GRsgXTjV7T6i85sxAOByeJ7BrD+rhqnW3YoSOmVSU7jzhoWwKSIfFX8rWL+ZgRYAQYAUaAEWAEmgEB82YYo0WHaI9CmP6z5wKl4dzyyAPQfdgIcEJvA/sePcUCNz34HJIPQdAR37YPeOBhjbm2NzcHWuge++RD2Pbog5jCcx7YYSgFhQJc3r4VPMaOE+EGGo20DjwnTITVs6aC783TcGFtB3mxMRC9bTPQm3z/2XMwhKGvVouGH4565XW4gkTEkcXvQeyeXdB95GjMgGEhyBXynmiH+gKTPvocCBMNQ0+FcW+9B9seewi24nX6z5wNzoEDBUmQeOQgZEdcEmEjPW+Zq9FMfuA5brzIWBKza7s6K4j8/JjX3hTEgryM9o9/8Rmc/22ZKC5MTlZn0KC5T/nv19rVBWE09s13YP+rL8Hfs6dBr3kL8F76o2dINlDKVvKC8RgzDijdqJKRhgVlBll/523gOXYC0D1OD7kA8fv3iup0v+VZQ5T6aGjZ//73P5GphtqvXLkSbr/99oZ2pbcdaQg8Oeku+HrXn3DPsldxcT9SeBvklxaK1JaX0xNFKMGzN9+jtw86EZwUCe+s/16kvXxpxoMwFrNd6LMXpj0AL676FNac2I4Cm2dgpN8Aoe9AoppHos4KAcjJASPRC6I2c4zU1/9h3//316fw98kdcC4+HAZ49sI3qChamBAhFvO9XH3g8ZvulKqrtyT2GZwUAUHRF+C+Za+hkGdfoGsPTY6GEEw7SsKZ79z6lPAUUTfCHUtzC3jvtqfhzXXfwjsblggCgzKbpOdnw9n4MMhBPQzysiCvB21r6FxJQJSEQn89tA4e//09ITpKWUfoXtA1V1ZXwsszFgGFg2hbQ8dsS/hoX/P58+dF0YgRI2DwYP3PnXY7Y48pLOJMxBXwd7cDKcTA0D5OhKcJgsxYYsPQ/uX1KN3lLaP9gAiKL/8+Db087cHF3hpo0R6VlIPeFddg4eTeesM0SN/BwtwMvlhzWmgtUFaPBPQcCYnJFMPMGukH5KmhzygN544TsbB8V5hOFT83WxjTX0WgSCdX7b0kPD6kY5onGaUHJY8VyQh3uffCpMGecAFTje5D7YfYtHwhWkrCmNT+JOJNWTrumNQLt+2kLhq1Jc+XPWcSIAxDdZZtDoZeHvbCI4aICcJn3vie8Pf+CNiEhImtdQd4cIbK05AESalcblJmkY1YVxLzpPNEYPX3dZRX5X1GgBFgBBgBRoARqAeBdvh2RftlRZ1NQkNDxfl+/VR/rOus3IpOktv/iS8/F4vRwhRVXDtNrx1+6fG+aTIMf/4lcOil+baVzqveuC+D099/Ld7MU5kFamaM/s+bYI6q8fswM8jARY/C6FffpFNq2/rw/ZCIHhu3b9gC+eimfPzzj9WLb1oA97v7Pmzzht6Ul+qOanYqi4vhl8EBQnfh3n1HtE+rjysKC+HIh+8CEQVEgkhG1zbmtbfAffRYqUhnSxkyDrzxClxB/QfJy4IynfhNnQETF38qyAGdRrIC8r4IXbUCEg8dULeXTt934JgIu5COJXykY9p27uYCTn37gevQYTDgoUd0iRRZ5fTgC3DwrVchOzqKlNXEmQ4o1koioUOefFbcV1l1sbusf09BSDx6PlwQI+H/rILyfNVbMmo77p0PoOctxotAao+j7/j9998H+iHdlSVLlsATTzyhr2qjy89j+MOXO/7QeGNP+ge0+H5i0p11ek+sO71beDR06WglMk5QuEN9RqKby9BTYl/4CUEwSPUdrG1xcT4fyDtAW1RSqkOkwKdbf4ELiZHqbBbWODbpXfxn5sOgnW5TaleN3jDfY+rTA5dOCWKByimkorerL/xn1iK9Hh9ULzT5Mny7ezlEI0lQjTo0ZE5d7GEW4rNowjyTz5X633z+AKxGEicZPVPICA9vJzdYNH6eInkjKuF/Nwo+dL3JSFJ6eHiIS1++fDncd999Yr8p/qMF8587w+CB6QEw3Ii38vTb5v3fg0RYznsPjcG72Dx29GIK7MMFdUaeKuMFjevi0BlmjfLDhbCz4iSe/26/WNB/9cxNYqFNfZSgOCQZLaTvnNS73hAVSs95CDNdkCBojlY60pEYHnHfVE2S/cUlB6CiJquI4qRqConYuHtKH40q1RjeQYv8YzhPKTMJ6dZ4dbOBe3EcV7xebaO6RIpMG+4Dc8b4aZ+GXafiYPOxGJg/oScQCSK3y8m5sBrJBincg8Zyd7KG+6cFAKU1XXswEs5HZQjChTAkIzxe/emQvBu9+zQfmhcbI8AIMAKMACPACBiOwA1DUMghKc/Pg+yoKKBFKWkVSGkp5XW096vLyyHncjRcraoSb+yJpDDWKCSBNBIce/WB9kZmLDGUoJDmROKfeXFxQnOii5ubUek26VqzoyLEur+rpyd0tLWTum11WyJksqMjoTOmI9Unmqlv0kQ+kccFeVSIUBL8ctrUloFCpJStxg69aZrDistLIDYjGWzRu4BCHuQilU0xPqXLTM3LgKKyEvB0cBNeDYaOQ2EdNFdzJMXIw0AfoaHUHwmD5pUUQI9uXorpVZXaUFlZZYXwZOiG4SYUUmGoNWau+SWFkJidJjRAOnewMnRIfGN//eOzZcsWmDMHPcswFIrIirpScBoMnJ6K36w9K97Of/LYePHmXE81neJoXNRS25ZafNICOSO3GBfr1hpv63UmigVygoLOE5ebklUoPCpoAd70v/GUZlV/GZFAmbklQJk2ujtaGy3+Wf8ItTUIk5yCUsjFsB0aS+4BUVuL9xgBRoARYAQYAUaguRC47kM8lIAk8US3Ybru5kp1pTIz9JaQxCSlMmO3tIA2dhFt7BhSfRL/tPPrgT9SieFbulbn/gMMb9CCNYlcch2snAGivmmR94wpQ2zqG4/Ok/5EcxotgPt79Gy2IUnQ0s9Z8y2loYNTilMpJamhbaR6rrZOGqKWUnl9244W6M3k3qO+ajrnGzPXrlZdoD/+GGuNGbOt4COFdyxatKhJyYlM9EIgomFcoLtR5ATds6DQVKEZok+U0tj7amx9SoVp3UlXANiQfoiDNTYlqiH9mroOESdEoDSHESYOqEdBP2yMACPACDACjAAj0PII6A88bfm58QwUELD31xTyVKjCRYwAI8AItEkEiKCgEKimDH8iYCjFJJmxGhKUDeN8dDr09XaArqhLwMYIMAKMACPACDACjAAjYFoEbkgPCtNCaNreqkpLYO0CBTFKDEcg85s2w7QDcm+MACPACLQSBB544AG4//77wcfHp0ln1NfLAXxR4NETtQ2MsSrUSFg0sz+4YSgAGyPACDACjAAjwAgwAoyA6RFggsL0mDauR/Q3Ne/QUacPW29vGPPmu+BRh8ilTiMuYAQYAUagDSFw661NJ1Irh6EHZpBoiHWxsoRAP6eGNG2RNh7OXUyW9aJFLoAHZQQYAUaAEWAEGIEbDoEbUiTzhrvLfMGMACPACDACjAAjwAgwAowAI8AIMAKMQCtHgDUoWvkN4ukxAowAI8AIMAKMACPACDACjAAjwAgwAjcCAkxQ3Ah3ma+REWAEGAFGgBFgBBgBRoARYAQYAUaAEWjlCDBB0cpvEE+PEWAEGAFGgBFgBBgBRoARYAQYAUaAEbgREGCC4ka4y3yNjAAjwAgwAowAI8AIMAKMACPACDACjEArR4AJilZ+g3h6jAAjwAgwAowAI8AIMAKMACPACDACjMCNgAATFDfCXeZrZAQYAUaAEWAEGAFGgBFgBBgBRoARYARaOQJMULTyG8TTYwQYAUaAEWAEGAFGgBFgBBgBRoARYARuBASYoLgR7jJfIyPACDACjAAjwAgwAowAI8AIMAKMACPQyhFggqKV3yCeHiPACDACjAAjwAgwAowAI8AIMAKMACNwIyDABMWNcJf5GhkBRoARYAQYAUaAEWAEGAFGgBFgBBiBVo4AExSt/Abx9BgBRoARYAQYAUaAEWAEGAFGgBFgBBiBGwEBJihuhLvM18gIMAKMACPACGghkJxZCHFp+Vql9R9mF5TB5ZQ8qKisrr8y12AEGAFGgBFgBBgBRsAIBMyNqNsqqlYUFcG2xxeBU58AGPvWu2JO+197CfKTkuC2v/4x6RyLrqTBnpeeBwf/njD+vcUm7bs5OovYsA7O/Pgd2Pn6wYwff4H25k1/u48sfg/i9+2BnnNuhREvvtIcl2nUGM35/Bg1MT2VX/nuKCSlF8Kaj2aIGr9vCYddJxLgnUdGQF8fez2tru/iwpIKePSjfYoX+eUL46C7k7XiOX2F7/96EvadSoK5E3zhpXsG66vG5YyAGoGTYVfg61XnYcEkf1gwuQcUlVTCIx/tFZ9J+my2BSstr4Iv1pyGXp728OTcgUZN+fftFyEjtwQ+fmycUe2MrXwNG7QztlEL1E9ML4CVe8LBrH17eHB6AHSz79wCszDtkNHJubA1KEanU6uOFvD4nAE65VzACDACjAAjwAiYCoGmX7GaaqY1/VyrroK0M6egPX4RkCwjNBRyoiOlQ5Ntq8vKxVjXqtvmW6KIDf9AQVKi+MmJigTHvgEmw0apo6tVVRC6agUQXhdX/tkqCYrmfH6UMDK2LCw2GyITctXNEq8UwunwdKBFupL9sTUcdp9IFKcemN0Hpo300qn28rdHID2nBFa8P03nXGMLfv43FA6eTYZ3Hx0BvbzsGtudYvurVwHSsoo1zmXkloq3uWUVxn1Wq6qvwl87IqD66jVYvv1SqyIo8osq4MlP92tcp3RgZ9MBfLt3hVvG+UBPz6bBWRrL2G0Ovl1/5vOD0M/PAd54aJixzdtE/bzCcvE5HB3oKuZbic8RfS7bt28Ly2kVxKcjrkBl1VUY3a+7UZinZRcLr4ubBnmCuVnt32GjOqmj8vnoDDgXlS7GKC6rBK9uNuDnZgtTh3tDBwuzOlo2/FRRaQX8uvUieDp3gXkTehrd0cXYLEjJLBLtwuKzrwuCogKfjdzCMg0syHOmi5WlRhkfMAKMACPACDACpkagzREUpgbgeu6v/30PQhWSLORB4dC7d5NfKnloDHniGYg/sBf8Z81p8vF4AF0E4lMLgN7ukpVVVCkSFCHRWZCAREdTWGxKvhi/qLSyKboXfXa1toRDyxZo9H/XmzvEAlGj0IADWmA9tSAQ9p9JFot9A5o0W5XKqmr1vdQ3KBFCrz84FB6c3VdflWYvL0eSiJ5Bc3PTL16b/WKu4wGPh6WKxWZ/H0ejrpLakY3u52ZUO0Mq7z4dD5uOXhZVHWw6gqtDZ4hNzQN6m38pMRuevm0QdMY3+KY2ImpoDLMGEkyDe3aDGAx5IYIq0M/J1NNrkf4CvB3gg4fHqse+hu4sz3yzV33MO4wAI8AIMAKMQFMhwARFUyHbCvr1mzYT6Kc5bfhzLwL9sLUsAh0tzSAYiQjywAjwdWjZybTy0V9YOAjop7WarXUHOLtiocb0ohJzYefxBPj+72D4+I/TMHaAG/TwsNWowweMgD4ESHuCwhKmDPUyyuuDPI1OhqeBl4sNuDkaF0qlby5S+dnIdEFO0Bt6IiI80JuBrAKJuuU7w4A8K37dGgLPLxgiNWk1WyJSnlvA4WGt5obwRBgBRoARYATaNAL8iqtN3z6ePCOgjMDd01UeM6t26YY+UVx3Uxl5bbA1PQIU1vHcnQNhzABXqK6+Buv2q946N/3I9Y9gbJhN/T1yDVMjEBQqeUEYF95xMSYTKBxidIBx7QyZ/5GQZFFt0cz+anKCCizNzWDRrP4ibCIqKRfSUfvC1EYeFGyMACPACDACjAAj0DoQuCE8KLIjIyAjNAS6BQ4Ae/9ekBUeBskngiA35jI49OoNnuMngq23T713hPq4vH0rlOVkQ1dvX/ROmAG2Pr467VJPnUTRzgRwHzUGurjp/yIXs3MbVBQXQ6+583QELK9hoH3Cof1w5fw5KE5Ph04ODmKuzv0Cwc6vh86YVJB07AiQsKe22XR3h+4jR2sXKx4TJjT/zEth0NnZGTzGjAPnwIHQ3kw59jdy0wYg7QltcxkwCOx6+GsXax6jz2jKyeOQFHQUiq9cgY62tuLaSGDTvJOVZt2aIxK5jNm1HawcHMFr4iRxXw25J4qdNbBw48aNcOrUKZg0aRJMmTKlgb00bbNJQ91h27E42Hw4Ft54cBh07mSYW3Q5qvLvwjfzF2OyISe/DFwdO0NgD0e4eYQntFMIr99zMhHyisrFxeQWlMPh8ylif//pJKBwD7nRHGaO9pYXiX1jx9TpwMiCfw/GAGlPaNugnk4GeSFkot7F0eBUCEWMqrGffn6OMHagK7jgW9TmthmI55ELqTpYS/MoKK6AI3hPQtGThjQt+qCw6vC+3fTqg5wMvYJv1jXDf6w6mMOssarfj3Tt5JWTlVcGlhbtYc54X0jNLIZjIaoF71V8w073nuwKahWs3RctTUW9pfG9XG3EMXmCkKcPaTlcyS6B7cfiwaObtejXHl38KVSENFXII+i+mb0VMW7I80P9kp7L+EHdwaazJaxHgofuJz2j9LzfMt4H2is98OqraLs7Qi8D9Sf8uttCNzvl37P6ri4oNEUQBkN7d9NXpUHlmXklIsTC0bYT9PTQ1VShezEqwBU2HrkMNIfbxtX+bUnJKhLeIKRVQV4dSRmFEJWUA1dyiqG7Yxfoi6EKzlrXmYPaCpGJOWKu1/DvEGlIkNHvMimERRTU/NcDsXKyrcUqFcdMQA8UbaOQsWG9XbSLFY8TrhSI8BWaf9fOHfC5V82VCBkloxCUrPxS6OvlAJ06msOJsDRx3R0tzYVHy9BeLoq/o6W+CI8L6IVCfZiZtRPXMwRDU+y6dJSq8JYRYAQYAUaAEWgVCLQ9gqJde7B2cYWO9rVu61ZOTlBRpPtlQUI44dABOPHlZzD61TchOegYHP34A+mU2Jp/+TlM/vzLOsMhwv9ZDQfffl2jHWXImPj+x9Drtvka5YVpKXDgjf9AwF13wwQ8r2R58XGw6/mnwXXwUOgz/w6NKkVpqbD5oXshLy5WlJO2w1US6qQgULS+d94NY157Cyysar8wUXnI8t8h4eB+2tUw36nT6ycosO9zv/4Ep77+QjVWTQ+nv/8GOtrZw7w16xVJnMPvvgWVpbpvtMa99V6dBEVJVibsfOYJJGDOqkaixUDN9Z3CMad996PARuNC8KA0K0tg6zJoCBRnpBt8T9T9NOD5UbfFnQsXLsBtt90mij7//HNITEwENzfTx2JLY9IXdlpYSmaD+gu0ELasRyyO1OTvmOwP3/8TDBsPxcA9NR4VUj9K2/NRmfD0ZweEgCadl90SIXj4+zs3Ay0a5fbtmgtwKV71RV9e/tOGi/JDse/ubK1DUDRkTJ2OjSx4e9lxKC3TJdUo+0J9YRK0WH7th6PintCXfFo4VaLIJi1sP3x8lMgEYuR0GlXdokbnQekN8LmIDHj+q0OCQJAPQnN+6vZA4YGhHXO/enckbDkSJ68O3RysBEFB95Tut5Rakp4FIiiIsHhtyTGNNnQQk5yvWP7f58aqCYpD51Lg0z/PwKO39oP/bQ4TfVAYwfGQNCQJfOEFnD/Nl8oOoPjq9m/maozT0Odnze4oQd59//JE8RkhokRuK/Ce/u/tKYK8kJdL+7QopM+hNd53MpojHTt21fx8SPVb0zb4cgaUoPjk6ADjfm/R4j08IQeG93FBwsi0Xx1iU1Vkpq+r/jAl6ZxUV8I0LC5LhIbMG+8PkUhMrDsYJZ0SW1rw34+ZNQb5O6vLicRYuTtcfSzt0CJeqfy+aQEaBEV4Qjb8e1iXfCN9jPoICiJH1x+KgsPBydKw6q0LZv94GL1FlMJnjl1MARI2pfM7TsRBarZKlFNqfOhCkgiN6YSEotzos/PPgQg4GqIij4lnlrzoKEsHkT0TBnrIm/A+I8AIMAKMACPQogho/iVr0akYNngHGxu4/9Bxjcpzfl+pcazvIG7PLrBCr4D5azeBrZcXehtcgYj1/0AwLux3v/AMLNy+V9EjghbCkRs3wOxf/wTnfv2hvLBQHJ9d+j0cfv9t6D5qtCBNpHF7zJgNxz7+EKK2bEJSRJdIoHpha/4S1QMW3iM1U293PvukICeI4Og9/05wqsm+QZ4goX8th/C/V0Ene3sY8cLL6ja0M+rlV2HQw4+ry7IiwuHoR++rj+vaOf/bMjjxxWfoYdITxr7xjvCaoOtOOLBPkDs7nnoUFiBuFp013xLP/u1PzNpR+zY6YuM6xHRtXUOJc7tffEaQE3T9vebOF9eYcTEYIjdvFNcn7se2PWDZRRWHrN2hsfdEat+Y54f6KC0tlbqCq+jlUlFRSx6oT5hwZ/l7UzV6exG1EujHELvz5p7ww9oQoDCP+ggKWnw8/OEeXLhUwZuYeYHeLLthus6j+Haeslscv5gGr35/DH55c7LG0J8+MwZIaV+yr/46D2cupStm8dBW4G/omNJYDd3+gUQLfWmXbMOBy7BuX/0hErSYfvKz/YhLZ/ji+XH41t8Nsxi0g1Nh6fDGj0Hwf98cBlocTB3pKXXd5FsS9yTzcVN5JEgDkvfKwrd2igX0R0+NhklDPVAQ0QIuxeXAf1eehSVIXBGp8Z/7hkhNxPbZOwbCwmm9xH4Vnr//vd1in7wcvkNyYlR/VzEWeU9IYoVD0SNi1eLp6n4S0grh9R+O6c3i4YfZR7TtyIUU2LPkNqDb8vgn+2DfmSTIwUwZ+3+cL+4VZTOhbDZEevi5q9qb4vn5YV0wCsl6wtLXboKuqPURgWTbB7+egvORGfDN6vMina/2XOl4wuDucOzX29WnSLhVfqw+0Qp3KLyDPFJI2NEYO4HimORtYGzWD0PGKChReWHVlSGiC3q6kEl1tfu9cDkTPREs4ZWFw5FM6CS8IWjOB84lwm/bLsLbD4xSe4yQR8QLt9c++5l5pfAXpgn1RC8MIjq0jYgDuZG3AnlsyO3btTVku7xQYf+vPZfg1KU06O/rCLNG+QliqwizMp2LyoCtx2Pgy79Pw3sPofelnmwZO0/GwUAkWx6dEyg+g6Qnsu5AlMh6Qu1vn6j6/EpDU30iJ/zd7eDmYd6YEaWrwIaIqh14jggd0hTxdtH9XEp98JYRYAQYAUaAEWhOBNocQdEocPAt19Svl0C7mhSlHbrawhhcjJujJ8LZpUvg/C8/wU0ff64zBL3tv+PfrUD1ycijgIQgC1OSkahYD9FbN8GgR55QtzOztIQ+C+6A878ug+gtG4XHg/ok7lTjojby3/UY0mAHftNnyU9BWW4O0EKdvETGvvkeUF+SOQX0E/Prdet8cBs2XCpWbyl8RW7tDFQkLy/Ih3PLflR5SqxeryYFLK2tRQaQq1erIf3CeSjPz9chKFyHaKYRTD1zUj4FvfujXnpNhHYMfepZdR3XocPBBT1KEtHjhUJVyLuCwm+UzNh7otRHQ8pGjRoF33//PZw8eVKEd3h7ezekm2ZpQ+EZE4e4Y4aKJFxwZcKgXvrV5UmI8XUMBSF3d3lqUlps9/SyhclPbRDpQ0vLq8QiXLoASiUpN0p/SUbCnEN6176xlNeR9hs6ptS+oduhfTQXZqeRYKjPSOfho99PiWtf9eEMEYYgtaHwBHrbPvOFTUKwcuKQ7vV6uEhtG7otKqmEfRhKsfdUouhi5hhvja7+u/KcCGP55qUJMG6gm/rcYLwny9+bBjOe3wh/bAmH+2b0FmE8UgVa/EsEgOQpUVF5FZauD4EtX81Rn5Pq09auSwcYEVDr1k7PEBkt+OXlolDPf7dO8FN7Vdw83BPIW2PKMA/wdFERlNNGeUF0Uh4kZxSp52CK52fcwO4aAqlEwBBZMfWZf+GfvdHw9sMj6nSb13M5rbY4G937ozC0YXR/455RovOCcLFPoRK0uDe1FWIoEhmFE+kz6ZxUV7se/nlH74JA9f0iAm0+pgwlD4qdp+JgD2YIuXdqX9GMztGCXTLJ64DGkJdL57W39OzRj4bRBOoxIhNOIznhi2lTH587EKQWFGYxeYin8MRasSsMtp+IhTsn9VbsrQ+GrMwaVRta2svDXpAVH/5xHIIupsICJCikfqmDsYHdgX5vzxnjp/695GKPHkDDfYBSxpJXxoXoTCYoFNHmQkaAEWAEGIGWQKC9KQalt8gJCQkQExMDubmarrL19Z+FLvvULikpCaoUtAzqa2/MeY+x49XkhLyd5HUQu2envFi979Czt5qcUBfiDmkgkOXFxYmt/D8Kw6BvSmHo7aBtpKFQlpcLvect0CAg1PWwnXnHjqhLoRyL6jZ8hMr/Xt2gcTsxO7dDeUEB9L39TjU5Ie9x8KNPwowffgZrE4YydBs4COTkhDQekUf+s+eKQ9LD0GcNuSf6+jK2/JlnnoEVK1bAAw88YFTTQvS8iY2Nhfj4eCgpKTGqbUMrL5zWUzT9a2dEvV3cjiEhcnJCauCNegED/B3x7fY1vVoHUl1jty0xprFzpPrHQ9PE2/u5E3w1yAmpL1/0ChiDmTSSUL/hQpQqnl06J9/SG+iUlBS4fPkypKWlyU/p3ScdiUlIEMl/hj6wWnhskBcEpRiVky65BWWo25AA/pjVQ05OSANQWMh9M/oAaTeQHkd9Rv09MKuPmhior35DzktEBLW1RcKDjGLyJZMWg4SF3Br7/IzsV0usSP3S8+6NHim0qEtHl//WZA15fuTzJ5KByAZjU4QSqUHkxigjw0IM/fteVOOFVfcaX7XspueWdDS0jbQZlNpTphKyC+gx0NJGYRqE/6TBqOmjMJkRfV2FVwTpYNREPOrU6ikjVqSTzqiPQeQRZTzJr9EEks6RvsWCiUjUKIQFDuvjKqpdydEMF5Ha8pYRYAQYAUaAEWgJBExCUOTl5YkFFxEVmZmZBl8HucjTFxhqV1RUBAW4SG5Ko0W/klEYQWfnbmKRTiKM2kYaEEpGIpJkpSiaqW1dPb3AEwUmM8NChZCj/HzYGiQt8JtUwJ264R3kneGK+gqkUbHpgbvhEoagkDin0rzkfTZmn8Yis/Pt0ZhuGtW2qqxUeI+QB4lFZ5W2RnVlbeiAducNuSfafTT3cXZ2NpSXl4swkZwcXd2GppjPhMHu4g05iQ+SS7wxVohux7Q4pR96G05W0cRq9y0xpiGYXMa392SkCRKXWqD441CjPxCTrKqr1C8RU/R7rhKfbfq9Sc+DIVaGi2X5D3k5kODor29Nwbf8mt5UND8yH4VQCmksn+4q93SprlSutKWFzfC+ugt5pbqmKCOhQW0jvQ8yWqDXZcY+P+Y1Gh7afXazV/0Oykah2NZkDX1+6BoIOgp5cHOwNvptOREb7dEjb2TfWm+c+nAx5u+7MZoW9HxYKDwjkh6L9rzIO4J+fxHh1NJZhjJQDJRMW7RTmjM95STGScQjCXkqGekLKZn0O5o+A3UZhbcVlVaKH/MaL8sq9BBjYwQYAUaAEWAEWgsCyitvI2fXUbbw79BBtZAxpIv2+IfWwsJCHccv78eQ9qasI2WNIIFK0mEwxKRQEX11A+6+DxKPHkZNhdWoXREoquXGxkDamVPgPnosZgLxVmw6Hb0V9r3yAiRiVg7KqCEZeTC4DR0B/e+5H8gDwVSWnxAvujK36mSqLuvtp6qsDC6t+1sQMAWJCSYjYOq7J/VOrAkr0GdD0rBormedRBBJi4Li6SlTwcNzAvReYXpOCSzfdgm2B8VDOmZUoDeVTW0tMWZDrklayJN2A/3UZRSGoM8sZSFb0u8/fXWlcgqZCPrtDumw3m0CZqcgI80JfSbFt1MmgfqMwnYkgqC+us19vqmeHxK9bI3WkOdHug4SdiSScsoQL6nIoG0JLuwp+0M/H0e9oqFKHUnPt6TTU9fvPJsavYW6fudI56RnV2lMfWUdarwRc1HXxNXBJF979A1VZ3kWal2QdapDZFQKN6HMJg5aosR1dV7XIxuM6WEPo4gmhZgUIznBdERdSPI5RoARYAQYgZZGwCR/qW1QuJK+fNBbQSutzBL1XaCPj49YtNEXLyIrWtq0M2M0Zj7eN00Ca1dXiN62Gca8/rbIunFp7RrRZb+7dL0npLFIAHP2b8uFxsWVc2ch53KU8KjIuhQOUZv/Ff1N+e834D/rFqlJo7YWVpoCYI3qzJDG+Cpvz0vPQdze3YIMGvDQI9C5mwuY15BbiYcPCoFRQ7pqS3Vc8VmwxVSq7fCbZF1f1k19TSKbx98XYDWKZS66RZmgoC/ud76xQ4QoUFjA3SiUSFkapIXp/zaHi2wNppxbS4zZ0PlLi4ZFSPCMxVCOuswd02TqM/od17NnT/E7r1OnTvhWWvltqL72hpRL4pUUkqPPpHNSXX31WnN5W3p+TIVjY56f45ieU6TBrHHrN3ROpJlAmScaIo5p6N93SbdEO4RHPkfJM0CqKz9n6L5SmIOhbU1RTxIKrssTSDpHQqamsP0oEkpZQ4jYGYH33hE9NKS+c9A7bgtm8mBjBBgBRoARYARaEwImISjogohgkL/dMfQi6Qt6Z63MEIa2NWW9kqwMoU9BC2VTWbv2ZtD3jrvh1LdfwuXtWzBbxTwhqmnl5AzeU6bWO0yX7u5AP3KjNKLbnngYzvzwrckIiq6Y0YSsJKN5YnQzwi4KcoIyaty6Yo0Q55RfYymGQlAGlOvRaFHa3EZpIm/CLA4kqHgCtRSUbN2+aEFOkJbBH+/qPpsUIkLpJE1pLTFmQ+cvCUfaYrYGyuDQGDMzMwNrFKBtKvN2U2k3kBeMPpPOkdZCW7W29PyYEuOGPD9FpRUQgm/RB/RwVqdGNXROx5DYIB2DAB9NQVxD2hv6993FXvV5oDSf+uxKTVpN7Ywa+urLyynzBxHDkpaJ/Fxz7lNoR0pWkfBkceiq/LdACsWjUI/GGnGU2zCzB9mDM/pBb097jS4p3SoTFBqQ8AEjwAgwAoxAK0DA9K/vWsFF6ZtCcfoVxVNZEZegsrgYbDw8UZjSZJyNGKvvHXeJPsP/WQ1x+3ajXkWOEKNsj4sUfUYLdH1GwpxdXN1EGtKrdWg06GuvVE7ZQcjSzp1ROg1Xq6shHtONmsok8UvvSTfrkBM0RkWxfhd5U82hsf0Yqh3Q2HFM1Z48IshW7YxU7JLSN5KR6KCSUcyyqa0lxmzoNQT2cBRNj4UoEzx0ktKN0hvJljYvFHm0xvAOSsspucVrzykYVfvJ+mG2lbZqben50caYfn/s24fpVPHn4MGD2qdNfnwyPE2kazVWHDMxvQBSMouAxBubMuzFF1Nf0uI9Li0fJJ0GbRBOoicHmT6hTmlhr92OwhrKKqrBEQkBCnlrSfNwVhGC8XpCqyhlcxaKkZL3mim8m/KKysS122OWEG1ygnBoaU2OlrwXPDYjwAgwAoxA60XghiIoorduhsLUFI27QeKTRz54R5SRtoOpzcrRCXymTIP04Atw4qsvoB0SE33vWKh3mAu//QzLJ4yEC//7RaVqplWTFveUgtPW2wfamygkxnviZHDsGwCXd2yDxCOHtEYEOPbxB7AdvTYiN23QOdeQAht3D9EsAdOJkjim3Ci7SXQr9p4gMddBgwaJUKaJEydCNZI3bcHGDXIDd2dr2H0yUaSW056zR01Ywo7j8dqnIORyFlzANKWGGKU2NdRMNaah4zWmXi8vO5g91gdOhl6BP1GnQ9vOR2XCQx/shoVv7cRnQn9ohXa7pjgmN/In5vXHrAtl8CWmG9WO9AiPy4EV2yOAslVQVhJTGwlMNuViVppvW3p+pDlL27Nnz4o0xVOmTIGvvvpKKm6ybVAoaiuJRapxhBSJY5IZS2w05EKkMZbvDBOClvI+DmCYQlRSrhCQ7KGQxYLqnom8okMQ0gL8nwMqUnbCQE1vRHn/5FlBHhZNbTQH604WsAvTnlJWFLldRfHKtThXCqeZNdI0n0vyfKGwHhLc1Nabod8Lh4OT5VPgfUaAEWAEGAFGoFUgYFp3gVZxSfon4T97Dmx77CFwHTIUunp6QxGm+Yvdu1NsbTDrBnk7NIX1u/teiNm5DfIT4sD7pimoS6E/ht19zDgIR52KoM8+gsh/14HL4CHg1LcfehUUI8lxHpKDjgol+2HP/Z/OVIN//xXIG0Sy0izVopKygOx79SWpGKwcHWHUK6+rj/GbGYx76z2BzdZHHwT/mbPBOXAglGCGlcQjByEb+/QcPxF63qJK/1nbEODg269DNWZhkSwrIlzsRm76F7OPXJSKofvwkdB7/u3iuNuAQUBeG5ThZOO9dyEm6BWCoSw5mHqRQmHGvvku7HzmcaG3kRFyAUa/+qbwblF31oI7hw4dggsXLogZ0H5ISIggLFpwSgYNTQvGO1As86u/zokvwNqZEuaM94OfN4bCwbPJ8PjH+2B0oBt06GAGwbjwvng5G954aBi8+/MJ+O/ys0AhI1+/OF5x3GkjvITQJglJOthqZs2hBRL1I1lDxywpq4J3fj4udSO2sSkqD5DPcX5dOtdq2cwY5Q2Th6kIManBmz8GQTmm45MsIk6VGnkjpty8GJMlFcPIAFdYMLmH+vi1B4ZiCtFM+ODXk4LoGd3fBSxQfC8oJFV4T1CWg0+fGaPW7VA3bIGdh1BrZOfxBPhtcxicQ3LppqEYLoZeFZeQnNhwIAbn3R7efXSEWLzIp0fpaIlsIbtaQ7QUFFXAy98dkVcTnheU3lTJ6O3v0L7OEJ2Yq9OO6t+Fz6E8LapSH4aUNfT5MaTvpq5z/vx59RBPPfWUer8pdsgrgUInZuKi15g1OGWSOBNxBfyREDBFuEF91zZxkCdcTsmD0NgsWLz8OPTCcIQunSwhNi0PYlPzhUfBQximoI9GGNrLBX7ceB78utuK+ebiojz4cibQlrLvjOmnPzTLGsfxc7MV5O3yXWE6U6W21K9kYfHZcBYJEbmRdgR5LGm3v31iL5A0bChbyQI8pjqLV5zArCiuKNppjRk1KoQQKYV/9PayR48V/d8R5GPWt0+/k8b07w6HUCDz120hMBBDfDycu4gQk9N4b8cPcAcK8yAvk5+3hIjfeYG+TqJbIjQOBSeph5CITiJ9tK9x+ggfoFSnbIwAI8AIMAKMgCkQuKEICtKXmPbtj0KgMQwza4hXi/iNzWPsOLj5y+9AyuRhCmDlfXQfMUossAuSEiFg4T3yUzr7jr37wB3/boWTX38BSUHHkKz4G65Vr1LXcwroD0Offg58Jt+sLpN2kk8EAWlUaFtRaqrQvpDKu3r5aBIUeMJ1yDC4/d9tcOCNV5BM2Y5CnFtEdfL46DFjNkxc/ClqdOiGpZC3Q2Wpbqx7xsVgoB/JzFCjRCIoKIxm+pJlcPi9t4C8KKR6FGIz8v/+I65t9GtvwcWVf0Lsnl0w5MlnpG5afDty5EhwcnIS6XRJAC4gIKDF52ToBEgs89s15xXf8NPb6F/ewJSVy47D3tNJ4odIjT4+9vDVi+PE2/YIDBnYcSxeYxGvPfawgG7w4ROjYO3eaDh8XtNbiTw45ARFQ8csxy/I/+IiW8lIZ0Nu5DquTVBsOhILpUhyaBt5itCPZKT8LycoyDtk69dz4P1fTsKOoHg4cbE23KO3tx288eAwGNRT9eVe6qOltiSCt+7TWfDZ8jPw954oOB+ZIaZC9zTQ3xE+QyKlh0ftgkua5+nwdNhyJE46FFtKz6iNdyGSFvoICmr0wWOj4I9t4bD1aBwUlWiGB43u72oSgqKhz4/GxbXQgURQ9OjRA6ZNm9akswhCDQnyDtAXGqFv8PPR6cKTQfJs0FfPVOWUOvTxWwbAOhR0PBeVDhSWQkZkqi+SB3dP6YOLef0eWuQF8cjsQPh9eygcC0kRmSqIzOjj5QAPzewH9Qlk3jW5Nxw8n4ieGOk6oQ89Pew1CIo01MOQ5icmWfMfeT9ol88d00NNUFC1Yb1dkEDpBH/tuQRH0INB8rciEmPWKF+YMcI4Ikk+vtL+beP9BTFFY5FgJhmFj4zq5wbjAt1F6Mu247FI5mQgSdNV3QV5XWhfC50k4kq7fGx/dyQo1E15hxFgBBgBRoARaBQC7ZD1l/4+GtRRaGioqNevXz+D6reGSud+XgonvvxMvIkfuOhRMSUKJciLi8UsEr3AsgkF62iw8vw8+GPcCPRccIJ79x4WYpyG4kLpOLMjI7BNO/S86C68Hwxt29B61RgfnR0VIfibrp6e0NHWrqFd1duuBL088jHNaBcXN6A0qm3Brl69CrGxseDn5ye++LeFORs6R8rukJJRDFeyi4HCGhqjmN+axzR0bvrqVaM7dnxqgQijcHPqLMJn9NVt6XL6DR+fViDemvbGeyq9zW3peZlq/JZ4Zhs79yFDhsC5c+fgiy++gJdeqvVua2y/2u3pjf7ryw6DDy48n503WPt0ncffrD0r3qx/8th44XFTZ+UmOEkhEIWofePhZI1eSe31jrD7dDxsOnoZ5uFCfHJNClXScqAUtG5IKpLXQms1Iv+I7KBQDH2imaaaO3k+ZOSWCCzdHK31eqKYajzuhxFgBBgBRoARaCgCrfcvd0OvyMB2tOh2GTTEwNqNqxaxYR3Qop+0J9ph1hJjzBzTt3YbMNCYJo2ua4bpPp37D2h0P4Z0QKQN/bQlI2V6evN5PRq9Yac30/TTXNYSYzb22khsjzJ7SNk9GttfU7bHW4oL1LabraM+bNra80PpuInop4w+Dz30UH2X16jzZ9EbgEgKY1OEZuaVQHRyrnjDTuFALWG0YG/oop08BMh7qrUbkYXkHdIcRkSNZ7fr9/dAc2DIYzACjAAjwAg0DwIt882jea6tdYyCry/D1vwFZiho2WfBna1jTjwLRoARYAQYgRZBIDw8HCpQt+fOO+8Ee3vNtI+mnhCFd9BifYCfcSTw8WYUxzT1NXN/jAAjwAgwAowAI9C2EbhhPSia9LYhKbF69lQxxLWqKsiLj4OBDz/WLOEZTXpd3DkjwAgwAoxAoxCwtbWF3377DSZNmtSofuprTKE9U4d5izAtbVHc+tr2Rd0GerPPb9zrQ4rPMwKMACPACDACjICpEbghCAoKISBxScpe0Vxm3kGVwaCjiy0E3HUPBD7QtK68zXVdPA4jwAgwAoxAwxHw8vKCRYsWNbwDA1tSaE+gkZ4TUtf6UnlK51vT1sbKUhApXXDLxggwAowAI8AIMAJtH4EbQiSz7d8mvgJGgBFgBBgBRoARYAQYAUaAEWAEGAFG4PpGgDUoru/7y1fHCDACjAAjwAgwAowAI8AIMAKMACPACLQJBJigaBO3iSfJCDACjAAjwAgwAowAI8AIMAKMACPACFzfCDBBcX3fX746RoARYAQYAUaAEWAEGAFGgBFgBBgBRqBNIMAERZu4TTxJRoARYAQYAUaAEWAEGAFGgBFgBBgBRuD6RoAJiuv7/vLVMQKMACPACDACjAAjwAgwAowAI8AIMAJtAgEmKNrEbeJJMgKMACPACDACjAAjwAgwAowAI8AIMALXNwJMUFzf95evjhFgBBgBRoARYAQYAUaAEWAEGAFGgBFoEwgwQdEmbhNPkhFgBBgBRoARYAQYAUaAEWAEGAFGgBG4vhFgguL6vr98dYwAI8AIMAKMACPACDACjAAjwAgwAoxAm0CACYo2cZt4kowAI8AIMAKMACPACDACjAAjwAgwAozA9Y0AExTX9/3lq2MEGAFGgBFgBBgBRoARYAQYAUaAEWAE2gQCTFC0idvEk2QEGAFGgBFgBBgBRqDtI5BdUAaXU/KgorLaqIu5dg1Eu7TsYqPacWVGgBFgBBiBtoVAmyMoKoqK4N977oCji99XI73/tZdEmbqAd1oMgSOL34MVN42Bk1//t845BH32kbhnefFxddYz5KShYxrSV2upc+aHbwU+GaEhrWVKBs+jsqQENj94D/w19SaI2bXd4HaNqZgZdhH+njsD1s2fA7mxMY3pqsnahvz5P3FPsy6FizFST50UxxEb1jXZmA3t+GTYFbjrzR2wbt9l0UVRSaU4/uDXkw3tslnard9/GSY+sR4eXrwXqqqvNsuYN8IgoTHZMPvFzXDrK1shJiW/SS75yc8OiGesuhpXoc1gJ0NVzzg95/Kfxz/e1wyjN2wIpc/hK98dFfNvWI8t0+r37Rfh583B0L59O6MmEJGYDV//cwbC47OMamds5eZ5Ao2dlXL9tQci4e3fjsLmY63z757yrPWXlpZXiXtM91n7JweJLTZGgBG4MRAwb2uXea26CtLOnMI/bLXcSkZoKORER7a1S7nu5nu1qgpCV62Aa9XVcHHlnzDixVf0XmNOVKS4j5XFRXrrGHLCmDEN6c+UdVJOHofTS77R6bIdtIPOLq5g38Mf+t65EDra2unUyYuLFfiU5zfNYkBnQBMWZFwMhuTjx0SPkRs3gN+0mSbsXbmruH17ITvikjiZePgg2Pn6KVdswdL8pERxTysKC8UsynJzxLH7qNEtOCvlofMKy+F0eDqMDnQVFSpxsU/H+hYUtGh9e+lx8HazgY+fUr6e4Ogs+OzPM2Bu3h4+eXo0dHeyVh68EaXr9kdDUnqh+IlMyIUAX4dG9NY6mn6+4ixciMyEl+8dDIN7O+tMit4qv/fLCYhOzIMxA93g6QWBOnUaW7D3VCJcis8R3Rw6mwx+3bs2tkud9sFRmZCeUwLX8B/g78iG2M//hsJBnN+7j46AXl66v1flfZZVVENaluab+OSMInC07SSv1qr2q67qfg6JPIpKzG1V86xrMuT9EJeWDzcN8gRzs9rvcXW1kc4FhaaCGZIaw/uofi9J5abYJqYXwJGQFJxbHmTmlYKrQ2fwce0q5ulsZ2WKIRT7+H1HKBQWV8BzCwYrnq+rsPrqNTgcnAxX8ZfAoQtJMGdM6/u7V9f8lc7Rpz+3UJOIyEd8iHCurDLO40apfy5jBBiBtoFAmyMo2gasN+Ys25ubw5AnnoH4A3vBf9acZgGhJcY09MJKs7OB3pLXZcF//ArTvl0KbsNH1FWtTZ1zGTgY/KbPgqK0FOi38N5mmXuPGbMg7expMMNn0Gfyzc0yJg9Si0BxaSWQ10URbpUsPbsEnvhkH2TklsIHj49sEnKCxr1/Zh8oK68GP/eu0NvbXmkqba6MiBbCNregXHHu36w5Dyt3RIAvkgb3zeitWKexhbPG+MCZSxlggeTSlBGeje2uydrHIlFW13MoH3jC4O5waNkCdREt8vzn/ak+5p2mQeB4WKroeHQ/N6MGKC6rhJCYTOjv6wRdrCyNaltf5cjEHFiGHh3lGHLSuaMFeHbrAqlIXiVlFMK5qAx4+raBWGZTXzcNOh+PZE2O1oLc0I6IrJk+wgcuxmbC0F4uhjZr1fWsOpjDBw+P1ZgjeVJQSBAbI8AI3DgIMEFx49zrZrnS4c+9CPTTnNYSY2pfH4U1kDeHmaUlmHfsqHHad+p0mP79T+qya1erIfX0Kbi0dg1EbdkE+994BRZu2wNmHTqo67TlHbqOad/+0KyXYO/fE+b+uapZx+TBDEOAXHYfRbd5IieIQLhnetMsomk2M0Z7ix/DZtb2a209GgdL/gmGrtaW8Mubk8Gms2kXbhJC/p62sPKDadJho7a0CCxH7wVaXHXuZNGovrhx20KA3vifDE8DLxcbcHM0zoPqFLajt+jGEhv1IURhAz9uvABXcW73TwuA4X1dhf8OeSbtP5cAGw5Hw3frz8HiR8ZCR8vW95V51ihfoB82RoARYASuJwSM86+7nq6cr4URMBECO595HH4ZHAC/DQuEY598UG+v7dqbQfcRo2Di4s/AsksXKEDXfykkot7GXIERaEMI0Jf8/2CMfFhsNowd4AZvLRrehmbfuqcacjkLXv3+KJiZtYMlr9wE3q5N84bXlChQCMage1bBoHtXCT0LU/ZNfZVVVJm6S+7PhAhcRA+IotIKGB3Q3eheKbzD1roD9PE2bdgWeXQQ8UGeCCNqyAmaXDuMMpo8xAsJke5AJOuZiHSj52xIg8oq1soxBCeuwwgwAjcWAq2PDm4C/LMjI4DEBrsFDgB7/16QFR4GySeCIDfmMjj06g2e4yeCrbePzsgpp06IxaP8hEUnK+gxc7YoKsnKhMywUCjNyhJvzv1vmSuvKvarysog8cghHDMUitPTwaF3H3TnHwmOuK3LrmGsacKh/XDl/DnRrpODg5irc79AsPPrUVdTqK6oEGPS3EoyM8Bt2HBwHz0WrBydFNtFb9sCVWWlGue6enipww5IDyEnOgrKCwvAxt1DLK6lypGbNgjPAelY2roMGAR2qLFgiJHnAemK0D0pz8sD5/4DwGfKzdChq61i84aOKV1n79sWCFwurf8H8hMSwNrFReBDpEFdRp4PMbt2qu55Thbejz6iLYVx9Jl3u2jqMnhoXV1onCNPC++Jk9GLYiMQxl4TJ2mclw7o3pCQYmboRbDo3Bmc8TmmEJp2Mh0WqksLAXJRAABAAElEQVQCsiRK2RFx85kyVWqus81PiIdUxJs+C/SZ0DYSnEw4uB9DNNKAQmjoOh1694ZueE+1x6S2pKUQt3+vdjfi2PfmadDBpv54dQqHSTp2GDLxs0kaJh5jxonPiYWVcuwvac6khwTrjEkeLD1vuVWnXLugNCcHLm/bLAQ1q0pLwMbTC8ccj9c4ULuq+rixz4+6owbuJCUlwapVq6AjPjcLFy4EZ2ddPYIGdt1kzb77+wJsD4oX4QffvzJRLKbrGuzExSsQHJ0phBhpwR3o7whjAt3EYkGp3dHgVB0dAarn7mwNo/orx6mT0OCO4/FUTcOG9ukGPqihQaQKzSHxSqFw+SbdB23NBXrruuVIHFBIQUlZFb4R7gJjUf9hYE/l37EaA5nggLQanvhkPy7Iq0XIjKQVot01eVjQ4mr+pB6QmVMKa/dFQ/yVAhFfT7iO7K/sFk6aBqQZom2W5mYwd4Jhb2tPhaWLcAvC0RPxCezhCMu3XxIeLhQq4mSnX+uBQoIMmeuek4mQV6QKfaEQmMPnU8SU959OEvdGPn/y1piJHjamNML/8LkUCEUCLgPvSR8MKxrer5vYao8jPXe0yL65jjCZhLQCOIV6Lz097WAAPv/XkwWFpgA9Q0N7dzPqsuiZTc0uEiRCe2IOTGT0WT+BBAX1OCpAOeRkTP/uQPMOCkuBsYGaxMoJ9OognU/SxKDPGYWKRCXnimv0Ri+RwB5OeL52vtVIhJyKuKKe/RXU48gvLsffb+1ACn1Rn8QdJ1v8vtld83vQqUtpQJ4o2ubt0lV8rrXLtY9pnuEJ+PcWtXoobMYdtYD83e30erSk55ZAbGoedEePFw8Mcwm5nAEReJ1VKGZLZUTqdMKwDH1G+kUXojOAND4oBNCuSwfwwn4Cezg3UGlG30hczggwAtcTAvp/q7TWq2zXHheFrtDRvpZFt3JywsVZgd4ZJxw6ACe+/AxGv/omJAcdg6Mfa77lNv/yc5j8+Zc6Yn7hf6+C6K2bNfrt3M1FEBTnfl4Kp7//WpABVKGTvT1oExS0qN/94jNicU91aEFKi2L6tj3o4cdRRPJlsQCkc3IrSkuFzQ/dKxatVE6LxKu4aBPfnPG47513w5jX3gKlxVt+fDzsevFpQcJIfYb/s1rs9r/vQRj31ntSsXp77JMPxYJdXYA7tMhzHToUdj3/NMTu3qk+RdoC8oX84Xffgkpc4GkbjWMIQUFEDGEkHwNWrwSbHz1g5k+/4SK6p3bX0NAxgz5dDMUZ6WDv5w9bHr5PLOilzs/+9IPQSxj/3mKpSGNLi3rylMhGcU+6f52dnCFi/VpRh57H8e9+2KAQjfYWqo9gdVWlxnjSQXlBAaxbcKuOCGzoX8th1s9/4OK/9q2pJZIX55b9CAXJSXDf/qPicyL1I9+e+u4r8VzP+X2lvBiuVlbi/X4K4vbtEeVERtAXJ/HsYYnrkGEw+bMvwcZDMwa9ICUZDrzxH42+pAPn/oH1EhRE4O195UVBdEjtQpb/Lp77Kf/9Rk0ISudom3j4EAR9/rG8SOwTOVMfQUGfhyMfvqv+7NL9pM/WqW+/gl63zofJn36hen2m1Xtjnh/qqkMXG3FPiEQhM8PfB/TsWFp3Ecf1/ffss8/Cpk2bRLWIiAhYunRpfU0afJ5cmV1QJM66xgWfvmTTsWNXzfClugbYfiweiKAwJPwgv6gCXvvhGOw+kSC6pC+89EWabMJgd/jvc2PBQWHsP7aEwwEURdS2aSO99BIUJID32pJj2k2EuGcHCzN45KO9QLoPkr3/2EgNgmLNnih4/5eT6hSJNY8PfL36PNx2kx/8P3vXARbFtYWPgoqK9CICUsQG2HsvsdfE2E3TJCYxvZqe+JKX8qKpJmoSU61RY4kae+8NUUCkqBRBREBAioD4zrnrLLOzs7ALCy5yTr51Zm6bO/8Mm73/nPOfL57vIx4pqb+5t7QofgrJCSIpygqZ+eTX46JdgLcDPDZnG9AiWbIfVp/BcJuWSHDoE7N7cdH9GQqaKo0W12URFJQ68oV5e4HIAzI3JCIIc1oMkj09rg1QyIghO4uij8bO9ZsVp7XinfLxFv59Vn4o9om0MidBQaKkz8/dA9EJ18X4NnWtBKlCz8OT9wfDq9M66ohAEkGyYM1ZSMSF4b4fx4u/J71JYgE9R0R+/fHhEL1q6e/Q2a7k75CInuzcAr22llZARFJEXDou5hubHCpxGAkCWuYbIhHKe60ZN/KF/gM9104yTOXjUTgKiQPHI0lCxACFJkm2fMc5cRyIXh3zVpyAq9d1fwu19nGGx0e20S7gC9BbYsm2CKm7dnsb/zjUyrsjaaIkKJbvjNR+92gHwJ0JA1qWSVBcSMoEyqCi1Lyg/88P6+oLIzBURE6o0PgxSLgsw+sc2tUPdockABEkctt+4hI8PbY9eLvp/3+MxFB/2ngGMu+QiIScRK2Qpgdpe9jW1/z/UD4m7zMCjAAjoFkdVSMcaEH2yN7DOjNWLrR0KmUHF7dvhQb41vHBVevBwccHbly5govMvyAUF0PbXnoOpmzeAQ5+JW+HOs96AYImTRMjFOMCkkgDMnpzS9kZPLv3FJ4XVnXr4Ztt3Te9uehV8ffkcehdcAt6v/MBtBz7gFioUQrE/R9/CCE/L4RbN29C73c/EGPK/9ny/DOCnAiaPBVaPTgJXAODRDV5gtDClIgTIkS6vfSavBsU5uTA31MfhHz0Qug863mx2CKviaTjR8X5zv75m/DCCJwwWacf6SPQ4pSMMjBIC7/QXxcLrYRmw0ZAI08v/NFdW7xJl3cetfh3fONd4qIYuW61duEub2do//D/PoXGHTvB1C27wMbRUbzRphSbCQf2w6aZ02Hajn1Q28pKp3uFzznvM+j99gfg3RsXErgITzh0AA78dw6EITHihW/u6a2/3GiBvu3l5wU5QZlJWo+fKLxRMmKi4eTC+UJHgkgeQ+SGfCz5Po0bv3+fKHLwLXnu5G1OLvgOSMNi+PxFUM/BXmSq2P/xHOFZc/zbr3SfH/yRETR5GlAK13OrV0KX516SDyX2yduByCB7H1/w6tFLp/7o13MFOUEeN/Tsk8cEkWBEQERtWCfIj51vvgYPLFmps4B39GsG9/+JZTI7gKEu5KlUlqWEnoaNTz4GNuhlcd9n88C7T1/RJeHgfjj65Rew663XwcG/mZ7HUcDI0cLTRj7+ukd0n2t5nbRPmVX2vPeWIAZ6vPG28C6ikJtLu7bDqZ8Wwvl1a8TfSPsZT0pd9LaHTXx+pAG6vvgK0Ecyn34D9L7LpDq1bV5enrY4Pz9fu18ZOyQgePBnjVcQjU8kg/y4rHNGXEyH17/db1T4AS1cZ3y0HU5jFocpQ1vCrAfbQhPXhnANF7W00PwVSYjp/9kO6+aO0vvx/MYjneDJB4K104m8mAH/WXxUe6y24+HSEJZ9PExbtWJbFGzYd0Ecv7/osNBHIKLB9U42B3kmEPLweOeHQ2Jx+dZjnaFLoLtYoOzAN/aLcK5rd8dCKx8neGKs5jtbexIz7rw5/wCcxfAOU0JmvvjjJLw3oxv0QS+PWrjAOoieJx8hTku3nMdxPGFI96Y6Mxzdx094r8gLp723RX5ocP9zPBeREyN7+8HzE9DbC8mIVNQf+Xt3DFBGkpe/2gdrvxglBDfVBjFlrp8910u8BZbG+XJpCIp5pqhm8SDyyVxGz+b4tzYBpUR9//FuMLa/P9g3rCe8NuZgKl4KZSGdjfef6KY9JREXU/H5/vS34/DXjmh4YVJ7bZ20k4GeOVuPxIMPeg/1RA8XpZHGiPLvUI3IUPazhGPyVKCFOIVMmGJEeJ04fwVaeDshQWrY68aUMaW2WZgdgswO750ho0U1iXLSIpuIICIz5Ebiqn9sCYfBXXyACAkiM+LQW+DvvdFwDj0VVu6KhMeGa76j6Bl8aUIneXdYgPoXFOahlsVDbV7PPdBBZO2QBiFNDzXvC6le2pInxNerTghyaOqg1hDs7yKIE8pcs/5ADPx79KIgYMb2DpC66GzPxF5FAsQWZk/tipluGkB6Vh5sPnIRQtGjYun2CCzvpkPMkncGaXvQ/XuwXwuBDZFAkYjJ3tOJcD4hHf5EsuYZJDfYGAFGgBFQIlDtCArlBZh0jL8Qhnw1X+umTiEEvd5+H6xxEXZywXwIwQXKgE/+px2SQimkcAoKmyCj7alF38PEtZu0ddoOsp1juNgjl/shX38PlGFAMhpv1I+/wvKRQzAl5x8QNGWazji0gCSSgN6s9n7nQxE6IvV1DQoW86O3vLSIVNrpX34CcpWnRXSnp5/VVlPoALmub3ziMa0XhrYSdxp36Kg9LCrQuMtmJsTBLSQtpm3bXeobcHqrLrekE6UvDuRtaZ/ICXk6Uo+OnWH04j9h7dQJIitD9Mb1SO6M0+lW0XN2eOJpoMWhZDT+bSSSSKyS3q4rCQoKz6GwBwpv6fTULO3inDxEur/2JpDrf+Ta1dD7vTl6ZIp0DuWWvGSIEKEQHCKb5F4p8rZN+/TTER0lUozIimUj7oMIFNns/c772vlQv1bjxgMRDedWrRQkFS2+5UahIvQMB6EXjs6vCWwUt3ePKCNvEAr/kIyumwgv3wH3CaJK2Y/CTpRZSIwJ66DxD8/9VDyTwxf+DHTvJaN7Quc9+MlHUHgjWyrWbunvgz5yo7dAZRmdo+PMZ5D4m6gT1hU4cYroSuRF7L8boTSCwtTnp6w5GVs/b948WLhwoQjxmDULn0MLNXpT+sxnmvADCpswFH4gTZ/IASInlG/zKd0jaVbQeLTwp0Xd5MEtpG5iS27wclO+/ZPXSfv0prtbUGPpULjo0wG9te7U2g0WvX2fIB20DWQ7VE8eAOPvay7CQaQqaV5EXmw+eLHSCIrFG8LFPOm8T+E8SH/CGJuJJE7/Tl7apg/0byYW17OR7CCPECVBQd4y9JEbpUcuy2ix9teOKPEV8fpDndAl3FZ0obf8NF8K26B0pUSwqKVMpcamzDW4WYknJfV1tKtHG5FetpNKSlZRaYZ/vlwWIrxRvnutP4zo5asdkbLHLH53EAx7YR0s2RIpBGGpTDIKtfly6SlYuT0ankXyRv42ntqs3hUjFnRThrRQfs1KQ1TLLb01P4QEBaXrVHoElHVBp6JSRChTDxOzfpQ1LtVLnieUOaI0I48uIiiyMBxDSVAQuTCwo48gJqUx2mKmEX9MUfrhr4fg5PkUGN2zGXqA1RfkBYVTyE2kbsY/LWW5vI18v5ki5MPY7BZEQpAHyPQRwYIskMb0b2IPLzzYAT7+8wh6SMRD33ZeGIZR4qEjtauH3p4z0BtE+hZo4NpIeIf85/dDItsJkTIU1iIZZUMZ17e5IEHaYziHZO1w3wNDQ+YgNuEX08TzXteM5KF0Ht4yAoxA9UagtjmmX4ALnjiM5Y+NjYWMjBLXWGPGvoaeBtSP4quLUIugMs27d18tOSE/D4VbkF3YXvYbIiIQ2j78mA6pIB+L9kl34tzfq8QCSE5OSO1q16kDgRMnC9f52C2bpOKSLS60KBykNsZqqplYDKosxmhxTR4B7R6bodfNxtEJxq/ZgOfVLMT0GigKrqOnR////LdUckLRpVyHpP+hZh2euHNPtpV9T9T6l1bm2a27XrWk/3D90kW9OvJ6ISMdD+WvRlokO2LICN1zErtUswT0klg6pL/2s+S+PvBH/57CI8EKn4U+73+EOJf8j10+BumVKM3e11c8W6RNcSPlik61jYMjEmKj0DsoGQmH3Tp15GMdvnK5IL1aPVjydlxqJB4pbGMo5MCldaDBeUpjmLKlcCTS73Bv30GHnJDGICKKnlmPzvpknNTG1C397XV/dbYOOSGNETBitCCY0mNjpCLVranPj+og5SgMDg6G+fPnw9y5c8HfX93jRm3Yinw/q41XWtktDNl6ce5eoLdy9LaQ3mZvvRO2YagfLeTInpuo/iaNwhjIiECoTKO5vzylg96iUX5O0k54/eFOOuSEVD8KU3ESYRCTmCkVGdxmZ2fDhQsX4BL+DeRiBiBj7HBYMnyOYReSJwCFYKjFoquN1S24sV7xgM5eouwiun2by0g7gjQ5muJCRSIn5GP3aa95ex6F4RGGrKrmauj8ZZVTiM1qJFpIr0ROTkj96BmZjAQDeVeQ/orcKP5+RG9fIO2BPYrQJPzqBfLmocUaEWCWZuV5ZqVriELNgrTMvHKFaBCx0QAXu+2blyxypXENbY39ziPBTmHSqtvAgFI1eQUozdqqttALUZZT6AKFpBBpdwbTgN5NI+0H8nTwQNKRvDyUZoXX0K+dt/DkUIZwSG0DvBy05IRURgSbNN7VjBypWLul65eTE1KFG3pgEJlBHjXk2cHGCDACjIASAbMQFNcxpIB+ZNH/FFJTjf8iLsYfhERQUL8b6G2QhfH2lWm06FczyqTQ0M0dKN6fvB5KM4of9+hS4rap1pYWuST018jLC2hf7UNvnclIqFNuRCR4dOgk+qx/dKrQrCCBz7LmRWkuSV/B1qMJkhsVd4N0DWpjUKRSPt+K7hu6J47+GjfD7KTLFT2FXv/a1nX0ykiEtJaVFeSnp+nVSSE2dB+URs9MZvwlsbBVvtGX2hajuGYRuudLH/JMoUV5a3yLP3H9vzoeNlIfaUv6I2pGzytZPoo9Ki14ykOiKHzFMp0qCm/IjLsIpCNCRIbSfO8bLIrWPTIFQn/9WYT3kBBsZdn1Sxq3ekcM4bhbRhooNzOvC/2L4sICoSMihTsZmpOpz4+hcaqqvLzfz+WZX+SlDCDhSvIo+PRZTQgRubzn4A9kQxaDMfzkuk5tLiZl6X0kr4jYO7H+hsapaDmFTJhqtPggDw9yzS9ELywiD4xR5U9DT7ebGOJHYTvpKn/DavOgUBdaqK3+fCSQpgRlRvl9Y4RaU70yWjQrjTQ9aIFBgp/mMvK6IDfuy0hQESZKo8wjZF53PCuU9XRcVXNVO7cxZUToEDFEmhZqzyuVNbDRfG/Ts600Kc3u8q3ndaqOIAF1CQUySSeDiAxLs/I8s9I1EMlAngLdA037G6PFa+zl69ClVWOog4toY83Y77z6JqYNVUszSn9D0neUcn6NnTS/88z5N6Y8hzHHV++QAG6Omvmo9SHvFjJDhIEVvvxSM4c74TFEgpRlpCtE7ehTv57mdxhlUGFjBBgBRkCJgPrqR9mqjGNSlZesXj3j/8daG7/w6uAbTSIoyOTjSONV1dYas3OQkeu9mjCjNA8iEJSaCFKdtM28s/AiHYVlQwdIxapbiu9X2rDvf4Sdr78E8Qf3izfMUr1tkybQpHM3aDPtEbHAlcppmxkfJw7VhDPl7YzdN5Txw9j+FW1n3UBDslAmiaoyQyECFO5A4qikqUDZLUR4CLob0EI29LfFQkuEwh8MkS3UnnQ+zGlq2TSk8Yn8IG+H+H17xPNMpBUZediQUViRmnV94WUMp8iB8L+WwUEUFJWMhCcpc0grzFQiZbCR6iqyJeFRMulvTxxUwT90H08jAXMZs8bkpV3TioBKp5ZELKVjY7eGnh9j+1dWO/n3qinfz+WdD2XPmPNUdyEQSC79h88mwzx0a5fH40tj0w93KQ580LN/S8WqWxJavInxzJIHgWqjChRSSIkxRsTALxsixHVdw7fC9KZcbsa4K9N9kDRF5PdHPo5yn7wzvnu9PwT6OcFHKGw55d1/haDicFzQkq5Geczczyx5YZHOxXoM2/kFCZXnJ7YTHgHkHbD/9GURykOimR3Kke3E3HMtD17UhwgIsv2nk6CsZ5aIGqXRtdM9JCHS5Gs52ntH3hNkU1G41BKtPM8sXUcuLkopi0Own4sgIk25tsOYWpSsp4nhHfK/qdK+80hbgoz0Qkoz+t4hk9qX1lZeJ30XZGTrk3XydpW9fy1T46VQWrYNqY6+Z00xFWdebXcKi9lzOgFORaeIEBljyFttZ95hBBiBGo2AWQgKO3RPp/8hFOKCrYGBtICGUPbz8xM/1OqiZwKRFXfbzLHAlxZcFBLQfvoTpV4SeW8ojTQJRi3+A7KRvLhy6iSkx0QJj4pr5yJQrHAtah5sAMpu0ByFAiUzx7ylsSxpW6e+cYuGyp7zSNQN2fz0DNj01AxBVpBXBYmPkmcLZbXo//FnlT0Fk8YnL4o977+N6UlXQednX0Th1AwMYdoqtCXkWg/yQUmvgkRbu7zwEqZ9PQ4kyipSzOLzR6KVlG2Drpk0KsxhkheROcYydoyU0yGw7uFJQvei+agx4BIYLMJWJMJn97tvquq0GDu+JbaryPezqddDwpI/zB6gzV7w0dM9YMRL62HJv5EwbkAAKDUD6Ecx/cClt+5fvNCnzNORO/XdtBDUypj67hbhmjy6jz8KzTmDHQqISj/S3/7+kFalvrR5enh4gIMDukxjR/liqrQ+r0ztKBb/1KZrkLtIHboGNQs+xIwii94aWFrXKq17/8lucAUzjFCWkN83nRN6HySaSmEN5Fkw76W+QBktqqtJegW90OPm8TFBpV5Gowbq10leFO8sOCQ0J4jEyci+CdtQWJQ0VSpTO6PUyZZRWZ5nloY8jlkf6C25qeKYxeilciQiSWSH8EK9A1PM2O888twik7QoDJ1Dqre7Q2gYameoXCIqDNVXdrlE6lJIhSGT6kijxxxG4TBf/nUCiMSlMJA+bbxEViihuYEn2HUqXmhXmONcPAYjwAjcewiYhaAgWIhgoI+pRl4UDRuW7+2PqecqrX3utatCv4HelFfUtC7r+D8DQxoLxpyDMmfQR270Bn/T048DZbqQExTUjjw7ck0IsZGPa2n7JB5JZtvE0yKm5tKyFYpVvooZWD7A8AgH4bFC+hBNMNyHPFqsTPAcqooLajHmfpGNJQKzeXR65nk4v36tRhzTgPeEfE4kcOk7cJD4SOXk7bDuoUko7PqnIDwauLhIVeXe2jf1FX2le13ugUzoeGLBdwKHTs88p5cFh4bZ++G72ow2Jgxr8U3L+/1s6oW5OTXQeUtKcfpPoUDjd3+FwtsoIEnZG+TCgERQUFhAWmY+9MY37/I6U89dFe2/x+sgVfpnx7eFVzCNpNLeX3TEqBAP6lffRPK1OcaAy+2tRzvDzmMJsONYvMiaMbhbU3n1XdsnEcF3pnfBVKHbgcQxL1zOBH9PO6DMIDNwQU8eFNXZ/O+IXtKCjrLdlMcoVeunv1M2jygUy2wL6/bEiufKUr0npGs09ZmlfgcxRShlOAny09c+kMZV2569eE0QByO6+6tVl1lmzHceiUHSgpzCtPILilTTn6aJ8K1iQaKaSjSQqCaZk4roZJkXYMYGrqj5QEbXacikOtKHMIdRZhEiJ0jU87lxHfSGJPHThKv6Ath6DbmAEWAEaiQCd/d1VBVDnqMQFJROfy3ynEjRSW/CDcX8S22N2RJZQF4QlPmBNArUjEIyyCNCzSgThyEjMcdG6LJPb7blsfJETji3ai3elEuijsox6O1xVS4GledXO85JSVErFm/wqcJRlvZVtWEVFf773FOYqWMVPLb/GEzasEWkpB2x4GeR7cHSyAmChLx4KNvLjaQk4f1A4R11qEyREUUOX2nPHaUl9e7VWzRPj4qUdyv3vlPz5kAioZS1Rv4sywckoU8pg468vLz7kuZL6/HoRaEwmkPxnXAzRZXFHJKXGmn3VCd7BhfzlDaRQiP+wDfqSmvX3EUszkhQU83IvXq3QlBQrV1VlEkCmBMGtdA7HbkvE3lRVeaIXiezkaQgIy8KEqe0BCOtjBkf7YBVn42AzV+PhZ0/jIM/5wyFN3Gu1Z2cIHxJe4I8fsJi07ThSUrc469kA3mNGDIi5sb1D4Ck1Bw4gKEilEmlPnqXPNCv8vV4zp07Bzt37hSf+Ph4Q1M0S3k8Zna4nHoDugV6GNRpMHSiQ0hskB4J6U9UlpFHVueWjYWHB2XbULOj6MVBZkg/owD/7klbQc1ikzQaJO53tCjU2lRFmSvqS5B+RtK1G1BoQPPh0hXNb1VvN9O8VQzNnzymyEgoU81IbJaNEWAEGAFDCNQogiJ64wZQii6Si/7+/7wv8KE34eYwchfv+uJrgpzYN+ddvQUWZQLZ+MSjsGbi/ZCVmKBzytOLf4Q/+nUHShlKWReURgssytDg4OsHlJFAbuTKT7b/ow9QkFFXGZnegG+c+Zh4C16MAp6WYiTGqFyckqjoiR++E1MMNtM9qcj10jNzccc2ISxpiWSEoWsLmjxNVO3/6EPIiImG5qPHYoYOTdo/ZR8S0FwyuC/seB11KFBwVWlUdiXklCh2atFKWV2uY9JzCZ76MOpkJMOx777Se95jt24WITX70KvBXEapS8lit2zWGzJ8xVKRWlevwkIKFixYAC7oueLm5garVq2ykFmVPQ1yL54zs7to+OWyU8LVX97rpcmazBkfoPdBaoZu/DOJUL785T544uMdQOlI77ZJmSm2HL6kN5VlKHpY1THWEzDbA6U+pcUAYWsJ9vumCPFW2h49KarayqvFYco8SRDxlakdBDnx/qLDeqQUiYM+9p/t8ODsTZCQoq9BIZ1r6lCN1sQcJJdITHMshgzZGggJkfqYY/viiy/CoEGDxIdEyivTSByTzFQNCdIuiMAUlB2au4s0lZU5xx7BGi+Yfw7FigW8/FyUwnPnyTgRimUozSl50mw/cUneTeyT7kZoTKrwKOtQSgYStZSeeoNVsIAERod08RUeKf9gulHlL8vE1GzYF5oA5D3RpbVHBc+m6e6CaVXJQhAHpcUhGXLpivmyBynH52NGgBGo/giYLcSjOkBBMeebZk4Hj06dgdzLaWF0YccWsbVr6iNSf8qvI2z5EiCvAzLKykF2MzMTds5+VexL/5AeQdtHZ0iHYhs4cRJc2PYvECmSGh4G/oOHikwhyadOQOLhQyJrQJ93PwRpwSR19urVByJWrYBDn/8Xzq9dDY07dgJXjJMvyMmBlNAQSDx0QMQ/d3nhFamLduuHWRj8hwzD826BFWOGQ8CwEdDA1Q29EY5BAvajLBLD5/+oJ/J54OM5cDNbw55TJhCyKyEn9a6TFrhNMVWr3Pa895YOAXMtUuMVQiEFV8POapt6YjiEWmrLpv36w/KRQwQ+No6OQOlNSWOD0nYKjQAUe1RaRc+pHK+sYxIMpSwfhOuiNi2EdwzpNZBZo5u2LYYFkTAlPQN3W1xUfi0k9tqkS1fUjTgmiiXCQt5G2nfGEBYKVyGNEyIrPLt2A8rkQtomKaGnIREFJUkThQgFZXgHkWzHv/taGkpsiRAhO/rlXMwGYy/26R+aQ+MOHbXHFGpBXhKnFv0AySdPoJdGH+HFlHBgHx4fB9vGjaHbK29o20s7JAAavekf6VBsKSNHYW6O3nPb+50PtOlRSZsj8fBBOImhHhmorUEZeQrxb4v0NWxwnpRZJRL/7rY89xS4tWkHHZ+apXOOu3nwyy+/aDMdLVmyBCZM0E8VezfnV9q5SThxVG8/2Hjgonjbv/DNgdrmzZs6wPOT2sPXy0Ng6AtrYWzfZkBu9FFxmowg9DaahCBHYYiA0hZvCIdzl0reVKddzxdNzsZeg9e+3a9tTj+W6Q0+GZEgn/95QlsXHqvpv2pnDMbL675FpbSjnq4lpB5pBxw6kwzzV4UCpcokLYjcvCLYG4Ju7KhFQYQB6UI88/luaBvgDM882FZ7nsrYIe2Lj1HnY9QrG4R3ygP9m0EQ6mJU1EjA8Z8DuoQQkUUUVy7Hlc7z/uPddMJ6WqKOwo7jCdD5keUiG4XkFk9vqykEKADv7aOjWkNrX6eKTlOv/9BuPgKH+RiK4+xQIt5NDcnN/m0MPZGMMor8sVnm0XNn1ZadU6B3jc9NaAe+6AUk2UTMUrPlcJxIfRt+IR2GYHgNXdvJyKvi+SCSgkRhJUJL6iff0nNPz8+xcM0zV1XhHSEhmt803bp1g44dS76L5XMzxz6RdScir0BzL0eQQgyMHfdIRLJIz2kqsWHs+PJ2lO5ydM9mQATFvJXHoWVTJ2jsZAu0aI9KSEfvitsw5b5WBsM0iICtgynh5644LrQWKEwtDj1HzsSmitOM7N5Mq8kjP6+0T2k4/z1yAf7YGi4VabfNmjhArzYaAkUqXLbjnPD4kI5pnmSUHpQ8ViQj3OXeCwM7NoXTmGp0J2o/XEjOFKKl5MlD/Y8i3pSlY+LAlmYLsyPPl+0n4iAcQ3UWbQiFlt5OwiOGiAnCZ1zfFrByVySsR8KEwsIeGx4spk4ec1QuNymzyDpsS3OWjAisNv4u0iFvGQFG4B5CoOQv/R66KEOXQvoSQ7/5Aba/+gKEr1yueWOLv/C8e/eBwfO+1csmQAt7IhjkVpSfB+fXrZEXoadEph5BQQvYUT//DiE/LwLyijj14wJtH1rE9n77fWjz8GPaMmnHBcM0Jq7dCEe/moukwkEkK1YiObJMqhaLxs7PvgBERqjZsG8XCO+LUz8t1DlnoyaeMOC/n0MTXHgqLWbLJr3QD1p0Kr07KDOEkqCI/mc9FCq8NWh8ctunj2SUGUGNoPDq0Qt1Nrzh8P8+0Xq3UNt2jz0OPWe/LXXX2Vb0nDqDGXFA8+k35xPY9uIsaODurtODFrdJuJC+fOyISAk7cd1mQUTpNLqLBxTKQAQFLbZdgzQ/ANSmQ2lHRy5cDGeX/C4Iogvbt0EU3lvJ6G+nx+tvYUjLE1KRdksCnMq/Cany0u4d0q7Y0vMjJyjIi2LC2k3o9fM+xGzeJMg0qQO16/efT/QIEapPj45SPSelcFXOpfurb2gJCv+hw8W9PPrVF0hErBEfyr7i2b0n9P/oU0zVexXyMe0oab0UF6m77Urzq+rtqFGj4OTJk5iurzYMHz68qk9f4fO9O6OryFywHcUASTdhUNem2jFJKJAENP+DKUnli0aKD5+Cb5rff7yrqov4YSQL1MI/yHV+7e5Y7fi0uJQICkpxJ6+TGoWcvwr0kdv0UYE6BMWwHj6CEKCsJH/vjhEfmiNlLvlkVk+4iuKQFMu9+0QCFOECrSqMhBVJrPHHtWEovHgY1nw+ssKLjKj4DFWMaNGpxO71hzrpEBQforfMQczcQgKEck2RIiQQKcyHMCYS55f3B2tFP82FUxdc8JMw66od0bAPSSO5UWiGnKCgDBvKa6H2tEBSlk8d0lKHoKDr+vWDwQLzn9eFwcK/S8h4Eop9D5/XR0e2lp9edX8ihgoRQdE2wMUsxJLqSWSFiYmJIrU7FT377LOyGvPvhmDmBgp9MJVkIJ6I9Asoq04ALrKrwoZ180PvlbqwExfU5PUQCqmA3J/QxxnZoxl6criVOo3h2J/CuyhjRS6SeGS0kJ40sFWZISr92mu8+kgQVJmOlER0lQTFcSR91ELJyCuBPpIRISgnKChc5rVJnYEW+QfPolcokhRkdA4fdzt4aEggeKAekLnMGUnhZ8a2g+VINhBZQx86lxcSvo8NC8ZwrwZw+Vo2hERd1SFW6DuGCBM1k0gfqc4dx2CCQkKDt4zAvYVALXRPU3p7lXqFYWFhoj442PBip9QB7kIlkQNH5n2OC953hGYATYEWVaTjQCkkDbm9m3OqlL40MyEeGji7AMXzG6t1QZ4ElE2hFv4gsvXwVF2sGZqndM6G6EVh7+ODY2je+htqf7fLiRCh++LSsrVe+MrdnBuFm4T8tADG/rFcLPSVc6Hwhz3vzhZv9DvOfAa6vzpb2eSuHR/+4jMkyRbCgE/+J7wDjJ3I7eJbkBEbix5D14VQKXkyVPbzQx4Q9DdJIVCNmqDidxP12FVjr6G0dqRrkYU6MDezswVxU97UoqWdozLqriKBQtmOHNHb6F61zBsF6J2QITI9ELFAmR8szWiBQJ4d2bmFuLB0Eqk0LW2Od2M+RAq8MHcvCoh2gEdG6C/QyQvj943n4ONfjolUo6uRTLkXjNKF0vNAi2ofj0alvjGXX+/nf5wQJMdnz/US3jfyusrY/+eff2DMGMxehKFiRFaUloKzouf/etVJ8Xb+05l9xZtzY8eLTswA6jumVzMY2lXfa8rYccrbjgjMqxmY/tXZVudtvdp4L367S5BwXz43QFTTr2ladJNHBS3AieSwRKMf/akZucIjytPFtlK/vwiT9Kw8yEDils4l94CwRGx4TowAI2AZCFjeL78qwoXeGDfu0KmKzobZKDyaiI+pJ6S3u+7t2pvaTbQv7znLdTIzdKJwF2XIixmGrdAQtJA9/cuPQCEQ5IWgZhQG0WHmLEFQUBiEpRjN/dyav4T3gDzjizHzIzKCQkSq0ki7xbFZQJWckggJx4DmVXIuc56E9CfudaNQiS6Bup5KlnbNFLYQ4K2bVcPS5ng35kMCmfQGmTwD1Iz0Gyi843sMkUlED4Z7xUj7wlT9CyK5KKyIPE0o/KkqTArvmDFjRqWSE6nXc4GIhj5tvUwiJwiDQ2FJwlvKkChlZeNkiylwbeuX728bH2/0EDCPyGRlXicRJ0SgVIURJuRNQR82RoARYASMRaBGiWQaCwq3YwQkBMiTgLQ7Us6E6oW8SG1oe3HHVnFIug2WYhe2/iu8ESibh7UN/ziwlPvC82AE7lUE6O3zreLb8O+hSwYv8TiGNGRk3xQhPQYb1YAK0rAgrYpxAwKq7K0yERQUIvb0009XKsIUokFmangHhYRQaEigrzNqulS9yGqlgsKDMwKMACPACBiNQI31oDAaIW5YoxGghX0rFE6MWLkM/p70AAQMHw0NG7uj0Ki10N5IwxS1JIJK4SnkYdF6wuS7ihdpSJC4KxmllK1nZwcdnnjqrs6JT84IMAI1A4GHUESUNCbe/uGQEIv0a2IH9VCj4xYKDcYkXhepOSljBaVIffWhyhNotFS0SV9l6ZbzYnrkYk/eEzPvr7pw2UcffRQeeeQR8PPzq1SIAn2cwR8FHpuitoEpVoQpMGeMaANNMBSAjRFgBBgBRqDmIlAjCAoSpaQ328rsAzX3tvOVm4JAvw8/BjcUmIzauB7Or18jdAsoBSyFJNSzdwCngABo//hMaDl2HNRpaD6RKVPmKLWtbV0HrOvZgFXdOuAW3Bbn9SSQwCUbI8AIMAKVjcDYfv7gZG8Df22PQkHURFi/96bwqKDzNkIRQk+3hvAsZsQYf1+AjvhoZc/LUsandI8kqkoaBW0wy8uTY4PB3blqXO0Jg/vvv79KoCivuCU9I22buVbJHM1xEm+3RjpCsOYYk8dgBBgBRoARQAHfmiCSyTeaETAnAsWYcrYw54YQV61s4UhzzpvHYgQYAUagKhEggbzs3AIRwkBZBNgYAUaAEWAEGAFGgBEoC4Ea4UFRFghczwiYgkBtKysMnbA3pQu3ZQQYAUagxiFAAnkUxsDGCDACjAAjwAgwAoyAsQjwKw1jkeJ2jAAjwAgwAowAI8AIMAKMACPACDACjAAjUGkIMEFRadDywIwAI8AIMAKMACPACDACjAAjwAgwAowAI2AsAkxQGIsUt2MEGAFGgBFgBBgBRoARYAQYAUaAEWAEGIFKQ4AJikqDlgdmBBgBRoARYAQYAUaAEWAEGAFGgBFgBBgBYxFggsJYpLgdI8AIMAKMACPACDACjAAjwAgwAowAI8AIVBoCTFBUGrQ8MCPACDACjAAjwAgwAowAI8AIMAKMACPACBiLABMUxiLF7RgBRoARYAQYAUaAEWAEGAFGgBFgBBgBRqDSEGCCotKg5YEZAUaAEWAEGAFGgBFgBBgBRoARYAQYAUbAWASYoDAWKW7HCDACjAAjwAgwAowAI8AIMAKMACPACDAClYYAExSVBi0PzAgwAowAI8AIMAKMACPACDACjAAjwAgwAsYiwASFsUhxO0aAEahyBBJTs+FicqbJ503LyoeYy9ehoPCWyX25AyPACDACjAAjwAgwAowAI8AI3B0Eqh1BUXDjBqydNhEOfDxHi9iuN18VZdoCE3fOLv1D9I/fv9fEnlXT/HZxcdWcqBqdJenYUXHPItesErNWey6q0eUYNdXi2+V7Dm7DbaPGt7RGeTeLYO6K47Dl2EWTp/br5rPw44ZQqF27lsl9uYMuAqt2n4f3Fh+ADQdjdSss/KiwqBi++usELN501sJnytNjBBgBRoARYAQYAUaAEZAQsJZ2qsv29q0iSD5xDBceJdzK1bAwSI8+X+5LyE5MEGPmpU0q9xjm7phwYB+E/rYY0mOjISclBRq4uIJrUDC4BbeBFmMeADvvpgZPmZeeDltffAbbt4Feb75rsJ2lVGx/9QXIvXYNxv6+zOgp5V/PEPfMq0dP0ae4qFDvuTB6sCpuuP/8Sfjr2BZx1hYevvD8oGmqM8jMzYblRzfD4ejTkJx5DW4WFoCbnRM0c/OGaT1GQRvvFqr9qPA69l16eCOEJUZD1JVL4NrIEYI8m8PQNr2gq38bg/0sqeJ45BWgRWbPYE+TppWcliO8LgZ0aArWViXfEyYNomici2QJER5qZlu/Drg5NoTOLd2hiYutWpNqW3ar+DbsC02E4tu3Ye/pBBjTq1m1uRaaM3nRONvXrzZz5okyAowAI8AIMAKMACNQ0xGodgRFTbhhe957CyL+Wi4utba1NTRu1wFyUq/CpV07xOfMH7/B8B9+BI9OXVThuHUzH8jDoLZ1HdV6SytMCT0NN5IuW9q0KmU+OTdzYe6WXyE7LwcKkWyTE23yEyZmpMDMXz6A7PwcUezp6AYuto4QfjkGriBZcTA6BJ4aMBEe6jla3k3sp2SlwctLP4OE9CtQz7ouNHf3ASrbFnYQdoQfhtkjH4cR7frq9bO0gsPhSdCoQV1o4+di0tSoH1nP4CYm9Sut8a1bxRCdmFFaE9hx4hI80Lc5EDFyr5gVeqAM6+YHZy+kIgHT+F65LL4ORoARYAQYAUaAEWAEGAELRYAJCgu7MdGb/hHkhI2DIwz89Avw7N4T6jRoIGZJXgYRK5fCse++hn9mPAJTt+wEWw/zLcIsDIp7cjqLdq+C9BuZMBPJhR93/2XwGj9ev1CQEwNad4WZ/SeAl5NmcZhbkA97I4/DZxt/hp/2rIJuzdoKAkIaiMI5Xl32P0FOTOw6DJ65bzJY17YS1aHxkTD7r69E3yZIeLRv2krqZnFb0p6IT8mCQZ19TArToDf+RyOSwaexXaV4MzS0qQP/e6afDl5J127A6ZirsPnIRfh7XzS0auoMHs4NddpU54ORPfyBPmyMACPACDACjAAjwAgwAoxAZSNgHv/nyp5lDRo/fu9ucbVdX3wFfAcO0pITVNjAxQU6P/siDPriKxj67Q8GyYmimzerFWJF+fnVar7lney5pFhYf2on9GvVGXoFtDc4TB6SENS2dq3a8OaoJ7XkBHVoUNcGhrftA4OCegi3+5C4czrjnI6LhLi0JBHG8fzgaVpyghq1Q0LirdFPIoVxG9bhPCzZDoVJXhCmhXecjU2FG3kF0DPItH4VwYLCOkZ090diwgmKkSA5cseDoyJjcl9GgBFgBBgBRoARYAQYAUagJiJQozwo0s5HAmk7ZMTGgEvrQPDq2RscmwWUed9J0yFm0wbIuBALRXm5YNfUB7x79QX3duqLTAqvyEyIA68evaBRE8MLpdgtm6AgJwdajh2H4RiaW5EeEy3m4+hvONa7xej7deZ8IykJEg4fEGUkqEmhIGQ5KVfg3Br9t/RNOncFex9f0Ub+D+ESu/VfIE2O2nWswb6pLwSMGGWQCLl87AhkJcTLh4A69RuIPlSYey0VUsPDIA89P6zqYqjB6LFQXFgI5zes1fahc+Zi+Eot1BRRm6sDztMD52tuS0hIgGXLloGNjQ1MmTIF3NzczH0KnfFI4PKLzb+CTZ168OKQRzDE44ZOvfygAEM/AGqBC+pGECGhZk2dPURx0S3dLBUbT2uEXsd0GKDWDXo37whODe1hX+QJyMI52NW3PM2EQgynIP2JZp4O4O6o8R5SvRiVwkNhl6GutRV0buWuUlu5RR1buMG5uDRIydCE5aidLSohAy5dycQ2ueDmUB983O2hpY8T3m3DRniEoodG3JUs0a6FtxO08HYU+hpHzyVDvTpW0LGF7vWevXBNEDVUTvVKOxWVgpomt6Bbaw89D5VjOCZ5oijNt7G9Qc8Qup4LSdeVXaBDc3ewqWslsqlcwvlnZOcLYq19gBvUr6f/vx9z4qM3GS5gBBgBRoARYAQYAUaAEbB4BPR/IVr6lPGtsm1jD7BxctbOtIGrKxTcyNIeq+2EL18K+z96H4rlC7patWDIl9+pNdeWkRbE/o8+gFsFBZoy7AMovnbsmy+h5f0Pwn2fzcW1pO7yIjv5Mux++w0ImjwV+s35RDuWfOf6pYsoZPkseHTsDK0fnKitqu/oKPbj9u0R4R3ailJ2UiPCxPmUTWjxT/NQ2n2fzdMhKIqLigQ24SuWaZreuUY6OPrNPOg5+x1oM+0R5TAYbrIMojdu0Clv6N5YEBSnflwAx7/7SotbfScnQVAU5uWpzomIFbW5tho3XpWgsEZigZ6DuraNxPmJ4KDj+s7G6RU8//zzsH79etE3MjISFixYoHMd5j5YfWwbRKfEwQuDHxKClaURFPZIGrRFAcyzKHCZj8KYNnXq6k3nMmpUkPVp2Umn7mxilDgO9mquUy4dWCFOrZv4Cw2LqCtx0NkvSKqymC0txnPzC9ELwrTwpes3bkJEXDp0bd0YF8VV/9Um6YkU3dJf3JPI5pJtEYJoIKCJRCko0pBLQb7O8PDQIKG3obwJmTk3hTgnLe4l23kqXoSwPD2mvRiTRCCVBMW/Ry8IQoPIDDWCYt3+aKBUrILAuBMCJI2/fGekanrWCQNaGiQoSJ9j+Q5dbx4aLwBJpovJefD7lnDIzr3zHYrlRHbICYrKwke6Jt4yAowAI8AIMAKMACPACFQPBKr+V3wFcalnZweP7D2sM8qYX5foHCsPko4fg70fviO8FLo8/xIEDBsJ9TFcIgO9FWghnZ+Rruwiji8fPQwkWEkL3x5vvA1NunTFN/1W6KGwHU79tBDOr1sDzi1bQfsZT+r0Dxg+Cg5+8hFE/bMeF/fv6oRpSA3DVywVu0FTpklFYtu03wCIRy+P82tXQzOcp3vbdjr1agcenbvA/X+u1FZlxl+C3e/MNpjFw0HhnXFywXwgcsKza3fo8OTT0BhJE/K+uLB9K5xc8B0c+O8czB7SVs9jpPOsFyBokmb+lEVjw/SHxBxSzoTC8flfC4LFwdcPvSfqQZ2GmjfhdRo21Jkrddj01HSgsJSxv90hSLRXgiENSD6pWdO+/XWeg3p29jrHan3kZXlIlEiWX8khJqlZ6fDzvjXQorEvPNhlsHTaUrejO/SH0Pjz8NXW3+HJfuOFNwV1IGHNQzGnhdglaUh439GmkAYjfYvaSDA5NrSTivS2TrYOoiw9R/+Nt17ju1BA4R301l256C5rKhRacRvJQ1OzfpQ1rrH1YSgkSeam8PoguuL7v0OE50Tvtp4wtKsfODWyEQv2bccvwS4kHL5fGwKzp3ZTcp3w279h2C8LvN0awf29m4Onq60gD85gKMuSbeHifOb+57kHOggvB2lc0vSQhEelMuW2jb8LuE8oIctW7IqEK5hNhVLF/onEjAuSKOQ1IRFHlPlEsuqGjzRv3jICjAAjwAgwAowAI8AImB+BakdQlAeCU4u+F916v/MBBE99WDsEhQ4Ma9seVo4Zpi2T75B3Q8eZz0Ar9HCghbZkgROniF0iL2L/3ahHUFA4Q+vxEyHk50UQ/c86CJw0VeoqtuSNcX7tGiAhTCIh5BY85SGI2fwPXAk5BWsm3i9CUTy79QCXlq3BvUNHnXlI/WicJl27SYdQF0kcsnr29jrl2gaKHfL0uJmVCd1feR2sMUSDrK5tAHTC8JeMmChBtFzYtkWPoKDwGClERvIwoS3hPXHtJm2d/HS1raz05kThLbWQoJBfg7xPZezPmzcPFi5cKEI8Zs2aVRmn0I759bY/0Z3+Jrw+YobQldBWlLIzJLgXelo4wX83LILNoftEalFnJBbOJJzHN+9FMK3nKJjRd5zOCCSgebOoAGxtGmjPczT2DKw5sQ38XL3gmYGTRXu7+hoBRyIzLM3SMvMgKj4derbxhLoqoQmG5kuL3ENIUBA5QG/tq9LyC4owy8U18SFfqh4Kz48TGK5CYR192nnB5IElwqSUoeTBfi0gB71FiASg8JReeN2SUR8KeXCys4FXJ3WBOtYlkkEDOjaF+ijYGX4pTWputi2F1siNUnWWZfYN6wF9JKt/x4Pln0OxMOW+1kAEhiGrbvgYug4uZwQYAUaAEWAEGAFGgBGoOAJmISgKcFGanJwMRbhwckJXfsc7YQrGTO8a6hNkZmZCXVzUe3h4gPUdLQZj+hrTpig/D+L378UFt60IuVD2ITLBCzNlXL94QVmFOgx1oPurs/XKqSBgxGjY9+G7kB4bo1pPpETI4h8hHMMglARF7NbNkH89QxAbdH650TnJG+LED98hMbAOrkWEi4/UhgiBDo8/haTJBKmowtsGrm5A5I2atRjzgCAoKFzEGCNvlLYPP6ZKThjTv6raBAcHw/z5800+Hb2hT0LND/LAaIjeIPTMlmaUDnTf+RPoOTEEWnmUkFyl9ZHq/N28MdSjJWwPPwSxVxPEh+rc7ZxF9g4pO4fUPjM3W+zWkika/HlwA4QiqXE4JlSkFvVxLgmbyEQNCnObqfgoz08kA5ENpqYIJVKDyI2xvQOUQ5Z6bOr3D4UifPjrIZ0xSVehCHUiaqHnyhg8P3k7yG1faII4HI7pOtWsXztvQVCcOH9Fh6A4Ha3xyOjX3luHnJDGoNAQSzcfd7tSyQmaf03Gx9LvH8+PEWAEGAFGgBFgBBiBqkbALATF9evXITc3V8w9NTXVaIKiGHUHaIFAixoiObKysgTBYU4QsnExSebg6y/CM9TGtq5fX61Yr4x0Egqys4C2ZFb16gnRR72GWGCPQppNe/UR4RpXw86IEAmpndB6wMWMFB4hlUtbIikoiwd9iBi4FnkOrp2LgMRDB1B08izsevt1FOyMgR6vvyV1MeuWNCnoOsloLmTFqIVgjBHh4tGlxJvDmD7VqQ095/ScktFzT4RcPXwO1CwfvSa+2vK7CM+gMA1TbP2pXbAI05D6oBjmF5NfgxbuvlAfQ2WSr6fC5jP74cUln0Jf1J94dfh0IM0Ksgb19J/jXi06QhRqX/i6eEITBzedKai112lQjgNT8FEOj18DIgNGE2dboVGgrC/tmIiN2rVrQffAEgKmtPZUV97vH/zTFUaeE1k56LFSv67wmmjf3A3nrR9ak4yhDqS3cLPgFlwt0HxPakbQ/CuNdyU9R14M6dmaMKTGThqPF51KPDDFw0TZt6qOW/uUTaLUZHyq6j7weRgBRoARYAQYAUaAEaguCJiFoKBMCJIZWqxJ9fIticrVwQUwkRNk8nHk7Sqyn3MlWXS3rl8yR1PGIw+G07/+DJePHIK8tGu6Ips4kNIDQj52EIaTkJ5ExMrlWoKCMoEknzgmMojY+/rKm6vuS2EUzUeOxvrZEL3pH9j+yvNiTq3HTwIHP3/VfqYWXtyxDc4u/UMQIeTdQUKg5TEbRyegMI571cjTRzLp+ZWOldtf9v0NKVlp8NGDz0NDFfJA2V46jrgcC/P+/Q18XJrAV9Pe0hHJJK+K5wZNBfsGjeBHJDBo3NkjnxBdKXSDvCqIGKFUouRJMaX7CJjcfbjYl8anNKZkTqXoVEhtTd2ago9y7AjMgEFCl4M6+SirSj0mr4bT0Vch2M8F7BqW3J9SO2GldP9M+f5pgETDB4/1FEOT6OOHvx7E8J0i6IPaEiRWqTRKeUo6DGRzftP1vFC2JbKDMnbUsdKEcmRk3xRNSFCzulpZ96Om41Nd7yvPmxFgBBgBRoARYAQYgcpCwCwEhR1qHhC5UIgpJBs0MC0toJ+fkl4rjQAAQABJREFUn3CXp4UNkRXmNmO9I9TOm3I6BNY9PEks1puPGgMugcFAIp2UMYJs97tvlrqQ9x0wEFN0eiCpsAF6vfWeEMs8t2qF6Bs8WVccUxQa8Q8RFZQdg0JSkpDoMAdBEfrbYjj46UeYAcMZM5OMExk+6mL4AllWYiJmLJlnxMxqRhN6Rlu0aCGe2froeSNlblBe/QUMyfjr2FboEdAO+rfqqqwu9Xjv+eOCYOjfqosOOSHvNAw1Koig2BN5XEtQECFB4pip2RmYxjRHm0JUHvJBY0jaE04NdbUG5OOXd99YfNTGP4waDNa4OO+CqS9NseOYFpNCLMojjlmR7x/SkCDBy/UHYmDNviiYOVpf0JbIBXK4sMW2lKmjLLNCLxDJ6tYp0ZyQyu61LeNzr91Rvh5GgBFgBBgBRoARYAQqhoBZCAqaAhEM8renxk6LFngUy19ZZuuhcfnOxdATU+0EZrAg0cdOzzwH3V56Ta/7XtSgKEZSxpBRxo/AiVPFAp+EL1uOHScyf5Dmg++gIYa6lVnu2b2HIChuonZHRY3CVY59+6UYZvDcb4Rnh3zM1PAwJijkgOC+FXqI2KKmSWl28lIE3Cq+BbQdNnemXtNbd8KETsdFauvnTn4Dgr0CIO2GRpTQAb0kDJnDHe+HG/m5QhiznrXGc4BCOYiguHjtMrRD/Qo1u5h6WRT7oodGZZgx+CjPS2/SKTNFO8z0IM/woGyndnwQiQ0SaAzyKzucQNm/ot8/A1Gs8sDZy5g+NBXOoQeIMqSBwjAc7mTsaO2D3kVSPIdyIirHlOmDLCtX40mh0sRgkXSegkJNKlODDe9yxd3C5y5fNp+eEWAEGAFGgBFgBBgBRsAAAvf8K7qGbm5CIDMrIR5yrqaowkApNdVMEoakUAqlETFRfCc0RVknPw6cOFmkN434azlc3LkN8tLTIXDCJINhEBRmEfLzQvkQevuUHpXMqXkLvTpTC+jaC3NywLZJEz1ygsaiunvVyOOHdAgqwzwcXKF7s3bQ0ScQ2ni10Pu0aKwJY2iEGTekeikMxAdJBrILqYkGp0YeGmSN7V1AIifoeES7vrSBLWcOiK3yn3NJFyAuLQkoRSnN0ZDdxKwqO3fuFJ89e/YYama2cspicauYUoSaRprEp2TB5dQb0C3Qw6TFv7kmTh4f4/o0F8Ot2hMlrkE5NulSkIdHrIFsGBTWEXbxmrIbuN/RnjCUReM6inMaMsr8QZaaqa95QdFbFBZjKXY38LGUa+d5MAKMACPACDACjAAjwAjoInDPExTkxRA0+SGhHUFZN27hwktuaVGRcGnPLnmRdt/Oy1vsx27ZrC2TdsJXLIVbpXhPSO0auLiC36ChkBJ6Go58ORdq4dt3KU2p1EbaXr90EY588Rkcxs++Oe+hGKf+28/INasg6fgxkULUvV17qavOtqGbuzYMRadC5aABtiUdjRsoJnr1bKhOC/KuIMKkss22sWku/eaYz4IFC8DFxQXckMBatWqVOYbUGaM3ilOSuKWhz6vDHhPtm7k31bbxc9UQE92btQUrfG7/RTHMExfDdcalA8rW8e32JaKcRDDl1rdlZ2hk0xAJiv2wF8M/5JaRkwWfb/pZFI3u0F9epbd/8uRJGDRokPh8+aXGw0avkRkLDoUlAXkMtGpqmhcEiWOSmUpsmHHqQOKYAZ6OkIIil3tC4vWGHtmjmSBPVu6KFKKa8gZEFvy2OQwWrDsNxzEdqdxI8JNCIA6hh0ZMIurCyAy7wbYTcbIS3V0pk8juU/FIwlHrEjsagVloLIiguBv4lKDBe4wAI8AIMAKMACPACDACloSA2UI8LOmilHNpN/1xDK1YjR4M22HlmGHgO3AQ6i24QEZMFKRHR0PAsJFwbs1fym4QPOUhSDx8EE5iqAe1pewU5FFAaUtt7O2h9YMTIXLtatjy3FPg1gbflj81S28MKgie+hDEbtkEmXEXwXfAINSlUH9L7ODrB2OXrIBNM6dD2LI/IWrDWmjcviO4teuAxEo+XAk5BcknNYvOAR99BjYOjqrnq4+ZJTw6dcZri4Kds1/Va0NeHR6duohyErQkwuTskt9h6wuzwH/wUHAJCoaclBSIxjSnwVMfQeHMcEjFD11nq3ETBH7UOWz5EiCdDrLbtzRkCoWdKM/pGhgEbR+dIdqp/eM3eBikRX+r14/a0nUYInTUxjK27JdfftFm41iyZAlMmDDB2K6V3q65uw/M6PsA/LRnNby87DORBaSbf1vcOsCxC2FwPvkCFOPKlsI5nh6g691T17oOfPjAs/DO6m/g/b/nQ3ufVhDYpBmkZKZhuEk4pOdkCi+LQUE9Sr2OkBDNfaVGs2apP9elDmBC5cXkTKAMFiO6Y6adEgmGMkcoLCqGE7iob+7lCK4OpmnflDm4iQ3G928Bny87BpuPXIAurTx0xDo9nBvC8O5+sOnwBfjoj8NY3xjcHRsAZa84F58G167nQQckOTq3bKxzVgp1GdTZR4z5zepT0KGFG3i5NkJRzltwFsNhugepf4/QIH0xdenukASISsgQ82rbzFXoe1xIui6EOJ3RwyItS90DY9mOc8LjQ5pMYmq22D2GWh/ksSIZ4d7jzhzoPEeQ+JAs9brGc2Pt/miwqVvyv5k61rVhyn2tpWZiezfw0ZkAHzACjAAjwAgwAowAI8AIWAwCJb8cLWZK5p8IeTGMX70Btr70rFhQn/7lJ+HJ4N62PQz/4UcgkUg18x86HPrN+QSOfvUFEhFrxMcaxUA9u/eE/h99iiEjVyE/8zrEoQcGpeY0ZJ7deoCdd1OgMJOgKdMMNRPlbsFtYdyKv+HIvP/BpV3bRRYQygQimUfnrtDjtdnQuEMnqUh12/eDj+HMn79BDAp0Fty4odPGC+cvERRU0fONt3FhWBsJhz8h9PdfRFsiP1qPnyjm28jbG07M/xoubN8KjTt21o5F2UiiN27QHtNOUX6e0NmQF97MyiyVoGj78KN4/loQ+fcqyE7S6CNI/WuhaGBlEBSjRo0C8hIgDYLhw4dLp7OY7SO9xkKLxr4i1WhMSjxsCt2rnVvDeg1gYtehMLXHSFURza7+beCrqW/CN9v+gND483AKdTDIXBs5wWO974cZ/cbpZPXQDizbkQiKgIAAGDp0qKzG/LuHUEOC7r+02DX2DCHRKcIT4G56T0hzJY+F7hhmchg9OtYdiIZHFIKYRL40dbeDVXvOw97TmvAc6ksL9t6YAWRC/5aq5MzIHv6YPtYaNhyKhZPnU8SHxDkHI3HRq40nrNkbJU1BZ1sPtS9eeLAj/LE1HOKuZIFEMgR4OsATo9rCF8uP6bSXH5Anh5p2BY1DH8kovEW6Z1eRkKAwHaWRNofciKxQEhRUX9X4yOfE+4wAI8AIMAKMACPACDACloNArdtopkwnLCxMNA8ODjalm8W0vYmEAqX6dGreUmhTGDMxEsrMio+Dm9nZ4IreBaWlFlUbj875W59uQETJQzv2GR1+UZibC9mXE0V6U8qwQSEn1vUr700xERnXL10Aqzp1wbkFCiya8jpb7cItvOwqEkyUdcLRUd0TxVKmT2lDE9NTIKcgD7wc3cHZ1vjsG/mFBUAEh7udE7jix1jr1KkTnDp1CubOnQuvvqrvhWPsOGW1I2+AtxbtA78m9vD8uI5lNdep/3rVSbHw/nRmX7HQ16m04APSf0i6dgM9C6yE5weRCWUZecxcQY8LInLI44CMsHtl/m6R3vQ/M3oZHIJSt5JHg4NtvbvuaWJwkrIKc+EjG5J3GQFGgBFgBBgBRoARYASqCQI1woNCfi/q2TuU6X0gb0/7REg4BmiE8JR1xhxH/r1aaF+QJ4CUotSYfnUwZasQwjSDGKYx56uLmSnIg6OmGOlPVAezqVMPAlCrojxmg2QTZQYxxUg8lIhISqM6ffp0U7qa3Ja8AmihbWqKUFpwR6MuQ5+2XtWKnCCAyCOCPBlMMcrK0cSl9MwxhsYjYoI+1cWqGp/qggvPkxFgBBgBRoARYAQYgZqAQO2acJF39RrxzScJalrhm3q1bCB3dW58ckZABYGIiAgoQK+hSZMmgRPqmVSmUXhHQ5s60A41EkwxCqUgs4TwDlPmzW0ZAUaAEWAEGAFGgBFgBBgBRsAwAjXOg8IwFGasQVJi+aghYsDbqE1B2TnaPz4TQzxczHgSHooRqBwEHBwcYPHixTBw4MDKOcGdUSm4bEgXXyEoSXoGpligjzP4N3EQug6m9OO2jAAjwAgwAowAI8AIMAKMACNguQgwQVFJ98a6no0Y2aaxA6Y5nYYikZXrKl9Jl8HD1kAEfHwwi8iMGZV+5SRxQtklymMBmEGiphvhR8Kb9g3r1nQo+PoZAUaAEWAEGAFGgBFgBO4RBGqcSOY9ct/4MhgBRoARYAQYAUaAEWAEGAFGgBFgBBiBewoB0/yq76lL54thBBgBRoARYAQYAUaAEWAEGAFGgBFgBBgBS0GACQpLuRM8D0aAEWAEGAFGgBFgBBgBRoARYAQYAUagBiPABEUNvvl86YwAI8AIMAKMACPACDACjAAjwAgwAoyApSDABIWl3AmeByPACDACjAAjwAgwAowAI8AIMAKMACNQgxFggqIG33y+dEaAEWAEGAFGgBFgBBgBRoARYAQYAUbAUhBggsJS7gTPgxFgBBgBRoARYAQYAUaAEWAEGAFGgBGowQgwQVGDbz5fOiPACDACjAAjwAgwAowAI8AIMAKMACNgKQgwQWEpd4LnwQgwAowAI8AIMAKMACPACDACjAAjwAjUYASYoKjBN58vnRFgBBgBRoARYAQYAUaAEWAEGAFGgBGwFASYoLCUO8HzYAQYAUaAEWAEGAFGgBFgBBgBRoARYARqMAJMUNTgm8+XzggwAowAI8AIMAKMACPACDACjAAjwAhYCgJMUFjKneB5MAL3KAK5N4sg5vJ1uH7jpslXmJiaDReTM03uxx0YAUaAEWAEGAFGgBFgBBgBRqD6IVDtCIqCGzdg7bSJcODjOVq0d735qijTFpi4c3bpH6J//P69JvasGc3Lwifp2FGBX+SaVQIQtXt0ryF1+/btcl3SbShfPzpZRfqWa7Jm6rTjxCX46q8TkJVjGkGRh8TG3BXHYcuxi2aaSc0dJj4lCz5ZcgQ+X3YMUtJzqhUQe08niOcn4lJatZo3T5YRYAQYAUaAEWAEGAFGwHQErE3vcnd73L5VBMknjkHt2iXcytWwMEiPPl/uiWUnJogx89ImlXsMc3W8fPQwHJ//dZnD1bayhjG/LS2znTkalIVP/vUMgZ9Xj57idMVFhXr3yBzzMNcYOTfz4It/f4G07OtiyJ7NO8CU7iNKHZ7Ige1hh2D9qV0Ql5YMOfm54OnkDsGezeGJfg+CSyNHg/2LbxfDiiP/wqm4CAi/HAPWta0g2Ks5dPNvC/d3us9gP6rYE3kMdp87BmGJMZCVdwNaefhBW++W8FDPUVC/rk2pfS2hshiJnCPhyeDpagtN3e1MmtLxyCtQWFQMPYM9TepXWuOohAzYfOSCahPHRjbQ2Kkh9G7rCQ1t6qi2qa6FZy9cg8upN8T0w3Gh747XWV0sLStfeOD0zC2oLlPmeTICjAAjwAgwAowAI8AIlBOBakdQlPM6q023vLQ0II+Esqy2Nd+6sjBSq8/MzYZXV3wB55Mvgn2DRkDHXk6N1Zpqy4hgeGvVV3Ao+rQos6tvC62bNIP4tCTYFLpXkAhzJ7+BpEOAto+0U4iE2gdr58P+8yehdq1a4O/mDVR2MCoEDkSdgqiUOHh9+HSohXVKW3p4IyzctVIUN7Z3AT9XT0FwnI6PhOMXz8IXk18He5yLJVvExTTIRM+JIV19TZ7m4fAkaNSgLrTxczG5r6EO2XkFEJ2YYahalO86FQ9PjGoDzb0Mk06lDmCBlR1buEMshtnUrl0L2jZztcAZ8pQYAUaAEWAEGAFGgBFgBBgBAF7lWuhT4D9kGAz7bqGFzq56Tis1OwNeXvYZxF1LgrEdB4K/qzd8tfX3Mi9m8d6/BTnh49wEXhjyEHTyDQIr9OAhouHLLb/DxtN74NONP8JvT34CddCzRW7fbPtTkBPt0OvhkwkvAZEbZKlZ6fDayrnwT8hucEPvi8f6PCDvBjsjjghywtnWAeZNeR2auTUV9TeLCuDzjYthe/gheH/Nt/DNQ2/r9LO0g4Nhl8HaqjZ0aVU6CaScN2lPUFjCoM4+YlGtrK/ocfsAN3hydFvtMOTpEZN4HQ7hfMlzY8m2CHj30R54P0s8tbSNq+GOh3NDeGF8x2o4c54yI8AIMAKMACPACDACjEBNQuDe+PVdk+4YX2u5EEjMSIFZv/9HkBMP9xwNr6HXAr1NLsvyC2/C6uNbRbPXRkyHrv5tBDlBBURGPNbnfqiF/8Vj2Edkkm7oQF5BPmzDsBAiJeYiySCRE9TX1c4JvpoyW4yxIWQPkJeG3Nad3CkO/zv+RS05QQX1rOvCe2OfhubuPhgyck6cV97Pkvazcgog7OI1aBfganLIxKGwJHEp5gzvKA0b8m5p4e0I0wYHQv161nAtMw/Ox6eX1oXrGAFGgBFgBBgBRoARYAQYAUbAzAjovu418+CWNlza+UhIOLAPMmJjwKV1IHj17A2OzfTd8pXzzktPh5hNGyDjQiwU5eWCXVMf8O7VF9zbtVc2FccUopGZEAdePXpBoyaG4+djt2yCgpwcaDl2HJgjZCN60z9QlJ8HrR4YD7mpV+Hcmr8gMy4ObBs3Ftfq2a2H6nylwvLiI/Uv7zYHMVi+fDlcvnwZxo8fD0FBQeUdymA/8nS4knkNnhk4Gab2GGmwnbLCpk49+GnGf0RoRfumrZTV4G7nDEGezSAMtSUupCZCG+8W2jY7I44CkRQjOg8GGkdpTrb20LN5e9gbeQKOxp6FHgHtRBMiUyiMw9/VC8fWfz4pHGRku77wNXpnUIgJXZMl2tFzSVBcfBt6maghUXirWHgxNPN0AHfHBlV6aXWsa0MwhpSQF0VKei7u65+eiJdzcWmQcDUbbhUXC22N1j7O4GCrf4/lvS9fuyH6XUnLAS+3RtCqqZPQvLh0JQuS025AAF6vq0PJ9RJ2R88lQ706VkAhGkq7WXgLTkWlQMP6daCtv27YRhKeKw49UJRWljcLhb8QOSO3unj+TnfOT9eecDULslAPwtBY5sZHPhfeZwQYAUaAEWAEGAFGgBG4txGofgRFrdq44PYAGydn7Z1p4OoKBTf0f4xrG+BO+PKlsP+j96H41q2SYlzoDfnyu5Jjlb2Iv5Zjvw/gVsEdgTbSCkB38GPffAkt738Q7vtsLqCAgE7P7OTLsPvtNyBo8lToN+cTnTrp4Pqli7D1xWfBo2NnaP3gRKm4QttDn30MOVdTwKlZc/jn8YcRE40oHg16cuH3EDzlIej74ceq5ygvPjSYtY2NuCd1bRuJsWth+APdo/rOxmkH/PTTT/Dyyy+LvitWrIBz586JfXP+8+7op+BkXDgMDtIIeZoydlNnD6CPIbO6E9ZRv67uAvVsYpToQoKYhqyNVwtBUIQlRmsJCtonK7XfHSLkbIKmraHx72Y5eUE429eHFrgQN8VCY65Cbn4h9AxqYko3s7W1uhPWQeSD0mhuS7afE/MjDxzyvNgXmgg2da1g8n2tDYay7D+TCH/tPi8IGzFmOH5t4M70kW0gDgmKnSfj4JGhQToERRGen0JNnOxsVAmKnLxCUU/io0qCIgIJlLX79J8NEv8sLdzmwNnLcALJGbkR8UIExbbjl2DT4QtQhAQSmW39unpjVQY+8rnwPiPACDACjAAjwAgwAozAvY1AtSMo6tnZwSN7D+vclTG/LtE5Vh4kHT8Gez98R3gpdHn+JQgYNhLqu7hARkw0nPpxAeRnqLtyU0aNPe+9JRbbPd54G5p06Qq1MAPDpV3b4dRPC+H8ujXg3LIVtJ/xpM4pA4aPgoOffARR/6yHnrPfhToNSt6KSg3DV2gycARNmSYVmW17eN5n0PvtD8C7dx+cb21IOHQADvx3DoQtXwJevfqA/+ChOucqLz7SIE379te5J/Xs7HWOpXaGtnl5JW9s8/PzDTWrUDl5K5SHnCjrpBk5WXA2QZNBphkKYMot/UamOCQdCUNG8yJLz9FkFBH7xvRrqN9PDGQh/5Ag49WMXBjVs5lYiJsyLSI2aMGv5jVgyjjlaUteC+fupLN0k3kz0FiU/eLHf86AE2b7eBTJhJZIvBBJEYNeB8t2nIPf/g2DuuiB0Q71LeRG9St2RmJoEHq+9PCHDs3dwa5hXfSayBGL/hwU7jS3dW7ZGHwUWVO+WXWyzNMM7+YHvdt4ina3EIvv1pwS++TlQdlPWmIYjJtjQ+E9UQ/vkdyqEz7yefM+I8AIMAKMACPACDACjIDlIFDtCIryQHdq0feiW+93PoDgqQ9rh/Do3BWGtW0PK8cM05bJd8i7oePMZ6AVejg4+Jb4egdOnCKaEXkR++9GPYLCqm5daD1+IoT8vAii/1kHgZOmyocV3hjn164BGwdHaIZkiZrdSE6GqA1r1apEmW3jJtCkazfV+g5PPA0+/QZo6yiE5HbRLdj19utAHiFKgqK8+GhPUMGdmTNnAhETFOLxyCOPVHC0qu2+I/ww6kfcxtSfLXS0ImgW6TkagqKRjSalY2L6Ffhp72qhOzFr4BQgcsLORiOaKbVV60dinN9uXwLXUORzWo/RIluIpGeRjgSJJRqJY1IoSvdAw54navNOw/CCKNR+6ImLZAotqErLyM4H8nSgrCP26DUQ6FfipUXExd97o5CAsIKXJnQSniHS3IiomPVAB/jkzyPwN3otBGGICIU/SLYVPQ/IxvdvCX3beYl9+odCOnwbtxX9tIVm2iGvB72QE7wfZRmlWaUPmeQpQdttxy/Cm9O6aeuU41Q3fJTz52NGgBFgBBgBRoARYAQYActAwCwERQGGPyTjgrqoqAicnJzA0dHR6Ku7du0aZGZmQl1c1Ht4eIC1mdNnkiZD/P69UNfWVoRcKCdGZIJX955w/eIFZRXUrlMHur86W6+cCgJGjIZ9H74L6ahnoWZESoQs/hHCVy7TIyhit26G/OsZgtig86vZ1bOhsON1TdiDWr3vwEEGCQrPbt31uvj0HyjKKLREbhXBRz5ORfadnZ1hzpw55Rqisp+f0iYVijoRC3atEITDs/fpklDUj1KYkknrwq1nD8Iu1KUgo/CN+zveJ/bpn8zcknCckn6aBeXZhCiQRDNJJFOezpQ0LgqKCnHhXEc7ljl2srOzITU1FT0EaoObmxs0UPECMnSe/IIiCIm6Cq198LsAvQ1MsUOYWvQ2dugZbHx4R3m+fygE4sNfD2mnRiQTkSNkJJL58JBAQUZIDaISMuBKeo7wLqCwFaWRVgYRFeEoCnopORMC7qQoLUBiMAI9L2zqWkPvthrPBHlfIjIoBCYFvU0s1W5gKEm/9t4GyQmad03Gx1LvG8+LEWAEGAFGgBFgBBiB6oiAWQiK69evQ26u5gc2LWqMJSiKMcaaFpi3cXFAi4ysrCxBcJgTyOykJDGcg6+/CM9QG9u6vv6CQ63dbZxvQXYW0JbMql49KC4sVGsK9iik2RTDKeIP7IOrYWfALbgkpWH4imVi1Ro0yXB4h2tQMAShZoQhK018s7bKYrU+kgC1rKwgPz1NZ0hz4qMzcBUcVMXzY+gyLqZehjdXfSVSjVJGkEAUylRaw3q6z1UH39aw4fRuqFPbGtoodCkayNoq+zVzbwo+Lk0g7cZ16Nas5Dmi81EmEXOTEzRuWloa3Lx5k3YhHUViTSEoTpxPQdLklsnimPg1AEeQoGjibIueBZoQFjGBMv4pz/cPUT8ScZSNgo95N4vEeTtjOtQurRuLMA75aZPTNQRSowZ1ReiKvE7apzqyKyiuKREUGVmakCU3JDBIr0LNyCvDko1IlOaepZPONRkfS753PDdGgBFgBBgBRoARYASqGwJmIShsUCRRsnq4aDfW6O1sHfRSIHKCTD6OsWOU1S7nSrJoYl2/ZI5l9ZHXX4sIh9O//gyXjxyCvLRruiKb2NCQBwSNEYThJERQRKxcriUoKBNI8oljIquGva8vNVO1Rp5eEDjBvNkZyOVeaRXFRzleVR5XxfOjdj3nMJ3oGyvnQg5657w05GEY21HjnaJs60g6EZjZI69As9Dv6BMI6178TqQlldrmFWoWsE4N7aQiEP3wiLwjyOwxTemSpz5Hz4Lb2r5SndRWNDTjP/R3LGmDmPp3eRjDO0hAsU0z3cwSZU2PvBqu37gJgzr5lNVUp14+P2O/fyjrxpOjNWQPaSf8sDZE4Du4s49q+lnS0yD79+hF8dGZgOIgLatEUyUDr4fM0kkIxSXoHNpilpCyUvLWZHx0wOIDRoARYAQYAUaAEWAEGIEKIWAWgsIOhStpkVCI3gSmvGmlmfv5+YmFEIV4EFlhbjPWO0LtvCmnQ2Ddw5NE1o7mo8aAS2AwkEgnCU+S7X73TVGn1pfKfAcMBFsMW4nGFKW93npPiGWeW7VCNA+ebNh7wtB4lVFeEXwqYz6mjlnZz49yPscunIV3Vn+D6SVvwTtjZsLQNr2VTbTHzncEMNPuaFFQRS38T25pKoKYav2UfaUxpbbyMc2xT+FWDg4OQkdCTgCUNTaltyRBxfs6NhWikGW1l9cTsSFSV7Y2TbeiIt8/dP4gX2cIxA+FYuwNTYABHZrKpyX2JT2MgXhdrZDcKM1cMOuGZNWZmJCuwZgt42MMStyGEWAEGAFGgBFgBBgBRqAsBMxCUNBJiGCgj6lGb8EbNtSIspna15j2th6aWPZcDD0x1U4s+E4IWnZ65jno9tJret33ogaFoRAPakwZPwInTsWUpPMgZvM/QGKVlPmjgasb+A4aojfe3SioCD53Y77Kc1b28yM/39azB+CzjT+jnkA9+HzSK0AeEaWZr4tGc+AielH0a9lZtSnVkUlt5ftSnWig+OeSSj9Fkwof1jcy9El+IsrAQdYjWHPt8rrS9m9gJoszsakiAwa9sTfVyvv9I53nwX4tIDL+iEijSRkwpHANqV4SjqQ0nURoGGuUIpQsK1fjSWFsP2onhYQUFGpCykzpW9Vt7wY+VX2NfD5GgBFgBBgBRoARYAQYgcpHoERqvvLPdVfO0BAF/kggMyshHnKupqjOISflimp5xh0BzNbj0YtCYURMFN8JTVFU6RwGTpws0ptS9oyLO7dBHsbzB06YBLVRD8ISrCL4mHv+kuaBucc1x3jLDm+C/274EShl6A+PvF8mOUHnHIbeFbTI3HrmgOoUKDsHiWbWr2sD/Vt10bYhAU1vp8ZwOu4cpGTpaoZIjbYgWUI2vG0fqUh1e+XKFdi5c6f4hIaGqrYxV+EtzPZw7Fwy+HnYg4ezaaTj0Yhk9Eq5bZI4prnmTePQArtPWy+hRbHhoL7wrZSyMxIzjBgySidKRIvcKJ0oCWReQwHOzDvhHvJ62r9+QxPKoywnbxLqT2OS8KjSlOdS1lfl8d3Apyqvj8/FCDACjAAjwAgwAowAI1A1CNzzBAV5MQRNfkhoR1DWjVt3hP8keNOiIuHSnl3Soc7WzstbHMdu2axTTgfhK5bCLQMCmfLGDVxcwW/QUEgJPQ1HvpwrhCqlNKXydndrvyL4mGvOR44cAW9vbxFS8MYbb5hrWLON892OpSJbR/PGPrBo+ofg52qcd4CrnRN09W8LiRkpMH/HMp35FN8uFt4Y2fk5cF9gN0FSyBuMat9fpC/9eP1CyL2jRSHVU0aPIzFnwMvRHdr7tJKKVbe//PILDBo0SHyIqKhMC0UPiJz8QiQZjMNHPhfyvHDCjB+tmhrvnSDvb479kT38oQF6SBzGucRhmIrcmrjYQqeW7hCNJMSe0wnyKrF/ETN3zEcdi69WnQRKuSkZEVREfFDZil2RKKqq6w1BITGU+cOQebs2ElXbT8TpNdkbqvG+0au4CwV3C5+7cKl8SkaAEWAEGAFGgBFgBBiBSkTAuhLHtpih201/HEMrVqMHw3ZYOWYYUIrO+s4ukBETBenR0RAwbCScW/OX3nyDMYtG4uGDcBJDPaitR5duUJiTI9KW2tjbQ+sHJ0Lk2tWw5bmnwK1NO+j41Cy9MaggeOpDELtlE2TGXURdikGoS1F2CsWk48c0+heqI6L7N2ZvGPPbUgO1phWXFx/TzmK49Zo1ayAxUbPYWrRoEfzvf/8z3LicNXFpSTB38686va9hVgyywzGn4fk//6tT9/W0t1BDoTbkF96Ev45uEXUkMvrh2u912ikPPrh/Frg0Ksl48Mrwx+CVpZ/ByqP/wqlLEdCuaUuR+eN0XCTQnFp6+MFTA/Q9dMZ3GQKhCZFwKPo0PLzoTejkG4jimXYQlhgNZzDtKAlnvo/nUmpaKOcTEhIiiihcY/r06cpqsx4TyVCvjpVYyJsyMC3uKYXniO6YaUdXosOUYSrclsI3RnT3g9V7ouCv3ZHw2pSuOoohD/RpLlKIrtp9HkJjrkJLbyewsqoF5+MzIOZyhrgXDw0O1BOUJN2KIxFJIoTlkz+PQBt/V7DDjB9JaTcgOS0HOjR3h8OYvUTNRvVsBhFx6bAFxTkTr2ZDM08HKCwqhrMXUsHrDnmh1o+EP0+e1/UMo2xJNwtvwR9bw3W6TOjfUqRWpcJ9SHpcupIp6iWiJTe/SK+Pt1sjPa2Ou4GPzoXwASPACDACjAAjwAgwAoxAtUegRhAU5MUwfvUG2PrSs0DCl6d/+Ul4Mri3bQ/Df/gRQn9brHoj/YcOh35zPoGjX32BRMQa8bFGMVDP7j2h/0efYsjIVcjPvA5x6IFRXKTvgi0N6tmtB9h5NxVhJkFTpknFpW7zM9Ih6dhRg21qW5vv1pUXH4OTM7Fi8ODBMH/+fMjPz4fRo0eb2Nu45rk38+F0fKRqY0rfSR+5UcYMpZ1Pvqgs0ju+WVSoU+Zh7wLfP/oeekv8hOc/D9EpmjfhtjYNYCB6Trwx4nFQphWlASh16CfjX4bvti+B3eeOwb9n9otxKa1oG68W8MbIGTq6FTonlR1IBMWUKVOMTv8r6270bjqm06Twh+6BHoKkMLojNjyE4phE/vQIKpu4M2Xc8rTt284b9otFepZIeSqfkyN6eLz1UHckL85DSHQKRCVkaE/hiR4W41DHgsJblEZhGrOndoXFm84CkTE7T8aJ0B9fDzt4akw72HUqXtlFe9zU3Q6exjZLd0RAGHpa0Iew6tWmCQzu7GuQ2Ej+f3v3AR9Vne0B/EBCGiGkh5qE3kKXgBQBxYKCrqAoi66irvrYdV3bWtBFn+7qe+LTteGCHVZXEAQXwUqVJp2EkEZIAdJIIRVIgHfOf3IndyZ3JjNxJqT8/u8T5s69/9u+M7tv75n//xwOfsi0GetWzSM4rNffNK63OUBx9GQx7Um0DGxIyVjrfaQsq3Uy0UvhY31/eA8BCEAAAhCAAAQg0LwF2vCvanWfxOzcU3x8vNoaExNjp1fT3XSWAwpS6jO4Tz+Vm8KRKz3PuSZKMjPobGkphQ2KsVta1Oh4cs6PJ4wmCQTc8eMWcxUQo76Xel1DfFxxzRUVFVRQUKCmerjieE3xGDKtIy3vOFeq8KCo0C71jn7Q30N2cT4VV5RQ74gokiCFI62kpERNm5H/iO/Zs4dGjhzpyG4N6rNuZ5pKMPnYbaOoZ5e6D+m2Diq/6D/9zy3Ug/d5aMYIW92a3PoLbCqlNcsqzlFQgC+F6Cp32LtYmQKTW1hBXULbq9wU0nfVlhQVtPjdtYNoNAd4jJqcL7+4kkrLz1IE58uwTuJptM+lXOdKn0t5Hzg3BCAAAQhAAAIQgEDjCjj2pNO41+TWs3l3DKROw517UPPg6iRBvfs0+LoSV32pcl9I7gmtRGmDD+bmHRvi44pLkvK0zpaodcV5G/MYbdu05QBD3RKWjlxD58Awkj9n2oEDB0iCE7GxsW4NTvApVN4GSTTpTHBC7mVvUq6adtCQvBXOWLi6r+SWUJUr+J6daTKNxFkjOb6cLyLIT/05c75L1bexfS7VfeK8EIAABCAAAQhAAAKuFWjxSTJdy9WAo/HTmyTU9GjXjoyqgTTgiNgFAg4JaNM75s0zzo3i0EEc6JSYWUCFpWe4tKjzUzRkeoc8tA/t5VzwxYHLQhcIQAACEIAABCAAAQhAoJkJtLoRFI3y+XBQ4vNp16hTXeTcFMXpx2jYvffzFI/QRjk9TgIBERgzZgx98MEHdNttdZNwulIo0N9H5VLo0602Oagjx5eRF9eMilalNKWkJhoEIAABCEAAAhCAAAQg0LoFEKBw0+fv6e2jjuzTKZDLnM6hIXe5t4KCm24Dh23GAqNHjyb5c3frHNKe5M/ZxrMWaAhGTlCQvzdJMsz2vu2cJUR/CEAAAhCAAAQgAAEItCiBVpcks0V9ergZCEAAAhCAAAQgAAEIQAACEIBACxHAuOoW8kHiNiAAAQhAAAIQgAAEIAABCEAAAs1ZAAGK5vzp4dohAAEIQAACEIAABCAAAQhAAAItRAABihbyQeI2IAABCEAAAhCAAAQgAAEIQAACzVkAAYrm/Onh2iEAAQhAAAIQgAAEIAABCEAAAi1EAAGKFvJB4jYgAAEIQAACEIAABCAAAQhAAALNWQABiub86eHaIQABCEAAAhCAAAQgAAEIQAACLUQAAYoW8kHiNiAAAQhAAAIQgAAEIAABCEAAAs1ZAAGK5vzp4dohAAEIQAACEIAABCAAAQhAAAItRAABihbyQeI2IAABCEAAAhCAAAQgAAEIQAACzVkAAYrm/Onh2iEAAQhAAAIQgAAEIAABCEAAAi1EAAGKFvJB4jYgAAEIQAACEIAABCAAAQhAAALNWQABiub86eHaIQABQ4GCkjOUeqKYzlWdN9xua+XFi6T2yy4ot9UF6yEAAQhAAAIQgAAEIAABNwk0uwDFubIy+mrOLPr5pRfMJBueekytM69w48LWl56npZPH0a7XX3XjWXDo+gRO/rJLfeaJK1eorkbfi/qOcSm2X5Qn4Aa2CxcvNGjPhu53kRp+rb9m3wbdpNVOH62Lo8VfH6S2bdtYbbH/NjGzgF5fvocS0k/Z74it9QrsPHySFny4jd5dfYDOX2j4d6neE7mhw79+OKK+B6UV59xwdBwSAhCAAAQgAAEIQMCWgKetDU11/cXz1ZS95xd+8KiNreTFx1NhSpJDl7z//fcoY/NGmvDcCxTSt79D+2idLlRXU/xnS+ni+fMUt+wTGv3IE9omvDaywJniIvU96Hb5WHXmC9VVdb4XjXxJNk+XV1JAH239iuKyUuhEUS619/Gj6NCudOPwyXRNjOn6jXY+XVFKn+9aRztSDlD26VN0tuochQcEU6/w7jTn8mk0uHtfo93Uul1HD9EXv3xL6fknqKCsiHy9fKlzYChNHhBLt4y6lvy8fAz3lWDGv3eup30ZCXT4RCp5tvWgmG59aHTPIfSbkVcZ7qOtTMo+Rqv3beD9Uuh4YS5Fh3WlmK596NbYa6l7cCetm9tfZfTDsezTNHl4JHl61P73hCMn3h5/kjw4qBE7oLMj3R3qs2FfJh06ml+nr5wntKMvRUYE0OWDujgdTKlzwCa2YsfhbDp1ulL9nTxVRt3DOzSxK7R9OcfzSykzt4SqzjcsKGj7yNgCAQhAAAIQgAAEIGBPoNkFKOzdjCPbitPSSH59l1/cnW1tPT1p5IN/pPSNP1KfG250dnf0b4UC+zOO0BP/Xkhnq89RG/6/Pp2i+KGnioMVyXQwM5G2Ju+lF2c8VEfmOAcy7v9wAZWeMU016BoUTqH+QSpokMPBim0p++mBybPojrHT6+z7xvdLaeXu79V6L892NDSyvwoYpOZmkvyt2beR3r/nvymofYDFvlUc/Fvw1du0NWkvtW3ThnpyIETWbUveTz8n76Pk3Ax6YupcasPbrNve9MP09Io3qPLcGero60/9OvegY/nHKSUngzYe2UULb39CrbPezx3vd/Av99LGxnRx6vDlZ6pUIGFwzzDq4Ofl1L72OucVVVDK8SLbXeJO0OaDWfSHm4dTx/betvs1sy2Thsv35zxFBLWnrmH+zezqcbkQgAAEIAABCEAAApdCoNUFKH4tcuyfHiH5Q4NAfQJF5SX07Mo3VXDiznE30m9GXMkjIELUbsk56fTwv16mTUd+ofWHttLUIRMsDvfSmvdUcEJGPNw/6VbqVjMCoYIDAJsTd9Mra9+nJZtW0OheQ6hPRJR531/S4lRwwqedF/31pnkU22sweXuaHrbTOGDw5vfLSIIJr337Eb0082HzfrLwDw5sSHBiaPd+9Pdb/0wBHGiQll9SSI9/sZD+s38jhXcIorsn3KzWa/9IwESCMDJ9ZcFv5tFVg8aoYIy8X7XnBz7uMr7XV2jlQ29Qe29fbTe3vMpUgl0J2RTVKYC6hDr3UPwL71fNv5g7G9hw9EZundyPJg3rbu5+lvNjHD52in7am0npOafpqy0pdPfUGPP25r4wvE84yR8aBCAAAQhAAAIQgAAEHBVwbvyzo0dtwv2qz55pwleHS2tJAmv2/UQllWU0ImqACjJowQm5x76domlS/1Hqdr+P32Zx2zIK4cjJozyKoS09Ne335uCEdJKpGRLMmDLocrrAAQAZoaFvEnyQNuOyq2lCv5Hm4ISs6xnWjZ64/h5Z5CBFAmeYqM0LIOf8Pn67CkosnP2EOTghfcN4Wsnrs5+kdh6e9PX+TXxey2Hv6w5uUSMt7p04U12XjBSRJiMtZo66hmaMuprKz1bQj4d3qPXu/CeOp1KUVZ6jsYO6On0amd4R6O9NA6JNQSSnD+DkDt7tPGhE3wi6ZZJpqs7uxByexuNcUk8nT4nuEIAABCAAAQhAAAIQaNICLX4ExbEfv6czp4vVh3CmqJAyt25Wyxkbf6LiY2kWH45X+/bU67obLNYlrVlFknvCunUaOpyCevexXq3eZ23bSmU52TwNZDplbNpAJ3buoM6XxVLPa65T29M3/EBZ236mjlFRNPSue6ltu3aGxylMSaaTu3fRqSMJ5BMYSGExgynqiknk6etn2N/Wteo7G92jtv3ihfOU9fNWyouPo5KsDArs2YsiBg+lrmOM8yTINJmj360jv5BQipp0Je93iFLXraUzhQXUMbon9bp2KgX26Kkd3vC1+swZ9ZmcSoin8txcCuk/gLrEjqFQfnVny8rKos8++4x8fHxo9uzZFB7u+l96f8t5IiJDOlNv3QgH/T1NHjCa1h7YTDKyQd/O8bQKfrynUB6tYCtXhBxXWjUPodc37b22Xb9NlmWqiAfnlZDRDRd4tIHkQZD2U8IuNT3jeg5s+LSrO80g2L8jje0zjEdv7KFdR+Po8t5D1X5yHAlQyDGvH3KFWmf9z43DJqlRHd8c3Ew38SgSd7bt8SfIy9ODLusf4dRp0nNK6GRBGV03uoea3uLUzr+yc4/OHVVgpLjsLMl0EKNcDSXl5+hIRgFl5ZVywskLKm/FgKgQtZ+908s+aSdPU0n5WerVNZD6R4ZQQHsvOpSWT+WVVTSSAyReHCjRmlyD7BMW6Ee9ub91yy+uUFVOuoT4q1Eq+u2JGYVUVFY3ABwc4EP9ugfru1os703KpXPVlt9jyc3Rp1uQ6pfLJtn82VSeraaQAF/q2920Xn8QV/voj41lCEAAAhCAAAQgAIHGE2h+AQr+Vdm/U2fyCa79ldMvLIxzSpQYqv3y1utUkGj5K7N03Ld4UZ3+Hbp2qxOg2LLgWaqqrKjTd8Kzz9sMUBz69CMVmCg+dowOfriYLvBDZPzny2jc089xUOQoHVnxhVonBy3LySE5lr5JoGDPu2+pP0nI6eHtTefPnSN+quSgRg+65vU3KWzQYP0uannLC89RVbkpZ0GdjTUrArp1r3OPsqk8N4d+eOxPHBD5pc6uPa66mq58+VXy7mj5wFJ56hRtfOYv1Gn4SCrPy6VNzz1tse+ed9+kSS/8nfrdPNNivfZGAjDfP/JHTnCarFZ5crDgyMrl8tM7Db/3AU5C+jhJ3g+jJn3le+Dlb0q814aTpsp7Xw6WONIeeughWrNmjeqamJhIixbV/T44chx7fST/w5UDx9js4ulhejD0tQoISA6HIZwAM+54Cp3hxJgyXcO6SbJNaTJKQt/G9x1Byzk55omiPP1q87JMxzjP36/Lew/joELtAKq446bPQBJi2mqDu/VVAYp4vi4tQJFXWki5nARUkmBKEMOoSS4LCbQknjxG1XxuSbzpjiYP1wn8kBw7oBP5eBl/b2yddwcHNiRUI8kqL0XTAkUyxcS6HUzNo2VcVaKCc2RIVRLJD7Ll4HG+Rw+6/aoBNKp/J+td6Dwf5/OfEknLxyEdfuZcF+192tFjt11G63ceU0kg+0UGU7AuQHGCk0Mu+z6BRg/kwJpBgOIoBztk+1Ujo+oEKDbuz6R4nrJi3Yb1DrcboFi5OZlOcwBF3+SeJKDywdo4OsD3rzUZcWIdoHCHj3Y+vEIAAhCAAAQgAAEINK6Ac/8rvnGvzfBs3gEB9LvNlkPFb/xomWFfWXnl3/+XH9prAwy73lhI2Xt3G1bxkECAdZv2wSdctaP2oSFx9Zeklba07mv9Xh765+7cR/k8IuGb++fS7rffoGgeaaDWHY6nbx64h0cc/KdOgGLna6+SVBvpMiqWxj+zgEcV9KfqyjOU8s3XtO3lF2n1nNto9rc/qQdy/TmnLfnY4lr12+L+9Skd/fYb6sABCut2oaqKvrrjNio9cZyG3/cgDZx1O/l37kIlx7Po4EfvU8Lyz2ktX//ML76y3lW9l+BE0upVNO39TyicR3mcLS1V7/cueoskaNKVK21I8EDfKji4ser2GTw65TyNn7+A+t10M3kHdKSitKO09aXn1f2fP3uWxj+7QL+beTmSR5Lovweyr/69uaONhcrKSvOWMzyK41K0LTwaQVqv8Mg6p58+fBIn0Uyi17/7hH4/8RY1mkI6SdLK7akH1HSJYZz80ro6xtDIfhQV2oVzP/xII6MH0rDIAeZAhFQC+cd3n6oAgXXOi8Ky0+oaQvwtg1D6C9MCEIXlphFJsq2wzLRsbz/pF8zHPV6Yw7+wn1ZTRmSdq5uUtZQRHWNjnJvecY6nVexJyuEH32BVVcPV11Xf8aTqSEGJ6TsYHuRn0f1wegEt/s8hCu7gQ3ddO4gkoCBBilROuvnZj0fo4/XxPGKkLQ3lIIC+fbc7XQUn/H29aMYVfdRoBKlocvRkMX2xIYnK3FA+86bxvWnKZbX5UE7kl9GKTUn6yzJc/v30ISr3h2zM4MoZkotDmlQ/ST1RpPJYyMgJmTJknWyzOfmom8I/EIAABCAAAQhAAAJ2BZpdgMLu3RhstB5p4BNkGh4cOnAQdR5xmcEelqs6jzTlCdDWntyzS1us93XIXXPVQ3e3seMpdFAM5R7YT4PvrFl3+TgK5+kTUjJVpjnIiABpJVlckvCTDyikX3+68ePPzCMI2vH0k4GzZlNbzgOw4ZknaOfCV2jKwn9YXIP1tWobU9Z+raZimEZfvK2tNr/K6I6SzAyuUPIHi9KpQTzFY9KLL3MQoYoSV32pjtHr2uvN+2kLFafyadZXa80jLHyCglUiUQl4JK1eSSlr16jAh9ZfXn/hQJFMEbnmjXeo99TaaTVBvXrTtMUf0ec3XMMlXT+lQbPnkKxzdXvttdfovffeU1M85s2b5+rD13s8GRmxOckUoJhx2ZQ6/a+JGUdhHYLpb1//U02hkNKiEgQ4lJXEw+Grac7YaXTPFTPq7Cd5K96/50V6+8d/0Z85MaUkpRzCSS8lOJDFf1LedPHcF1Q1Ef3OheWmAEUHn/ZqtfRfsvlLlXdi3pWz1eiIAB9/tU3rK28KORGotA6+pv1kWUZwSJlTyZOhBUICarbLvpLTwtVNsmls5wCFPOAb/fJv73z7knPpzDkeVeJk1Q97x3R0m5SzXLv9qOo+pFeYGuGg7StTcFbx6AKZsvLnW0dSCE970JoEKuZx1Y+/L91Jq/iBflCPUHNJVQm4bNqfpUZa/OmWEdRVlyxUklZGcrnPBR9t1w7lslfrpKRG1V6MTiZTXLSmjSCR8qSS8HTB3HHk5238/6aam492j3iFAAQgAAEIQAACELAtUDvG23aferec4+kHGRkZdPToUSoqKqq3v77DKf4lXfaTnADV/ODVklrH7rW/jPsEmgIjMsVCaz4dTf/D/Fxp7fSUI19+Qed5RMOI++eZgxNaf3ntP+MWaufnR6nrvzFPE9Fvt14+vmMbbXjqMc4TEULTeTSIb3Ddh0MZISFt6N33Wu9es/4+9ZrwhamfdaeQvv3NwQn9NslLIU2muuibBGSOrFpBgdE9LIITWh/JySGjOGRqjIz6cEeLiYmht99+mxYuXEg9e/Z0+BTyC/2JEycoNTWVsrOzHd5P31GSTC746i06VVpEMiVjZPQg/WbzskyNkOCCtKN5WSQVOiSwEca5KaR6h62pEjIlZFwfLlnJU0XKz1bSDh5xIcEJaSN7DOKkmxFqWf/P6YpS9ZZ/pFbtuzj+3nBeCnndkmwKpGj9T1fUlug171eTGFNGeLzz4+fqWt/b8IW2i/n1NCcNtdVKeeRNGpcBTk9Pp4qK2lFPtvrr1ydnFlIBP9Q2ZIqGBDb8eOrDMCcqTjTkWmVaxfMcGND+nlm8lV5etovi0k5Rp5D2nCzT9Flr95WcVUQ5heVqyoo+OKFtj+BgjAQq5GE+PdsUYJJtKSeKSUqmDuRkn/rghLafHEv2bcpN7vv2q/rbDE7Itbdmn6b82eHaIAABCEAAAhCAwK8RMP5pyskjFhcXmx8o8vPzKahmlEJ9h7nAyd4kQCEPfRLkKCkpoWCDB+j6jtMctrf1qDvvXsuvIPevtcJU0/BmGTFRnG75YK/18e/SlYq4n4x6sJeEUpJrrv/D/dTWy4tuWPwxBegCJtqxLvJncDojnQMMHUlGPhi1jlHRKi+EdVJRra92H9p77bV9TeLJSk6aqW9yX5Jbo0O3bjbvUe5fWtHRVP2ul3xZHpzleypNvvfyffU2mBpk70JfW/8xbU85oBJoPnvjA4Zd1+zbQP/cuJyiOBnmq7c/Tn0josnXy5uyi/NpHZclfXjZy3QF5594bOpcFYjQDpLH+SD+55sP1PSQ2ZffwKMYxlAElzYtPVNBCVwZ5MMtq2j2oifo4WvuJClhqjXr8p/DowfQ1wc2Uru2njTYKi+Fn65UqPV+UulDrmtH6kGaWFOlRDuHvPp51Y4C0K+X5YKCAjrL03qkFRYWkh8H4hxtEmSQqQ9jBjqXQ0ISMB7lB/qJXP6zHU+BcLQ15Fol+KMFgCSYIiMEJIggIyck54OMlNC37EJTMKeDn5dKnqnfpi3LNmk5hRXUuyapZGGJafpSp+DaUS1af+1VnxhTW9eUXiMjAixGkxhdW2v2MfLAOghAAAIQgAAEINASBFwSoJBKCFpz5mGtLSfpa8e/lktwQpr+ONrxWturFpRY96DxaAa9RwlPobAVoJD8EWvvu4skj8MNPGUijKeYGDXJkyEJOP3CLOew6/vK9BMPTlYplUkkX4WtqiP6fWRZElcatdPpaWq1VAz57NrJRl3M6+Qem1Lz4mCP1rTvr/a+vlcZOfHqug9V5Q4p+fn6b5/iKRh1H8ITThwlCWJILonX5zxtkSRTRlX8ccpvqaNfB1rMAQwJEDx5g2mEi5z/1XUfqdELz0y/3zy9QtZLZY6J/S7jnBT96e4lz9CLaxapUqdS1UNaUHsezcPVRCrPmQIEI6IG0uqH3+JxETVDKrhPZZUpT0Jw+wC1j3k/2cZlSrX24sw/qRKmFvvWbA/2r91X66+9yn93aLlBnPnvggqu7nAgJY9ieJqDVKhwpu3g0qLSxjo5vaMh1yoVQkv+vpUAABR2SURBVCZxIETa6q2p9MOedJIKFxOGdFPrrP+Rih7S1u86pv6st+vfF9QEJWRdcanpM2zqQQj99VsvB9QEXqzX69+3Zh+9A5YhAAEIQAACEIBASxJwSYAigBNXygNFFT+8OvOrp0D26NFDPZTIg58EK1p7a1dTQvTKlxeSX2ioXY6wgcZBBymnuvbe31FFwSma8urr1H3cBJvH0UYqXOSHZ3tNRnl48Gdka7SEvX2tt2llUiU3x7C5tQ/X1v3kvVcHU5UOo22XYp18R/v27au+s76+vvyrvXEQxvrazlafowWr3qZtKZyHhKthvDLrEQrgKRhGbXPSbvWAP4lHIBhV8JB9ruMcFRKg2JS42xygkOkfkvtBSn5K/gejJtM+xvD0EClvui1lH82KNZW+DampwFFQk4tC9tUHGOR9gUEiTS1xpn4/o321JJzBEgix0Tp37kyBXE5Xchc4E6DYfSRbJVl0Njmm5DDYmXBSlfXsFubc96yh16rd+nWjo9W5t8WdpPGDuxmWFtUCDFeOiKT+XFLUXgvlQIfWvNo59p3U+jfXV/g0108O1w0BCEAAAhCAAARsC7gkQCGHlwCD/tdl26e03CIPeO1rhvNbbmmd7yQxZV7cQS4nGkW2kl7ak6nmkqhSMURGYox9cj71nf4be91VEk/Jj1HJU3OkvGkbgxKQlTz0/gLnB5FrM49Rt3tU+xvVcaQLBz2kGkdzax48Xcff3zi4YHQvJZx34cnl/0dSnvPKgaNp/vQHeDi/7WBcQU1ljEAeJWGrBdaMYijjqRsS/PD29OKElcUqsCGjKmSqha0W5GcaxaBPdinJM6Ud41EUMtLCqMk2aVpfWZbpI1JC9CSXNdWuQ9brmwQnSirLqVPHUDWSQ7/NelmCPs62bVwitGN7b04Uaf8h3vq4cVwSs5SrWVw/pqf1JofeN+RatQNLGdTpY3upShzLNybRo1z6s3asiqmXNkVDSoMO4qkgjrYgrvghrcSqdKcj+8s0GWlV1fYDlo4cy919LoWPu+8Jx4cABCAAAQhAAAKtXaB1/NTWjD7l8MFD1NVKcktbLX3DjypgYL1dkkp+9/AfKPfQQRrKIxOG3fN76y6G78M4YaQk5jx15Ijh9txDB9R6W9NEDHeys7JD124qWWf+4Tg6W5PPwbr7ac6vITk03NlkxI/kQXFnk5wQ8z59UQUnfss5IZ6/+Q92gxNyLVE1wYK0moCA0fWlcdJMafLQL8EJ/bIERLQgh9pg9c/RfNO+USG1+RquGzxeVX347tDPVr1NbyX5pSTN9OVghIzs0JoEQmS0xpmqs7S5pmyqtk17/TbuZxU40Sp6aOtd8ZrJZSmlnKXkcGirJXhw8MDbObDRjkt0jurfycE9XNtNRnxI2cw0Lv0po0CsWxTnYZCWyAlAbTUpN1pWaZoip/XRHtylpKguvY22Wb0Wl9VOydFvCOZyntLyi03TS/TbZLnc6lzW2xvz/aXwacz7w7kgAAEIQAACEIBAaxRodQEK/861D2VN8QOXUqLyAL9/yXuUe9AUGNBf56FPPqR1/3UfbXnhOf1qtbzp2ScpY/NG6jPtRhrHoyccbaP++GfV9ee//zfJCAx9O3u6mHZwSVOZ2jHywYf0mxq8LLkpYh9+XAUntrzwrMqBoT+YmqLC+TNWzvoNSS4Nd7RFixZRKE+hCedEnitWrHDHKXg0wgl68OMXKKsghx677m76rytvrzNtwujEMgVDpmms52SYe44drtNFKme8+cMytX4cVwHRmpQYvbz3UPX2tW8/5goelp+lTNPZkLCTdqQcVCMZRkQP1HZVpT9jew6h40W5XKL0M/N6WZDcGa+sfZ8TbZbTVTwCRIIU+jZt2ET1dtGGf1NGgSmng7b98IlUWrr9axU8uKGmn7bNFa+SHFOaszkkTpedpYRjBTS8TwT52ihj6Yrrs3cMiafcMtFUuUNyUkipU32Tsp0j+0VQCgchNh2o+5+DY1y54+2v9tPrK/ZyoK020a4kmIzuFEDZBeUqz4X+mLK8k81Kyi2DGlqfUK7wIaM7svJKKckqMHLmXDXtSqgbSNH2bezXS+HT2PeI80EAAhCAAAQgAIHWJmB7HHgLleh59bUUt/Rj2vvuW+QbYpnjwYerj4x76lmLO9/03NMWD9CnEk2/6iet+Yry4uPMfbvGjqH+M281v2/oggcnCpz4wt/o2z8+SKtmz6Q+10+jsJghJJUwjm/fxuc8pMpzjnn0CYtTyGiExFVfqsSUUpnjp6cet9iufzN+/l/V1A5tXafhIylm9h0U//ky+vz6q6nP9JuoQ+eudDorg5JWrySZ4hH78KPUMTpa2+VXvw6cdRulfb+eUtZ+TfmH40k+l/bhEZS9bw8d37GdJEgx4dnnSV+W9VefVHeADz/80FyNY9myZXTrrb/+s9MdXi2uP7SF8rmUqCS0/IkDA/Jnq8X2HEx3jrtRbe4TEUX3XHEzLdn0JT3y2SsUKmVFOXgQ2iGQE2DGU1J2GgcNLqqpFg9Ovs3ikFLVI46nkmxN2ks3pMyjGK7AMZIDEce5zOguLlOqlQV99Lq71PQM/c6PTr2bHv3XK/TFrvW0Lz2Bhkb2Ixk5cSAjUQUe+nXuQQ9YnU/2H9ClF9038RZ6f/OX9MBHz6uyqZLgMzU3Ux2n6nwVPT71njrn05+7IcsyDWFPYg714eoVYYF1k43aO+ZOftAWQ2cDG/aO2ZBtfbsH0dDeYXQwNZ8TYabRzRP6WBxG3ksJ0RU8DeRgah716x5MHh5tOHhQRKknilTA646rB6oKJvodp4/tTe+u3k9rfk6lhPQCZeTB0zdktIY/J6DsHt5BBSH0+8iy9Lnh8p60cnMy739AlTiN4GogJRzQ2ZucSwM4F8aJU2XWu6n3P+3N5G2l5m1aEERGuXz6XW2gTSqP6O9zxaYkquREp9IkcCQtje9Zv4+sk5Eucn59a2wf/bmxDAEIQAACEIAABCDgeoFWF6DoMiqWJj7/Nzqycjllbt1sISojF6wDFCn/WUNVVqMKZCfJEyF/WpMEkq4IUMjxIidMpFmrv6GN85+klHVrKZmvQTX+yTVy/BUqgGFdElSCEtLkNZX3sddGP/K4RYBC+l7x/EsUPngo7fy//6V9/3zXvHsHLmk69d0l1OOqq83rXLEguS6mvf8J7X//n3Tgg8W0b/Ei82H9QsNo/DN/pcF33m1e5+qFadOm0d69e1WSy6lTp7r68BbHk6DAgcxEi3XWb8I5l4O+/W7cTarKhpQalQf9bw7Wflel8ses2GtJpoxYJ9GUvBWf3P8yffLzavrP/o1cbjRR/cmxJemlJOicd9XtKnChP58sd+bpIu/c9RyPlljC15tEKbkZqou/j5/KnfGX6+9VVUOs95P3d42/iSuBBNDnO9fRlqQ9REmm80WHdeFgywyeFhJrtNuvWrc/JVc92DobZJCxBjt4FEFooK+5NOevupBfubM8ZB/m0Rwb92VywKQrRQTVBlskn8TTd4whyVMh95ucVWQ+W1ceYTFjYl/q0blu4tH+UcH00MwR9PH6eDUCQ0ZhSFLJYb3DaQ4HNBb+e7f5ONYLk4dHqqSj3+xIo+01VU58vDw4qNCXPHlKjNgZteSsQornvB7WrbD0jMXIi3AOJukDFPuT8+i0Vb4MKcMqf/omiUytAxSXwkd/TViGAAQgAAEIQAACEHCtQBse9l07NtiBY8fHx6teMZy3AM39AlImtCA5kS6ev0AB3SN51Iflg6w7rqA8L5dKOAdEYM/eKleEO85hfcyy7JM8YiOT/HhUS8eoaJdUC7E+h/X7vLw8VTkmiEfONOUm+R2OF+ZS+blK6hYUQSH+gQ5d7kXO/JBfUkjZxflcMaQDSUlRe8k59QeVaR1pecfJkxOCymgI64oe+r7WyxKQySzIpp7h3QzLqFr3b+j7N3hqw/H8Unr5/itULglHjyMP67LvjeN60bWxPRzd7ZL3kxEfUlqzjBN7BnGuiBBd5Q57F1dYcoZKeB8ZNSEjJKT9z2e/kIxsePG+8RRck1TT+hhV/N85OTxN5DwHPTsF+/PUDw/rLk3qvSt9mtSN4WIgAAEIQAACEIBAKxJodSMomttnK1M+ZGRDYzaZaiF/jdkkN0hj5weR/BPNofm086beEZFOX6oEFWRkhvXoDEcOJPksGnJOObZMaRnMf+5sksRRAg0ThnRzKjgh1ySjAiSh5piBTTsfjbWfXLNKgMlTLpxpwRzIkD9nWzuPtoblT509TmP1b2yfxrovnAcCEIAABCAAAQi0JoFWlySzNX24uFcItFQBbZqBs9M7JNeBTJUYyGU7O/p7t1Qe3BcEIAABCEAAAhCAAASapQBGUDTLjw0XDYHWLTCQkyX27BJIUrHCmVbN0xbuuX4wSQUINAhAAAIQgAAEIAABCECgaQkgQNG0Pg9cDQQg4IBAb67c0ZAmFSSG9ApryK4tah81VYTvyJNL/qJBAAIQgAAEIAABCECgqQggQNFUPglcBwQgAIFGErjrukGNdCacBgIQgAAEIAABCEAAAo4L4Oczx63QEwIQgAAEIAABCEAAAhCAAAQgAAE3CSBA4SZYHBYCEIAABCAAAQhAAAIQgAAEIAABxwUQoHDcCj0hAAEIQAACEIAABCAAAQhAAAIQcJNAm4vc3HRsHBYCEIAABCAAAQhAAAIQgAAEIAABCDgkgBEUDjGhEwQgAAEIQAACEIAABCAAAQhAAALuFECAwp26ODYEIAABCEAAAhCAAAQgAAEIQAACDgkgQOEQEzpBAAIQgAAEIAABCEAAAhCAAAQg4E4BBCjcqYtjQwACEIAABCAAAQhAAAIQgAAEIOCQAAIUDjGhEwQgAAEIQAACEIAABCAAAQhAAALuFECAwp26ODYEIAABCEAAAhCAAAQgAAEIQAACDgkgQOEQEzpBAAIQgAAEIAABCEAAAhCAAAQg4E4Bz4YePCsri9LT0827e3h40MiRI8nb29u8DgsQgAAEIAABCEAAAhCAAAQgAAEIQMARgQYHKJYuXUrz58+3OEdQUBAtX76cpkyZYrEebyAAAQhAAAIQgAAEIAABCEAAAhCAgD2BNhe52etga1tmZiYdO3bMYvMtt9xCkydPVkEKiw14AwEIQAACEIAABCAAAQhAAAIQgAAE7Ag0eARFZGQkyZ++eXl5UU5Ojn4VliEAAQhAAAIQgAAEIAABCEAAAhCAQL0CLkuSef78eSoqKiJfX996T4oOEIAABCAAAQhAAAIQgAAEIAABCEBAL+CyAMXBgwepsrKSBgwYoD8+liEAAQhAAAIQgAAEIAABCEAAAhCAQL0CDc5BoT/yhQsXaNKkSbRr1y6SQEX//v31m7EMAQhAAAIQgAAEIAABCEAAAhCAAATsCjQ4B4X+qG+88QZt3bqV3nnnHQQn9DBYhgAEIAABCEAAAhCAAAQgAAEIQMAhAZeMoIiJiVEni4+Pd+ik6AQBCEAAAhCAAAQgAAEIQAACEIAABPQCLslBIYkx27RpQw2sWKq/HixDAAIQgAAEIAABCEAAAhCAAAQg0AoFXDKCYvXq1XTHHXfQ2LFjacqUKTRo0CAKDw8nb29vGjJkSCtkxS1DAAIQgAAEIAABCEAAAhCAAAQg4IyASwIUcsL8/HyaOXOmykWhXUBkZCRlZGRob/EKAQhAAAIQgAAEIAABCEAAAhCAAAQMBVySJPOHH36gOXPmUHR0NP3lL38hyUkhIyh8fHwMT4qVEIAABCAAAQhAAAIQgAAEIAABCEBAL+CSERQTJkygvLw8SkhIIA8PD/3xsQwBCEAAAhCAAAQgAAEIQAACEIAABOoVcEmSTAlO+Pn5IThRLzc6QAACEIAABCAAAQhAAAIQgAAEIGAk4JIAxZ133kkHDhygpUuXGp0D6yAAAQhAAAIQgAAEIAABCEAAAhCAgF0Bl0zxqK6upjFjxlBiYiLFx8erXBR2z4qNEIAABCAAAQhAAAIQgAAEIAABCEBAJ+CSERSenp705ptvUnl5Ob377ru6w2MRAhCAAAQgAAEIQAACEIAABCAAAQjUL+CSAIWcJjY2lry9venQoUP1nxU9IAABCEAAAhCAAAQgAAEIQAACEICATsBlAQoZRRESEkIVFRW6w2MRAhCAAAQgAAEIQAACEIAABCAAAQjUL+BZfxfjHvn5+ZSTk2OxsaqqikJDQy3W4Q0EIAABCEAAAhCAAAQgAAEIQAACEKhPoMEBiiVLltD8+fMtju/j40Nz5861WIc3EIAABCAAAQhAAAIQgAAEIAABCECgPoEGV/FITk6mI0eOmI/v4eFB48ePp8DAQPM6LEAAAhCAAAQgAAEIQAACEIAABCAAAUcEGhygcOTg6AMBCEAAAhCAAAQgAAEIQAACEIAABBwRcFmSTEdOhj4QgAAEIAABCEAAAhCAAAQgAAEIQMBIAAEKIxWsgwAEIAABCEAAAhCAAAQgAAEIQKBRBRCgaFRunAwCEIAABCAAAQhAAAIQgAAEIAABIwEEKIxUsA4CEIAABCAAAQhAAAIQgAAEIACBRhVAgKJRuXEyCEAAAhCAAAQgAAEIQAACEIAABIwEEKAwUsE6CEAAAhCAAAQgAAEIQAACEIAABBpVAAGKRuXGySAAAQhAAAIQgAAEIAABCEAAAhAwEkCAwkgF6yAAAQhAAAIQgAAEIAABCEAAAhBoVAEEKBqVGyeDAAQgAAEIQAACEIAABCAAAQhAwEgAAQojFayDAAQgAAEIQAACEIAABCAAAQhAoFEFEKBoVG6cDAIQgAAEIAABCEAAAhCAAAQgAAEjAQQojFSwDgIQgAAEIAABCEAAAhCAAAQgAIFGFUCAolG5cTIIQAACEIAABCAAAQhAAAIQgAAEjAQQoDBSwToIQAACEIAABCAAAQhAAAIQgAAEGlUAAYpG5cbJIAABCEAAAhCAAAQgAAEIQAACEDASQIDCSAXrIAABCEAAAhCAAAQgAAEIQAACEGhUgf8HmA0wtTQyjyEAAAAASUVORK5CYII=;" vertex="1" parent="XPjhp_FR7xsImikc65yB-19">
          <mxGeometry x="0.5600000000000591" y="56" width="581.44" height="200" as="geometry" />
        </mxCell>
        <mxCell id="XPjhp_FR7xsImikc65yB-21" style="edgeStyle=orthogonalEdgeStyle;rounded=0;orthogonalLoop=1;jettySize=auto;html=1;entryX=0.461;entryY=0.04;entryDx=0;entryDy=0;entryPerimeter=0;" edge="1" parent="1" source="XPjhp_FR7xsImikc65yB-4" target="XPjhp_FR7xsImikc65yB-13">
          <mxGeometry relative="1" as="geometry" />
        </mxCell>
        <mxCell id="XPjhp_FR7xsImikc65yB-22" value="&lt;font style=&quot;font-size: 13px;&quot;&gt;AWS Invoke&lt;/font&gt;" style="edgeLabel;html=1;align=center;verticalAlign=middle;resizable=0;points=[];" vertex="1" connectable="0" parent="XPjhp_FR7xsImikc65yB-21">
          <mxGeometry x="-0.0517" relative="1" as="geometry">
            <mxPoint x="4" y="-1" as="offset" />
          </mxGeometry>
        </mxCell>
        <mxCell id="XPjhp_FR7xsImikc65yB-23" value="Data Processor" style="rounded=0;whiteSpace=wrap;html=1;fillColor=#dae8fc;strokeColor=#6c8ebf;" vertex="1" parent="1">
          <mxGeometry x="700" y="180" width="250" height="50" as="geometry" />
        </mxCell>
        <mxCell id="XPjhp_FR7xsImikc65yB-24" value="" style="sketch=0;points=[[0,0,0],[0.25,0,0],[0.5,0,0],[0.75,0,0],[1,0,0],[0,1,0],[0.25,1,0],[0.5,1,0],[0.75,1,0],[1,1,0],[0,0.25,0],[0,0.5,0],[0,0.75,0],[1,0.25,0],[1,0.5,0],[1,0.75,0]];outlineConnect=0;fontColor=#232F3E;gradientColor=#F78E04;gradientDirection=north;fillColor=#D05C17;strokeColor=#ffffff;dashed=0;verticalLabelPosition=bottom;verticalAlign=top;align=center;html=1;fontSize=12;fontStyle=0;aspect=fixed;shape=mxgraph.aws4.resourceIcon;resIcon=mxgraph.aws4.fargate;" vertex="1" parent="1">
          <mxGeometry x="650" y="180" width="50" height="50" as="geometry" />
        </mxCell>
        <mxCell id="XPjhp_FR7xsImikc65yB-31" value="" style="rounded=0;whiteSpace=wrap;html=1;" vertex="1" parent="1">
          <mxGeometry x="660" y="360" width="300" height="290" as="geometry" />
        </mxCell>
        <mxCell id="XPjhp_FR7xsImikc65yB-32" value="" style="group" vertex="1" connectable="0" parent="1">
          <mxGeometry x="660" y="360" width="300" height="50" as="geometry" />
        </mxCell>
        <mxCell id="XPjhp_FR7xsImikc65yB-29" value="Report Generator" style="rounded=0;whiteSpace=wrap;html=1;fillColor=#dae8fc;strokeColor=#6c8ebf;" vertex="1" parent="XPjhp_FR7xsImikc65yB-32">
          <mxGeometry x="50" width="250" height="50" as="geometry" />
        </mxCell>
        <mxCell id="XPjhp_FR7xsImikc65yB-30" value="" style="shape=image;html=1;verticalAlign=top;verticalLabelPosition=bottom;labelBackgroundColor=#ffffff;imageAspect=0;aspect=fixed;image=https://cdn4.iconfinder.com/data/icons/aiga-symbol-signs/612/aiga_information_bg-128.png" vertex="1" parent="XPjhp_FR7xsImikc65yB-32">
          <mxGeometry width="50" height="50" as="geometry" />
        </mxCell>
        <mxCell id="XPjhp_FR7xsImikc65yB-33" value="Templates" style="rounded=1;whiteSpace=wrap;html=1;fillColor=#f5f5f5;strokeColor=#666666;fontColor=#333333;" vertex="1" parent="1">
          <mxGeometry x="740" y="430" width="150" height="50" as="geometry" />
        </mxCell>
        <mxCell id="XPjhp_FR7xsImikc65yB-34" value="Render" style="rounded=1;whiteSpace=wrap;html=1;fillColor=#ffe6cc;strokeColor=#d79b00;" vertex="1" parent="1">
          <mxGeometry x="740" y="510" width="150" height="54" as="geometry" />
        </mxCell>
        <mxCell id="XPjhp_FR7xsImikc65yB-35" value="Converter" style="rounded=1;whiteSpace=wrap;html=1;fillColor=#fff2cc;strokeColor=#d6b656;" vertex="1" parent="1">
          <mxGeometry x="740" y="590" width="150" height="50" as="geometry" />
        </mxCell>
        <mxCell id="XPjhp_FR7xsImikc65yB-38" value="" style="dashed=0;outlineConnect=0;html=1;align=center;labelPosition=center;verticalLabelPosition=bottom;verticalAlign=top;shape=mxgraph.weblogos.chrome" vertex="1" parent="1">
          <mxGeometry x="741" y="512" width="50" height="50" as="geometry" />
        </mxCell>
      </root>
    </mxGraphModel>
  </diagram>
</mxfile>
